{
.appVersion = "1286";
copyright = "Copyright 2014 The Comic Neue Angular Project Authors (https://github.com/crozynski/comicneue)";
customParameters = (
{
name = note;
value = "";
},
{
name = macintoshFONDName;
value = "Comic Neue Angular";
},
{
name = license;
value = "Licensed under the SIL Open Font License. Version 1.1.";
},
{
name = licenseURL;
value = "http://scripts.sil.org/OFL";
},
{
name = preferredFamilyName;
value = "Comic Neue Angular";
},
{
name = uniqueID;
value = "2.003;;Comic Neue Angular Regular";
},
{
name = versionString;
value = "Version 2.003";
},
{
name = codePageRanges;
value = (
1252,
1250
);
},
{
name = openTypeOS2FamilyClass;
value = (
0,
0
);
},
{
name = openTypeOS2Panose;
value = (
2,
0,
0,
0,
0,
0,
0,
0,
0,
0
);
},
{
name = strikeoutPosition;
value = 302;
},
{
name = strikeoutSize;
value = 50;
},
{
name = openTypeOS2SubscriptXOffset;
value = 0;
},
{
name = openTypeOS2SubscriptXSize;
value = 650;
},
{
name = openTypeOS2SubscriptYOffset;
value = 75;
},
{
name = openTypeOS2SubscriptYSize;
value = 600;
},
{
name = openTypeOS2SuperscriptXOffset;
value = 0;
},
{
name = openTypeOS2SuperscriptXSize;
value = 650;
},
{
name = openTypeOS2SuperscriptYOffset;
value = 350;
},
{
name = openTypeOS2SuperscriptYSize;
value = 600;
},
{
name = fsType;
value = (
);
},
{
name = unicodeRanges;
value = (
0,
1,
2
);
},
{
name = vendorID;
value = "    ";
},
{
name = blueFuzz;
value = 1;
},
{
name = blueScale;
value = 0.03963;
},
{
name = blueShift;
value = 7;
},
{
name = postscriptForceBold;
value = 0;
},
{
name = trademark;
value = "-";
}
);
date = "2020-03-10 21:39:25 +0000";
designer = "Craig Rozynski";
designerURL = "http://www.craigrozynski.com";
disablesNiceNames = 1;
familyName = "Comic Neue Angular";
featurePrefixes = (
{
code = "languagesystem DFLT dflt;\012languagesystem latn dflt;\012";
name = Languagesystems;
},
{

glyphs = (
{
glyphname = A;
layers = (
{
layerId = master01;
paths = (
{
closed = 1;
nodes = (
"573 33 LINE",
"526 1 LINE",
"440 261 LINE",
"176 206 LINE",
"99 0 LINE",
"50 26 LINE",
"112 192 LINE",
"71 184 LINE",
"60 238 LINE",
"135 253 LINE",
"290 667 LINE",
"360 680 LINE"
);
},
{
closed = 1;
nodes = (
"423 313 LINE",
"326 607 LINE",
"199 267 LINE"
);
}
);
userData = {
com.fontlab.hintData = {
hhints = (
{
position = 0;
width = 22;
},
{
position = 660;
width = 20;
}
);
};
};
width = 623;
}
);
unicode = 0041;
},
{
glyphname = Aacute;
layers = (
{
layerId = master01;
paths = (
{
closed = 1;
nodes = (
"573 33 LINE",
"526 1 LINE",
"440 261 LINE",
"176 206 LINE",
"99 0 LINE",
"50 26 LINE",
"112 192 LINE",
"71 184 LINE",
"60 238 LINE",
"135 253 LINE",
"290 667 LINE",
"360 680 LINE"
);
},
{
closed = 1;
nodes = (
"423 313 LINE",
"326 607 LINE",
"199 267 LINE"
);
},
{
closed = 1;
nodes = (
"376 893 LINE",
"428 848 LINE",
"266 736 LINE",
"226 771 LINE"
);
}
);
userData = {
com.fontlab.hintData = {
hhints = (
{
position = 0;
width = 22;
},
{
position = 660;
width = 20;
}
);
};
};
width = 623;
}
);
unicode = 00C1;
},
{
glyphname = Abreve;
layers = (
{
layerId = master01;
paths = (
{
closed = 1;
nodes = (
"573 33 LINE",
"526 1 LINE",
"440 261 LINE",
"176 206 LINE",
"99 0 LINE",
"50 26 LINE",
"112 192 LINE",
"71 184 LINE",
"60 238 LINE",
"135 253 LINE",
"290 667 LINE",
"360 680 LINE"
);
},
{
closed = 1;
nodes = (
"423 313 LINE",
"326 607 LINE",
"199 267 LINE"
);
},
{
closed = 1;
nodes = (
"399 785 OFFCURVE",
"428 814 OFFCURVE",
"446 863 CURVE",
"477 832 LINE",
"458 777 OFFCURVE",
"398 739 OFFCURVE",
"335 739 CURVE SMOOTH",
"265 739 OFFCURVE",
"207 775 OFFCURVE",
"183 828 CURVE",
"213 858 LINE",
"247 797 OFFCURVE",
"299 785 OFFCURVE",
"336 785 CURVE SMOOTH"
);
}
);
userData = {
com.fontlab.hintData = {
hhints = (
{
position = 0;
width = 22;
},
{
position = 660;
width = 20;
},
{
position = 739;
width = 46;
}
);
};
};
width = 623;
}
);
unicode = 0102;
},
{
glyphname = Acircumflex;
layers = (
{
layerId = master01;
paths = (
{
closed = 1;
nodes = (
"573 33 LINE",
"526 1 LINE",
"440 261 LINE",
"176 206 LINE",
"99 0 LINE",
"50 26 LINE",
"112 192 LINE",
"71 184 LINE",
"60 238 LINE",
"135 253 LINE",
"290 667 LINE",
"360 680 LINE"
);
},
{
closed = 1;
nodes = (
"423 313 LINE",
"326 607 LINE",
"199 267 LINE"
);
},
{
closed = 1;
nodes = (
"185 760 LINE",
"335 881 LINE",
"464 759 LINE",
"428 719 LINE",
"332 806 LINE",
"218 718 LINE"
);
}
);
userData = {
com.fontlab.hintData = {
hhints = (
{
position = 0;
width = 22;
},
{
position = 660;
width = 20;
}
);
};
};
width = 623;
}
);
unicode = 00C2;
},
{
glyphname = Adieresis;
layers = (
{
layerId = master01;
paths = (
{
closed = 1;
nodes = (
"573 33 LINE",
"526 1 LINE",
"440 261 LINE",
"176 206 LINE",
"99 0 LINE",
"50 26 LINE",
"112 192 LINE",
"71 184 LINE",
"60 238 LINE",
"135 253 LINE",
"290 667 LINE",
"360 680 LINE"
);
},
{
closed = 1;
nodes = (
"423 313 LINE",
"326 607 LINE",
"199 267 LINE"
);
},
{
closed = 1;
nodes = (
"284 737 LINE",
"210 727 LINE",
"219 809 LINE",
"292 819 LINE"
);
},
{
closed = 1;
nodes = (
"445 737 LINE",
"371 727 LINE",
"380 809 LINE",
"453 819 LINE"
);
}
);
userData = {
com.fontlab.hintData = {
hhints = (
{
position = 0;
width = 22;
},
{
position = 660;
width = 20;
}
);
};
};
width = 623;
}
);
unicode = 00C4;
},
{
glyphname = Agrave;
layers = (
{
layerId = master01;
paths = (
{
closed = 1;
nodes = (
"573 33 LINE",
"526 1 LINE",
"440 261 LINE",
"176 206 LINE",
"99 0 LINE",
"50 26 LINE",
"112 192 LINE",
"71 184 LINE",
"60 238 LINE",
"135 253 LINE",
"290 667 LINE",
"360 680 LINE"
);
},
{
closed = 1;
nodes = (
"423 313 LINE",
"326 607 LINE",
"199 267 LINE"
);
},
{
closed = 1;
nodes = (
"370 726 LINE",
"230 866 LINE",
"290 900 LINE",
"416 754 LINE"
);
}
);
userData = {
com.fontlab.hintData = {
hhints = (
{
position = 0;
width = 22;
},
{
position = 660;
width = 20;
}
);
};
};
width = 623;
}
);
unicode = 00C0;
},
{
glyphname = Aogonek;
layers = (
{
layerId = master01;
paths = (
{
closed = 1;
nodes = (
"543 -11 LINE SMOOTH",
"519 -29 OFFCURVE",
"480 -57 OFFCURVE",
"480 -101 CURVE SMOOTH",
"480 -135 OFFCURVE",
"507 -158 OFFCURVE",
"541 -158 CURVE SMOOTH",
"573 -158 OFFCURVE",
"592 -145 OFFCURVE",
"615 -127 CURVE",
"639 -159 LINE",
"622 -180 OFFCURVE",
"582 -201 OFFCURVE",
"541 -201 CURVE SMOOTH",
"482 -201 OFFCURVE",
"438 -158 OFFCURVE",
"438 -100 CURVE SMOOTH",
"438 -47 OFFCURVE",
"479 -2 OFFCURVE",
"518 24 CURVE",
"440 261 LINE",
"176 206 LINE",
"99 0 LINE",
"50 26 LINE",
"112 192 LINE",
"71 184 LINE",
"60 238 LINE",
"135 253 LINE",
"290 667 LINE",
"360 680 LINE",
"579 15 LINE"
);
},
{
closed = 1;
nodes = (
"423 313 LINE",
"326 607 LINE",
"199 267 LINE"
);
}
);
userData = {
com.fontlab.hintData = {
hhints = (
{
position = -201;
width = 43;
},
{
position = 0;
width = 21;
},
{
position = 660;
width = 20;
}
);
vhints = (
{
position = 438;
width = 42;
}
);
};
};
width = 637;
}
);
unicode = 0104;
},
{
glyphname = Aring;
layers = (
{
layerId = master01;
paths = (
{
closed = 1;
nodes = (
"245 721 OFFCURVE",
"198 768 OFFCURVE",
"198 823 CURVE SMOOTH",
"198 886 OFFCURVE",
"258 940 OFFCURVE",
"332 940 CURVE SMOOTH",
"402 940 OFFCURVE",
"446 888 OFFCURVE",
"446 837 CURVE SMOOTH",
"446 763 OFFCURVE",
"375 721 OFFCURVE",
"312 721 CURVE SMOOTH"
);
},
{
closed = 1;
nodes = (
"294 893 OFFCURVE",
"240 868 OFFCURVE",
"240 823 CURVE SMOOTH",
"240 790 OFFCURVE",
"273 767 OFFCURVE",
"314 767 CURVE SMOOTH",
"356 767 OFFCURVE",
"405 796 OFFCURVE",
"405 835 CURVE SMOOTH",
"405 866 OFFCURVE",
"370 893 OFFCURVE",
"329 893 CURVE SMOOTH"
);
},
{
closed = 1;
nodes = (
"573 33 LINE",
"526 1 LINE",
"440 261 LINE",
"176 206 LINE",
"99 0 LINE",
"50 26 LINE",
"112 192 LINE",
"71 184 LINE",
"60 238 LINE",
"135 253 LINE",
"290 667 LINE",
"360 680 LINE"
);
},
{
closed = 1;
nodes = (
"423 313 LINE",
"326 607 LINE",
"199 267 LINE"
);
}
);
userData = {
com.fontlab.hintData = {
hhints = (
{
position = 0;
width = 22;
},
{
position = 660;
width = 20;
},
{
position = 721;
width = 46;
},
{
position = 893;
width = 47;
}
);
vhints = (
{
position = 198;
width = 42;
},
{
position = 405;
width = 41;
}
);
};
};
width = 623;
}
);
unicode = 00C5;
},
{
glyphname = Atilde;
layers = (
{
layerId = master01;
paths = (
{
closed = 1;
nodes = (
"573 33 LINE",
"526 1 LINE",
"440 261 LINE",
"176 206 LINE",
"99 0 LINE",
"50 26 LINE",
"112 192 LINE",
"71 184 LINE",
"60 238 LINE",
"135 253 LINE",
"290 667 LINE",
"360 680 LINE"
);
},
{
closed = 1;
nodes = (
"423 313 LINE",
"326 607 LINE",
"199 267 LINE"
);
},
{
closed = 1;
nodes = (
"422 762 OFFCURVE",
"444 824 OFFCURVE",
"453 853 CURVE",
"502 837 LINE",
"487 772 OFFCURVE",
"440 721 OFFCURVE",
"389 721 CURVE SMOOTH",
"344 721 OFFCURVE",
"320 753 OFFCURVE",
"300 781 CURVE SMOOTH",
"281 807 OFFCURVE",
"270 829 OFFCURVE",
"253 829 CURVE SMOOTH",
"222 829 OFFCURVE",
"198 770 OFFCURVE",
"192 745 CURVE",
"143 763 LINE",
"159 813 OFFCURVE",
"192 870 OFFCURVE",
"253 870 CURVE SMOOTH",
"299 870 OFFCURVE",
"323 837 OFFCURVE",
"342 811 CURVE SMOOTH",
"361 785 OFFCURVE",
"372 762 OFFCURVE",
"389 762 CURVE SMOOTH"
);
}
);
userData = {
com.fontlab.hintData = {
hhints = (
{
position = 0;
width = 22;
},
{
position = 660;
width = 20;
},
{
position = 721;
width = 41;
},
{
position = 829;
width = 41;
}
);
vhints = (
{
position = 143;
width = 49;
},
{
position = 453;
width = 49;
}
);
};
};
width = 623;
}
);
unicode = 00C3;
},
{
glyphname = AE;
layers = (
{
layerId = master01;
paths = (
{
closed = 1;
nodes = (
"989 56 LINE",
"969 0 LINE",
"503 0 LINE",
"503 307 LINE",
"282 261 LINE",
"98 0 LINE",
"50 26 LINE",
"205 246 LINE",
"166 237 LINE",
"155 290 LINE",
"251 310 LINE",
"513 681 LINE",
"984 681 LINE",
"974 625 LINE",
"559 625 LINE",
"559 382 LINE",
"944 382 LINE",
"927 326 LINE",
"559 326 LINE",
"559 56 LINE"
);
},
{
closed = 1;
nodes = (
"503 572 LINE",
"329 326 LINE",
"503 362 LINE"
);
}
);
userData = {
com.fontlab.hintData = {
hhints = (
{
position = 0;
width = 56;
},
{
position = 326;
width = 56;
},
{
position = 625;
width = 56;
}
);
vhints = (
{
position = 503;
width = 56;
}
);
};
};
width = 1049;
}
);
unicode = 00C6;
},
{
glyphname = B;
layers = (
{
layerId = master01;
paths = (
{
closed = 1;
nodes = (
"65 681 LINE",
"276 681 LINE SMOOTH",
"411 681 OFFCURVE",
"492 614 OFFCURVE",
"492 504 CURVE SMOOTH",
"492 445 OFFCURVE",
"458 396 OFFCURVE",
"391 369 CURVE",
"455 364 OFFCURVE",
"552 303 OFFCURVE",
"552 203 CURVE SMOOTH",
"552 20 OFFCURVE",
"258 0 OFFCURVE",
"132 0 CURVE SMOOTH",
"65 0 LINE"
);
},
{
closed = 1;
nodes = (
"119 54 LINE",
"125.739 53.679 OFFCURVE",
"133.835 53.493 OFFCURVE",
"143.028 53.493 CURVE SMOOTH",
"248.432 53.493 OFFCURVE",
"498 77.91 OFFCURVE",
"498 203 CURVE SMOOTH",
"498 312 OFFCURVE",
"375 332 OFFCURVE",
"303 332 CURVE SMOOTH",
"119 332 LINE"
);
},
{
closed = 1;
nodes = (
"119 385 LINE",
"259 385 LINE SMOOTH",
"337 385 OFFCURVE",
"438 409 OFFCURVE",
"438 504 CURVE SMOOTH",
"438 561 OFFCURVE",
"410 627 OFFCURVE",
"276 627 CURVE SMOOTH",
"119 627 LINE"
);
}
);
userData = {
com.fontlab.hintData = {
hhints = (
{
position = 0;
width = 53;
},
{
position = 332;
width = 53;
},
{
position = 627;
width = 54;
}
);
vhints = (
{
position = 65;
width = 54;
},
{
position = 438;
width = 54;
},
{
position = 498;
width = 54;
}
);
};
};
width = 602;
}
);
unicode = 0042;
},
{
glyphname = C;
layers = (
{
layerId = master01;
paths = (
{
closed = 1;
nodes = (
"180 -1 OFFCURVE",
"51 125 OFFCURVE",
"51 291 CURVE SMOOTH",
"51 452 OFFCURVE",
"169 681 OFFCURVE",
"346 681 CURVE SMOOTH",
"402 681 OFFCURVE",
"453 665 OFFCURVE",
"493 635 CURVE",
"493 658 LINE",
"539 658 LINE",
"539 539 LINE",
"493 539 LINE",
"493 564 LINE",
"466 594 OFFCURVE",
"421 628 OFFCURVE",
"340 628 CURVE SMOOTH",
"209 628 OFFCURVE",
"103 426 OFFCURVE",
"103 293 CURVE SMOOTH",
"103 161 OFFCURVE",
"206 52 OFFCURVE",
"334 52 CURVE SMOOTH",
"428 52 OFFCURVE",
"503 94 OFFCURVE",
"542 170 CURVE",
"581 131 LINE",
"531 49 OFFCURVE",
"438 -1 OFFCURVE",
"334 -1 CURVE SMOOTH"
);
}
);
userData = {
com.fontlab.hintData = {
hhints = (
{
position = -1;
width = 53;
},
{
position = 628;
width = 53;
}
);
vhints = (
{
position = 51;
width = 52;
},
{
position = 493;
width = 46;
}
);
};
};
width = 631;
}
);
unicode = 0043;
},
{
glyphname = Cacute;
layers = (
{
layerId = master01;
paths = (
{
closed = 1;
nodes = (
"180 -1 OFFCURVE",
"51 125 OFFCURVE",
"51 291 CURVE SMOOTH",
"51 452 OFFCURVE",
"169 681 OFFCURVE",
"346 681 CURVE SMOOTH",
"402 681 OFFCURVE",
"453 665 OFFCURVE",
"493 635 CURVE",
"493 658 LINE",
"539 658 LINE",
"539 539 LINE",
"493 539 LINE",
"493 564 LINE",
"466 594 OFFCURVE",
"421 628 OFFCURVE",
"340 628 CURVE SMOOTH",
"209 628 OFFCURVE",
"103 426 OFFCURVE",
"103 293 CURVE SMOOTH",
"103 161 OFFCURVE",
"206 52 OFFCURVE",
"334 52 CURVE SMOOTH",
"428 52 OFFCURVE",
"503 94 OFFCURVE",
"542 170 CURVE",
"581 131 LINE",
"531 49 OFFCURVE",
"438 -1 OFFCURVE",
"334 -1 CURVE SMOOTH"
);
},
{
closed = 1;
nodes = (
"402 893 LINE",
"454 848 LINE",
"292 736 LINE",
"252 771 LINE"
);
}
);
userData = {
com.fontlab.hintData = {
hhints = (
{
position = -1;
width = 53;
},
{
position = 628;
width = 53;
}
);
vhints = (
{
position = 51;
width = 52;
},
{
position = 493;
width = 46;
}
);
};
};
width = 631;
}
);
unicode = 0106;
},
{
glyphname = Ccaron;
layers = (
{
layerId = master01;
paths = (
{
closed = 1;
nodes = (
"180 -1 OFFCURVE",
"51 125 OFFCURVE",
"51 291 CURVE SMOOTH",
"51 452 OFFCURVE",
"169 681 OFFCURVE",
"346 681 CURVE SMOOTH",
"402 681 OFFCURVE",
"453 665 OFFCURVE",
"493 635 CURVE",
"493 658 LINE",
"539 658 LINE",
"539 539 LINE",
"493 539 LINE",
"493 564 LINE",
"466 594 OFFCURVE",
"421 628 OFFCURVE",
"340 628 CURVE SMOOTH",
"209 628 OFFCURVE",
"103 426 OFFCURVE",
"103 293 CURVE SMOOTH",
"103 161 OFFCURVE",
"206 52 OFFCURVE",
"334 52 CURVE SMOOTH",
"428 52 OFFCURVE",
"503 94 OFFCURVE",
"542 170 CURVE",
"581 131 LINE",
"531 49 OFFCURVE",
"438 -1 OFFCURVE",
"334 -1 CURVE SMOOTH"
);
},
{
closed = 1;
nodes = (
"490 838 LINE",
"339 718 LINE",
"210 840 LINE",
"246 880 LINE",
"342 792 LINE",
"457 881 LINE"
);
}
);
userData = {
com.fontlab.hintData = {
hhints = (
{
position = -1;
width = 53;
},
{
position = 628;
width = 53;
}
);
vhints = (
{
position = 51;
width = 52;
},
{
position = 493;
width = 46;
}
);
};
};
width = 631;
}
);
unicode = 010C;
},
{
glyphname = Ccedilla;
layers = (
{
layerId = master01;
paths = (
{
closed = 1;
nodes = (
"371 -159 OFFCURVE",
"393 -137 OFFCURVE",
"393 -110 CURVE SMOOTH",
"393 -83 OFFCURVE",
"371 -61 OFFCURVE",
"344 -61 CURVE SMOOTH",
"331 -61 OFFCURVE",
"317 -67 OFFCURVE",
"312 -72 CURVE",
"283 -42 LINE",
"298 1 LINE",
"160 18 OFFCURVE",
"51 138 OFFCURVE",
"51 291 CURVE SMOOTH",
"51 452 OFFCURVE",
"169 681 OFFCURVE",
"346 681 CURVE SMOOTH",
"402 681 OFFCURVE",
"453 665 OFFCURVE",
"493 635 CURVE",
"493 658 LINE",
"539 658 LINE",
"539 539 LINE",
"493 539 LINE",
"493 564 LINE",
"466 594 OFFCURVE",
"421 628 OFFCURVE",
"340 628 CURVE SMOOTH",
"209 628 OFFCURVE",
"103 426 OFFCURVE",
"103 293 CURVE SMOOTH",
"103 161 OFFCURVE",
"206 52 OFFCURVE",
"334 52 CURVE SMOOTH",
"428 52 OFFCURVE",
"503 94 OFFCURVE",
"542 170 CURVE",
"581 131 LINE",
"531 49 OFFCURVE",
"437 -1 OFFCURVE",
"333 -1 CURVE",
"333 -19 LINE",
"337 -19 LINE SMOOTH",
"393 -19 OFFCURVE",
"435 -55 OFFCURVE",
"435 -110 CURVE SMOOTH",
"435 -160 OFFCURVE",
"394 -201 OFFCURVE",
"344 -201 CURVE SMOOTH",
"315 -201 OFFCURVE",
"289 -188 OFFCURVE",
"272 -166 CURVE",
"302 -136 LINE",
"307 -149 OFFCURVE",
"328 -159 OFFCURVE",
"344 -159 CURVE SMOOTH"
);
}
);
userData = {
com.fontlab.hintData = {
hhints = (
{
position = -201;
width = 42;
},
{
position = -61;
width = 42;
},
{
position = -1;
width = 53;
},
{
position = 628;
width = 53;
}
);
vhints = (
{
position = 51;
width = 52;
},
{
position = 393;
width = 42;
},
{
position = 493;
width = 46;
}
);
};
};
width = 631;
}
);
unicode = 00C7;
},
{
glyphname = Ccircumflex;
layers = (
{
layerId = master01;
paths = (
{
closed = 1;
nodes = (
"180 -1 OFFCURVE",
"51 125 OFFCURVE",
"51 291 CURVE SMOOTH",
"51 452 OFFCURVE",
"169 681 OFFCURVE",
"346 681 CURVE SMOOTH",
"402 681 OFFCURVE",
"453 665 OFFCURVE",
"493 635 CURVE",
"493 658 LINE",
"539 658 LINE",
"539 539 LINE",
"493 539 LINE",
"493 564 LINE",
"466 594 OFFCURVE",
"421 628 OFFCURVE",
"340 628 CURVE SMOOTH",
"209 628 OFFCURVE",
"103 426 OFFCURVE",
"103 293 CURVE SMOOTH",
"103 161 OFFCURVE",
"206 52 OFFCURVE",
"334 52 CURVE SMOOTH",
"428 52 OFFCURVE",
"503 94 OFFCURVE",
"542 170 CURVE",
"581 131 LINE",
"531 49 OFFCURVE",
"438 -1 OFFCURVE",
"334 -1 CURVE SMOOTH"
);
},
{
closed = 1;
nodes = (
"215 760 LINE",
"365 881 LINE",
"494 759 LINE",
"458 719 LINE",
"362 806 LINE",
"248 718 LINE"
);
}
);
userData = {
com.fontlab.hintData = {
hhints = (
{
position = -1;
width = 53;
},
{
position = 628;
width = 53;
}
);
vhints = (
{
position = 51;
width = 52;
},
{
position = 493;
width = 46;
}
);
};
};
width = 631;
}
);
unicode = 0108;
},
{
glyphname = D;
layers = (
{
layerId = master01;
paths = (
{
closed = 1;
nodes = (
"65 680 LINE",
"91 680 LINE SMOOTH",
"209 680 OFFCURVE",
"295 657 OFFCURVE",
"355 628 CURVE SMOOTH",
"486 566 OFFCURVE",
"556 453 OFFCURVE",
"556 301 CURVE SMOOTH",
"556 99 OFFCURVE",
"430 -15 OFFCURVE",
"207 -15 CURVE SMOOTH",
"169 -15 OFFCURVE",
"105 -10 OFFCURVE",
"65 1 CURVE"
);
},
{
closed = 1;
nodes = (
"119 45 LINE",
"138 42 OFFCURVE",
"170 39 OFFCURVE",
"207 39 CURVE SMOOTH",
"262 39 OFFCURVE",
"341 47 OFFCURVE",
"402 86 CURVE SMOOTH",
"468 129 OFFCURVE",
"502 201 OFFCURVE",
"502 301 CURVE SMOOTH",
"502 432 OFFCURVE",
"445 525 OFFCURVE",
"331 579 CURVE SMOOTH",
"250 617 OFFCURVE",
"160 626 OFFCURVE",
"119 627 CURVE"
);
}
);
userData = {
com.fontlab.hintData = {
hhints = (
{
position = -15;
width = 54;
},
{
position = 627;
width = 53;
}
);
vhints = (
{
position = 65;
width = 54;
},
{
position = 502;
width = 54;
}
);
};
};
width = 616;
}
);
unicode = 0044;
},
{
glyphname = Eth;
layers = (
{
layerId = master01;
paths = (
{
closed = 1;
nodes = (
"125 291 LINE",
"26 291 LINE",
"36 350 LINE",
"125 350 LINE",
"125 680 LINE",
"151 680 LINE SMOOTH",
"269 680 OFFCURVE",
"355 657 OFFCURVE",
"415 628 CURVE SMOOTH",
"546 566 OFFCURVE",
"616 453 OFFCURVE",
"616 301 CURVE SMOOTH",
"616 99 OFFCURVE",
"490 -15 OFFCURVE",
"267 -15 CURVE SMOOTH",
"229 -15 OFFCURVE",
"165 -10 OFFCURVE",
"125 1 CURVE"
);
},
{
closed = 1;
nodes = (
"179 350 LINE",
"289 350 LINE",
"279 291 LINE",
"179 291 LINE",
"179 45 LINE",
"198 42 OFFCURVE",
"230 39 OFFCURVE",
"267 39 CURVE SMOOTH",
"322 39 OFFCURVE",
"401 47 OFFCURVE",
"462 86 CURVE SMOOTH",
"528 129 OFFCURVE",
"562 201 OFFCURVE",
"562 301 CURVE SMOOTH",
"562 432 OFFCURVE",
"505 525 OFFCURVE",
"391 579 CURVE SMOOTH",
"310 617 OFFCURVE",
"220 626 OFFCURVE",
"179 627 CURVE"
);
}
);
userData = {
com.fontlab.hintData = {
hhints = (
{
position = -15;
width = 54;
},
{
position = 291;
width = 59;
},
{
position = 627;
width = 53;
}
);
vhints = (
{
position = 125;
width = 54;
},
{
position = 562;
width = 54;
}
);
};
};
width = 676;
}
);
unicode = 00D0;
},
{
glyphname = Dcaron;
layers = (
{
layerId = master01;
paths = (
{
closed = 1;
nodes = (
"65 680 LINE",
"91 680 LINE SMOOTH",
"209 680 OFFCURVE",
"295 657 OFFCURVE",
"355 628 CURVE SMOOTH",
"486 566 OFFCURVE",
"556 453 OFFCURVE",
"556 301 CURVE SMOOTH",
"556 99 OFFCURVE",
"430 -15 OFFCURVE",
"207 -15 CURVE SMOOTH",
"169 -15 OFFCURVE",
"105 -10 OFFCURVE",
"65 1 CURVE"
);
},
{
closed = 1;
nodes = (
"119 45 LINE",
"138 42 OFFCURVE",
"170 39 OFFCURVE",
"207 39 CURVE SMOOTH",
"262 39 OFFCURVE",
"341 47 OFFCURVE",
"402 86 CURVE SMOOTH",
"468 129 OFFCURVE",
"502 201 OFFCURVE",
"502 301 CURVE SMOOTH",
"502 432 OFFCURVE",
"445 525 OFFCURVE",
"331 579 CURVE SMOOTH",
"250 617 OFFCURVE",
"160 626 OFFCURVE",
"119 627 CURVE"
);
},
{
closed = 1;
nodes = (
"417 838 LINE",
"267 718 LINE",
"138 840 LINE",
"174 880 LINE",
"270 792 LINE",
"384 881 LINE"
);
}
);
userData = {
com.fontlab.hintData = {
hhints = (
{
position = -15;
width = 54;
},
{
position = 627;
width = 53;
}
);
vhints = (
{
position = 65;
width = 54;
},
{
position = 502;
width = 54;
}
);
};
};
width = 616;
}
);
unicode = 010E;
},
{
glyphname = Dcroat;
layers = (
{
layerId = master01;
paths = (
{
closed = 1;
nodes = (
"125 291 LINE",
"26 291 LINE",
"36 350 LINE",
"125 350 LINE",
"125 680 LINE",
"151 680 LINE SMOOTH",
"269 680 OFFCURVE",
"355 657 OFFCURVE",
"415 628 CURVE SMOOTH",
"546 566 OFFCURVE",
"616 453 OFFCURVE",
"616 301 CURVE SMOOTH",
"616 99 OFFCURVE",
"490 -15 OFFCURVE",
"267 -15 CURVE SMOOTH",
"229 -15 OFFCURVE",
"165 -10 OFFCURVE",
"125 1 CURVE"
);
},
{
closed = 1;
nodes = (
"179 350 LINE",
"289 350 LINE",
"279 291 LINE",
"179 291 LINE",
"179 45 LINE",
"198 42 OFFCURVE",
"230 39 OFFCURVE",
"267 39 CURVE SMOOTH",
"322 39 OFFCURVE",
"401 47 OFFCURVE",
"462 86 CURVE SMOOTH",
"528 129 OFFCURVE",
"562 201 OFFCURVE",
"562 301 CURVE SMOOTH",
"562 432 OFFCURVE",
"505 525 OFFCURVE",
"391 579 CURVE SMOOTH",
"310 617 OFFCURVE",
"220 626 OFFCURVE",
"179 627 CURVE"
);
}
);
userData = {
com.fontlab.hintData = {
hhints = (
{
position = -15;
width = 54;
},
{
position = 291;
width = 59;
},
{
position = 627;
width = 53;
}
);
vhints = (
{
position = 125;
width = 54;
},
{
position = 562;
width = 54;
}
);
};
};
width = 676;
}
);
unicode = 0110;
},
{
glyphname = E;
layers = (
{
layerId = master01;
paths = (
{
closed = 1;
nodes = (
"551 56 LINE",
"531 0 LINE",
"65 0 LINE",
"65 681 LINE",
"546 681 LINE",
"536 625 LINE",
"121 625 LINE",
"121 382 LINE",
"506 382 LINE",
"489 326 LINE",
"121 326 LINE",
"121 56 LINE"
);
}
);
userData = {
com.fontlab.hintData = {
hhints = (
{
position = 0;
width = 56;
},
{
position = 326;
width = 56;
},
{
position = 625;
width = 56;
}
);
vhints = (
{
position = 65;
width = 56;
}
);
};
};
width = 611;
}
);
unicode = 0045;
},
{
glyphname = Eacute;
layers = (
{
layerId = master01;
paths = (
{
closed = 1;
nodes = (
"551 56 LINE",
"531 0 LINE",
"65 0 LINE",
"65 681 LINE",
"546 681 LINE",
"536 625 LINE",
"121 625 LINE",
"121 382 LINE",
"506 382 LINE",
"489 326 LINE",
"121 326 LINE",
"121 56 LINE"
);
},
{
closed = 1;
nodes = (
"348 893 LINE",
"401 848 LINE",
"239 736 LINE",
"198 771 LINE"
);
}
);
userData = {
com.fontlab.hintData = {
hhints = (
{
position = 0;
width = 56;
},
{
position = 326;
width = 56;
},
{
position = 625;
width = 56;
}
);
vhints = (
{
position = 65;
width = 56;
}
);
};
};
width = 611;
}
);
unicode = 00C9;
},
{
glyphname = Ecaron;
layers = (
{
layerId = master01;
paths = (
{
closed = 1;
nodes = (
"551 56 LINE",
"531 0 LINE",
"65 0 LINE",
"65 681 LINE",
"546 681 LINE",
"536 625 LINE",
"121 625 LINE",
"121 382 LINE",
"506 382 LINE",
"489 326 LINE",
"121 326 LINE",
"121 56 LINE"
);
},
{
closed = 1;
nodes = (
"447 838 LINE",
"296 718 LINE",
"167 840 LINE",
"203 880 LINE",
"299 792 LINE",
"414 881 LINE"
);
}
);
userData = {
com.fontlab.hintData = {
hhints = (
{
position = 0;
width = 56;
},
{
position = 326;
width = 56;
},
{
position = 625;
width = 56;
}
);
vhints = (
{
position = 65;
width = 56;
}
);
};
};
width = 611;
}
);
unicode = 011A;
},
{
glyphname = Ecircumflex;
layers = (
{
layerId = master01;
paths = (
{
closed = 1;
nodes = (
"551 56 LINE",
"531 0 LINE",
"65 0 LINE",
"65 681 LINE",
"546 681 LINE",
"536 625 LINE",
"121 625 LINE",
"121 382 LINE",
"506 382 LINE",
"489 326 LINE",
"121 326 LINE",
"121 56 LINE"
);
},
{
closed = 1;
nodes = (
"167 760 LINE",
"317 881 LINE",
"446 759 LINE",
"410 719 LINE",
"314 806 LINE",
"200 718 LINE"
);
}
);
userData = {
com.fontlab.hintData = {
hhints = (
{
position = 0;
width = 56;
},
{
position = 326;
width = 56;
},
{
position = 625;
width = 56;
}
);
vhints = (
{
position = 65;
width = 56;
}
);
};
};
width = 611;
}
);
unicode = 00CA;
},
{
glyphname = Edieresis;
layers = (
{
layerId = master01;
paths = (
{
closed = 1;
nodes = (
"551 56 LINE",
"531 0 LINE",
"65 0 LINE",
"65 681 LINE",
"546 681 LINE",
"536 625 LINE",
"121 625 LINE",
"121 382 LINE",
"506 382 LINE",
"489 326 LINE",
"121 326 LINE",
"121 56 LINE"
);
},
{
closed = 1;
nodes = (
"263 737 LINE",
"189 727 LINE",
"198 809 LINE",
"271 819 LINE"
);
},
{
closed = 1;
nodes = (
"424 737 LINE",
"350 727 LINE",
"359 809 LINE",
"432 819 LINE"
);
}
);
userData = {
com.fontlab.hintData = {
hhints = (
{
position = 0;
width = 56;
},
{
position = 326;
width = 56;
},
{
position = 625;
width = 56;
}
);
vhints = (
{
position = 65;
width = 56;
}
);
};
};
width = 611;
}
);
unicode = 00CB;
},
{
glyphname = Egrave;
layers = (
{
layerId = master01;
paths = (
{
closed = 1;
nodes = (
"551 56 LINE",
"531 0 LINE",
"65 0 LINE",
"65 681 LINE",
"546 681 LINE",
"536 625 LINE",
"121 625 LINE",
"121 382 LINE",
"506 382 LINE",
"489 326 LINE",
"121 326 LINE",
"121 56 LINE"
);
},
{
closed = 1;
nodes = (
"329 726 LINE",
"189 866 LINE",
"249 900 LINE",
"375 754 LINE"
);
}
);
userData = {
com.fontlab.hintData = {
hhints = (
{
position = 0;
width = 56;
},
{
position = 326;
width = 56;
},
{
position = 625;
width = 56;
}
);
vhints = (
{
position = 65;
width = 56;
}
);
};
};
width = 611;
}
);
unicode = 00C8;
},
{
glyphname = Eogonek;
layers = (
{
layerId = master01;
paths = (
{
closed = 1;
nodes = (
"562 -159 LINE",
"545 -180 OFFCURVE",
"505 -201 OFFCURVE",
"464 -201 CURVE SMOOTH",
"405 -201 OFFCURVE",
"361 -158 OFFCURVE",
"361 -100 CURVE SMOOTH",
"361 -61 OFFCURVE",
"383 -26 OFFCURVE",
"411 0 CURVE",
"65 0 LINE",
"65 681 LINE",
"546 681 LINE",
"536 625 LINE",
"121 625 LINE",
"121 382 LINE",
"506 382 LINE",
"489 326 LINE",
"121 326 LINE",
"121 56 LINE",
"551 56 LINE",
"531 0 LINE",
"481 0 LINE",
"466 -11 LINE SMOOTH",
"441 -30 OFFCURVE",
"403 -57 OFFCURVE",
"403 -101 CURVE SMOOTH",
"403 -135 OFFCURVE",
"430 -158 OFFCURVE",
"464 -158 CURVE SMOOTH",
"496 -158 OFFCURVE",
"515 -145 OFFCURVE",
"538 -127 CURVE"
);
}
);
userData = {
com.fontlab.hintData = {
hhints = (
{
position = -201;
width = 43;
},
{
position = 0;
width = 56;
},
{
position = 326;
width = 56;
},
{
position = 625;
width = 56;
}
);
vhints = (
{
position = 65;
width = 56;
},
{
position = 361;
width = 42;
}
);
};
};
width = 611;
}
);
unicode = 0118;
},
{
glyphname = F;
layers = (
{
layerId = master01;
paths = (
{
closed = 1;
nodes = (
"116 625 LINE",
"116 374 LINE",
"454 374 LINE",
"444 317 LINE",
"116 317 LINE",
"116 10 LINE",
"60 0 LINE",
"60 681 LINE",
"505 681 LINE",
"495 625 LINE"
);
}
);
userData = {
com.fontlab.hintData = {
hhints = (
{
position = 0;
width = 21;
},
{
position = 317;
width = 57;
},
{
position = 625;
width = 56;
}
);
vhints = (
{
position = 60;
width = 56;
}
);
};
};
width = 505;
}
);
unicode = 0046;
},
{
glyphname = G;
layers = (
{
layerId = master01;
paths = (
{
closed = 1;
nodes = (
"637 182 OFFCURVE",
"587 -2 OFFCURVE",
"355 -2 CURVE SMOOTH",
"182 -2 OFFCURVE",
"60 149 OFFCURVE",
"60 341 CURVE SMOOTH",
"60 500 OFFCURVE",
"186 682 OFFCURVE",
"374 682 CURVE SMOOTH",
"525 682 OFFCURVE",
"620 598 OFFCURVE",
"650 477 CURVE",
"597 466 LINE",
"572 565 OFFCURVE",
"497 629 OFFCURVE",
"374 629 CURVE SMOOTH",
"192 629 OFFCURVE",
"114 438 OFFCURVE",
"114 341 CURVE SMOOTH",
"114 199 OFFCURVE",
"197 52 OFFCURVE",
"355 52 CURVE SMOOTH",
"482 52 OFFCURVE",
"564 120 OFFCURVE",
"594 235 CURVE",
"584 236 OFFCURVE",
"572 236 OFFCURVE",
"567 236 CURVE SMOOTH",
"507 236 OFFCURVE",
"443 224 OFFCURVE",
"406 208 CURVE",
"406 266 LINE",
"452 281 OFFCURVE",
"512 289 OFFCURVE",
"570 289 CURVE SMOOTH",
"611 289 OFFCURVE",
"651 285 OFFCURVE",
"684 277 CURVE",
"684 221 LINE",
"675 224 OFFCURVE",
"660 229 OFFCURVE",
"647 230 CURVE"
);
}
);
userData = {
com.fontlab.hintData = {
hhints = (
{
position = -2;
width = 54;
},
{
position = 236;
width = 53;
},
{
position = 629;
width = 53;
}
);
vhints = (
{
position = 60;
width = 54;
},
{
position = 594;
width = 53;
}
);
};
};
width = 744;
}
);
unicode = 0047;
},
{
glyphname = Gcircumflex;
layers = (
{
layerId = master01;
paths = (
{
closed = 1;
nodes = (
"637 182 OFFCURVE",
"587 -2 OFFCURVE",
"355 -2 CURVE SMOOTH",
"182 -2 OFFCURVE",
"60 149 OFFCURVE",
"60 341 CURVE SMOOTH",
"60 500 OFFCURVE",
"186 682 OFFCURVE",
"374 682 CURVE SMOOTH",
"525 682 OFFCURVE",
"620 598 OFFCURVE",
"650 477 CURVE",
"597 466 LINE",
"572 565 OFFCURVE",
"497 629 OFFCURVE",
"374 629 CURVE SMOOTH",
"192 629 OFFCURVE",
"114 438 OFFCURVE",
"114 341 CURVE SMOOTH",
"114 199 OFFCURVE",
"197 52 OFFCURVE",
"355 52 CURVE SMOOTH",
"482 52 OFFCURVE",
"564 120 OFFCURVE",
"594 235 CURVE",
"584 236 OFFCURVE",
"572 236 OFFCURVE",
"567 236 CURVE SMOOTH",
"507 236 OFFCURVE",
"443 224 OFFCURVE",
"406 208 CURVE",
"406 266 LINE",
"452 281 OFFCURVE",
"512 289 OFFCURVE",
"570 289 CURVE SMOOTH",
"611 289 OFFCURVE",
"651 285 OFFCURVE",
"684 277 CURVE",
"684 221 LINE",
"675 224 OFFCURVE",
"660 229 OFFCURVE",
"647 230 CURVE"
);
},
{
closed = 1;
nodes = (
"235 760 LINE",
"385 881 LINE",
"514 759 LINE",
"478 719 LINE",
"382 806 LINE",
"268 718 LINE"
);
}
);
userData = {
com.fontlab.hintData = {
hhints = (
{
position = -2;
width = 54;
},
{
position = 236;
width = 53;
},
{
position = 629;
width = 53;
}
);
vhints = (
{
position = 60;
width = 54;
},
{
position = 594;
width = 53;
}
);
};
};
width = 744;
}
);
unicode = 011C;
},
{
glyphname = H;
layers = (
{
layerId = master01;
paths = (
{
closed = 1;
nodes = (
"618 681 LINE",
"618 20 LINE",
"562 0 LINE",
"562 349 LINE",
"121 287 LINE",
"121 20 LINE",
"65 0 LINE",
"65 671 LINE",
"121 681 LINE",
"121 344 LINE",
"562 406 LINE",
"562 671 LINE"
);
}
);
userData = {
com.fontlab.hintData = {
hhints = (
{
position = 0;
width = 21;
},
{
position = 661;
width = 20;
}
);
vhints = (
{
position = 65;
width = 56;
},
{
position = 562;
width = 56;
}
);
};
};
width = 683;
}
);
unicode = 0048;
},
{
glyphname = Hcircumflex;
layers = (
{
layerId = master01;
paths = (
{
closed = 1;
nodes = (
"618 681 LINE",
"618 20 LINE",
"562 0 LINE",
"562 349 LINE",
"121 287 LINE",
"121 20 LINE",
"65 0 LINE",
"65 671 LINE",
"121 681 LINE",
"121 344 LINE",
"562 406 LINE",
"562 671 LINE"
);
},
{
closed = 1;
nodes = (
"204 760 LINE",
"354 881 LINE",
"483 759 LINE",
"447 719 LINE",
"351 806 LINE",
"237 718 LINE"
);
}
);
userData = {
com.fontlab.hintData = {
hhints = (
{
position = 0;
width = 21;
},
{
position = 661;
width = 20;
}
);
vhints = (
{
position = 65;
width = 56;
},
{
position = 562;
width = 56;
}
);
};
};
width = 683;
}
);
unicode = 0124;
},
{
glyphname = I;
layers = (
{
layerId = master01;
paths = (
{
closed = 1;
nodes = (
"249 625 LINE",
"249 56 LINE",
"377 56 LINE",
"367 0 LINE",
"60 0 LINE",
"70 56 LINE",
"193 56 LINE",
"193 625 LINE",
"60 625 LINE",
"70 681 LINE",
"377 681 LINE",
"367 625 LINE"
);
}
);
userData = {
com.fontlab.hintData = {
hhints = (
{
position = 0;
width = 56;
},
{
position = 625;
width = 56;
}
);
vhints = (
{
position = 193;
width = 56;
}
);
};
};
width = 437;
}
);
unicode = 0049;
},
{
glyphname = Iacute;
layers = (
{
layerId = master01;
paths = (
{
closed = 1;
nodes = (
"249 625 LINE",
"249 56 LINE",
"377 56 LINE",
"367 0 LINE",
"60 0 LINE",
"70 56 LINE",
"193 56 LINE",
"193 625 LINE",
"60 625 LINE",
"70 681 LINE",
"377 681 LINE",
"367 625 LINE"
);
},
{
closed = 1;
nodes = (
"274 893 LINE",
"327 848 LINE",
"165 736 LINE",
"124 771 LINE"
);
}
);
userData = {
com.fontlab.hintData = {
hhints = (
{
position = 0;
width = 56;
},
{
position = 625;
width = 56;
}
);
vhints = (
{
position = 193;
width = 56;
}
);
};
};
width = 437;
}
);
unicode = 00CD;
},
{
glyphname = Icircumflex;
layers = (
{
layerId = master01;
paths = (
{
closed = 1;
nodes = (
"249 625 LINE",
"249 56 LINE",
"377 56 LINE",
"367 0 LINE",
"60 0 LINE",
"70 56 LINE",
"193 56 LINE",
"193 625 LINE",
"60 625 LINE",
"70 681 LINE",
"377 681 LINE",
"367 625 LINE"
);
},
{
closed = 1;
nodes = (
"81 760 LINE",
"231 881 LINE",
"360 759 LINE",
"324 719 LINE",
"228 806 LINE",
"114 718 LINE"
);
}
);
userData = {
com.fontlab.hintData = {
hhints = (
{
position = 0;
width = 56;
},
{
position = 625;
width = 56;
}
);
vhints = (
{
position = 193;
width = 56;
}
);
};
};
width = 437;
}
);
unicode = 00CE;
},
{
glyphname = Idieresis;
layers = (
{
layerId = master01;
paths = (
{
closed = 1;
nodes = (
"249 625 LINE",
"249 56 LINE",
"377 56 LINE",
"367 0 LINE",
"60 0 LINE",
"70 56 LINE",
"193 56 LINE",
"193 625 LINE",
"60 625 LINE",
"70 681 LINE",
"377 681 LINE",
"367 625 LINE"
);
},
{
closed = 1;
nodes = (
"177 737 LINE",
"103 727 LINE",
"112 809 LINE",
"185 819 LINE"
);
},
{
closed = 1;
nodes = (
"338 737 LINE",
"264 727 LINE",
"273 809 LINE",
"346 819 LINE"
);
}
);
userData = {
com.fontlab.hintData = {
hhints = (
{
position = 0;
width = 56;
},
{
position = 625;
width = 56;
}
);
vhints = (
{
position = 193;
width = 56;
}
);
};
};
width = 437;
}
);
unicode = 00CF;
},
{
glyphname = Igrave;
layers = (
{
layerId = master01;
paths = (
{
closed = 1;
nodes = (
"249 625 LINE",
"249 56 LINE",
"377 56 LINE",
"367 0 LINE",
"60 0 LINE",
"70 56 LINE",
"193 56 LINE",
"193 625 LINE",
"60 625 LINE",
"70 681 LINE",
"377 681 LINE",
"367 625 LINE"
);
},
{
closed = 1;
nodes = (
"258 726 LINE",
"118 866 LINE",
"178 900 LINE",
"304 754 LINE"
);
}
);
userData = {
com.fontlab.hintData = {
hhints = (
{
position = 0;
width = 56;
},
{
position = 625;
width = 56;
}
);
vhints = (
{
position = 193;
width = 56;
}
);
};
};
width = 437;
}
);
unicode = 00CC;
},
{
glyphname = J;
layers = (
{
layerId = master01;
paths = (
{
closed = 1;
nodes = (
"449 679 LINE",
"449 622 LINE",
"398 622 LINE",
"398 162 LINE SMOOTH",
"398 67 OFFCURVE",
"327 1 OFFCURVE",
"224 1 CURVE SMOOTH",
"123 1 OFFCURVE",
"50 69 OFFCURVE",
"50 162 CURVE SMOOTH",
"50 197 LINE",
"106 207 LINE",
"106 162 LINE SMOOTH",
"106 99 OFFCURVE",
"154 52 OFFCURVE",
"224 52 CURVE SMOOTH",
"296 52 OFFCURVE",
"342 98 OFFCURVE",
"342 162 CURVE SMOOTH",
"342 622 LINE",
"188 622 LINE",
"188 679 LINE"
);
}
);
userData = {
com.fontlab.hintData = {
hhints = (
{
position = 1;
width = 51;
},
{
position = 622;
width = 57;
}
);
vhints = (
{
position = 50;
width = 56;
},
{
position = 342;
width = 56;
}
);
};
};
width = 469;
}
);
unicode = 004A;
},
{
glyphname = Jcircumflex;
layers = (
{
layerId = master01;
paths = (
{
closed = 1;
nodes = (
"449 679 LINE",
"449 622 LINE",
"398 622 LINE",
"398 162 LINE SMOOTH",
"398 67 OFFCURVE",
"327 1 OFFCURVE",
"224 1 CURVE SMOOTH",
"123 1 OFFCURVE",
"50 69 OFFCURVE",
"50 162 CURVE SMOOTH",
"50 197 LINE",
"106 207 LINE",
"106 162 LINE SMOOTH",
"106 99 OFFCURVE",
"154 52 OFFCURVE",
"224 52 CURVE SMOOTH",
"296 52 OFFCURVE",
"342 98 OFFCURVE",
"342 162 CURVE SMOOTH",
"342 622 LINE",
"188 622 LINE",
"188 679 LINE"
);
},
{
closed = 1;
nodes = (
"185 760 LINE",
"335 881 LINE",
"464 759 LINE",
"428 719 LINE",
"332 806 LINE",
"218 718 LINE"
);
}
);
userData = {
com.fontlab.hintData = {
hhints = (
{
position = 1;
width = 51;
},
{
position = 622;
width = 57;
}
);
vhints = (
{
position = 50;
width = 56;
},
{
position = 342;
width = 56;
}
);
};
};
width = 469;
}
);
unicode = 0134;
},
{
glyphname = K;
layers = (
{
layerId = master01;
paths = (
{
closed = 1;
nodes = (
"494 0 LINE",
"119 285 LINE",
"119 10 LINE",
"65 0 LINE",
"65 671 LINE",
"119 681 LINE",
"119 388 LINE",
"466 680 LINE",
"501 639 LINE",
"140 336 LINE",
"527 43 LINE"
);
}
);
userData = {
com.fontlab.hintData = {
hhints = (
{
position = 0;
width = 21;
},
{
position = 661;
width = 20;
}
);
vhints = (
{
position = 65;
width = 54;
}
);
};
};
width = 577;
}
);
unicode = 004B;
},
{
glyphname = L;
layers = (
{
layerId = master01;
paths = (
{
closed = 1;
nodes = (
"65 668 LINE",
"121 678 LINE",
"121 60 LINE",
"462 85 LINE",
"466 29 LINE",
"65 0 LINE"
);
}
);
userData = {
com.fontlab.hintData = {
hhints = (
{
position = 0;
width = 21;
}
);
vhints = (
{
position = 65;
width = 56;
}
);
};
};
width = 487;
}
);
unicode = 004C;
},
{
glyphname = Lacute;
layers = (
{
layerId = master01;
paths = (
{
closed = 1;
nodes = (
"65 668 LINE",
"121 678 LINE",
"121 60 LINE",
"462 85 LINE",
"466 29 LINE",
"65 0 LINE"
);
},
{
closed = 1;
nodes = (
"263 893 LINE",
"315 848 LINE",
"153 736 LINE",
"113 771 LINE"
);
}
);
userData = {
com.fontlab.hintData = {
hhints = (
{
position = 0;
width = 21;
}
);
vhints = (
{
position = 65;
width = 56;
}
);
};
};
width = 487;
}
);
unicode = 0139;
},
{
glyphname = Lcaron;
layers = (
{
layerId = master01;
paths = (
{
closed = 1;
nodes = (
"110 668 LINE",
"166 678 LINE",
"166 60 LINE",
"507 85 LINE",
"511 29 LINE",
"110 0 LINE"
);
},
{
closed = 1;
nodes = (
"344 838 LINE",
"194 718 LINE",
"65 840 LINE",
"101 880 LINE",
"197 792 LINE",
"311 881 LINE"
);
}
);
userData = {
com.fontlab.hintData = {
hhints = (
{
position = 0;
width = 21;
}
);
vhints = (
{
position = 110;
width = 56;
}
);
};
};
width = 532;
}
);
unicode = 013D;
},
{
glyphname = Lslash;
layers = (
{
layerId = master01;
paths = (
{
closed = 1;
nodes = (
"127 0 LINE",
"127 295 LINE",
"74 261 LINE",
"42 308 LINE",
"127 362 LINE",
"127 668 LINE",
"183 678 LINE",
"183 397 LINE",
"237 432 LINE",
"268 384 LINE",
"183 330 LINE",
"183 60 LINE",
"524 85 LINE",
"528 29 LINE"
);
}
);
userData = {
com.fontlab.hintData = {
hhints = (
{
position = 0;
width = 21;
}
);
vhints = (
{
position = 127;
width = 56;
}
);
};
};
width = 549;
}
);
unicode = 0141;
},
{
glyphname = M;
layers = (
{
layerId = master01;
paths = (
{
closed = 1;
nodes = (
"106 10 LINE",
"50 0 LINE",
"190 671 LINE",
"243 681 LINE",
"418 65 LINE",
"612 671 LINE",
"669 681 LINE",
"815 10 LINE",
"758 0 LINE",
"636 573 LINE",
"456 10 LINE",
"380 0 LINE",
"221 557 LINE"
);
}
);
userData = {
com.fontlab.hintData = {
hhints = (
{
position = 0;
width = 21;
},
{
position = 661;
width = 20;
}
);
};
};
width = 865;
}
);
unicode = 004D;
},
{
glyphname = N;
layers = (
{
layerId = master01;
paths = (
{
closed = 1;
nodes = (
"550 681 LINE",
"550 13 LINE",
"486 0 LINE",
"119 588 LINE",
"119 12 LINE",
"66 1 LINE",
"65 664 LINE",
"124 681 LINE",
"497 88 LINE",
"497 671 LINE"
);
}
);
userData = {
com.fontlab.hintData = {
hhints = (
{
position = 1;
width = 20;
},
{
position = 661;
width = 20;
}
);
vhints = (
{
position = 66;
width = 53;
},
{
position = 497;
width = 53;
}
);
};
};
width = 615;
}
);
unicode = 004E;
},
{
glyphname = Nacute;
layers = (
{
layerId = master01;
paths = (
{
closed = 1;
nodes = (
"550 681 LINE",
"550 13 LINE",
"486 0 LINE",
"119 588 LINE",
"119 12 LINE",
"66 1 LINE",
"65 664 LINE",
"124 681 LINE",
"497 88 LINE",
"497 671 LINE"
);
},
{
closed = 1;
nodes = (
"357 893 LINE",
"410 848 LINE",
"248 736 LINE",
"207 771 LINE"
);
}
);
userData = {
com.fontlab.hintData = {
hhints = (
{
position = 1;
width = 20;
},
{
position = 661;
width = 20;
}
);
vhints = (
{
position = 66;
width = 53;
},
{
position = 497;
width = 53;
}
);
};
};
width = 615;
}
);
unicode = 0143;
},
{
glyphname = Ncaron;
layers = (
{
layerId = master01;
paths = (
{
closed = 1;
nodes = (
"550 681 LINE",
"550 13 LINE",
"486 0 LINE",
"119 588 LINE",
"119 12 LINE",
"66 1 LINE",
"65 664 LINE",
"124 681 LINE",
"497 88 LINE",
"497 671 LINE"
);
},
{
closed = 1;
nodes = (
"458 838 LINE",
"307 718 LINE",
"178 840 LINE",
"214 880 LINE",
"310 792 LINE",
"425 881 LINE"
);
}
);
userData = {
com.fontlab.hintData = {
hhints = (
{
position = 1;
width = 20;
},
{
position = 661;
width = 20;
}
);
vhints = (
{
position = 66;
width = 53;
},
{
position = 497;
width = 53;
}
);
};
};
width = 615;
}
);
unicode = 0147;
},
{
glyphname = Ntilde;
layers = (
{
layerId = master01;
paths = (
{
closed = 1;
nodes = (
"550 681 LINE",
"550 13 LINE",
"486 0 LINE",
"119 588 LINE",
"119 12 LINE",
"66 1 LINE",
"65 664 LINE",
"124 681 LINE",
"497 88 LINE",
"497 671 LINE"
);
},
{
closed = 1;
nodes = (
"412 762 OFFCURVE",
"434 824 OFFCURVE",
"443 853 CURVE",
"492 837 LINE",
"477 772 OFFCURVE",
"430 721 OFFCURVE",
"379 721 CURVE SMOOTH",
"334 721 OFFCURVE",
"310 753 OFFCURVE",
"290 781 CURVE SMOOTH",
"271 807 OFFCURVE",
"260 829 OFFCURVE",
"243 829 CURVE SMOOTH",
"212 829 OFFCURVE",
"188 770 OFFCURVE",
"182 745 CURVE",
"133 763 LINE",
"149 813 OFFCURVE",
"182 870 OFFCURVE",
"243 870 CURVE SMOOTH",
"289 870 OFFCURVE",
"313 837 OFFCURVE",
"332 811 CURVE SMOOTH",
"351 785 OFFCURVE",
"362 762 OFFCURVE",
"379 762 CURVE SMOOTH"
);
}
);
userData = {
com.fontlab.hintData = {
hhints = (
{
position = 1;
width = 20;
},
{
position = 661;
width = 20;
},
{
position = 721;
width = 41;
},
{
position = 829;
width = 41;
}
);
vhints = (
{
position = 66;
width = 53;
},
{
position = 133;
width = 49;
},
{
position = 443;
width = 49;
},
{
position = 497;
width = 53;
}
);
};
};
width = 615;
}
);
unicode = 00D1;
},
{
glyphname = O;
layers = (
{
layerId = master01;
paths = (
{
closed = 1;
nodes = (
"164 -2 OFFCURVE",
"60 143 OFFCURVE",
"60 313 CURVE SMOOTH",
"60 513 OFFCURVE",
"195 682 OFFCURVE",
"351 682 CURVE SMOOTH",
"495 682 OFFCURVE",
"600 539 OFFCURVE",
"600 367 CURVE SMOOTH",
"600 167 OFFCURVE",
"465 -2 OFFCURVE",
"309 -2 CURVE SMOOTH"
);
},
{
closed = 1;
nodes = (
"221 630 OFFCURVE",
"113 489 OFFCURVE",
"113 313 CURVE SMOOTH",
"113 169 OFFCURVE",
"195 50 OFFCURVE",
"309 50 CURVE SMOOTH",
"432 50 OFFCURVE",
"547 193 OFFCURVE",
"547 363 CURVE SMOOTH",
"547 498 OFFCURVE",
"463 630 OFFCURVE",
"344 630 CURVE SMOOTH"
);
}
);
userData = {
com.fontlab.hintData = {
hhints = (
{
position = -2;
width = 52;
},
{
position = 630;
width = 52;
}
);
vhints = (
{
position = 60;
width = 53;
},
{
position = 547;
width = 53;
}
);
};
};
width = 660;
}
);
unicode = 004F;
},
{
glyphname = Oacute;
layers = (
{
layerId = master01;
paths = (
{
closed = 1;
nodes = (
"412 893 LINE",
"465 848 LINE",
"303 736 LINE",
"262 771 LINE"
);
},
{
closed = 1;
nodes = (
"164 0 OFFCURVE",
"60 145 OFFCURVE",
"60 315 CURVE SMOOTH",
"60 515 OFFCURVE",
"195 684 OFFCURVE",
"351 684 CURVE SMOOTH",
"495 684 OFFCURVE",
"600 541 OFFCURVE",
"600 369 CURVE SMOOTH",
"600 169 OFFCURVE",
"465 0 OFFCURVE",
"309 0 CURVE SMOOTH"
);
},
{
closed = 1;
nodes = (
"221 632 OFFCURVE",
"113 491 OFFCURVE",
"113 315 CURVE SMOOTH",
"113 171 OFFCURVE",
"195 52 OFFCURVE",
"309 52 CURVE SMOOTH",
"432 52 OFFCURVE",
"547 195 OFFCURVE",
"547 365 CURVE SMOOTH",
"547 500 OFFCURVE",
"463 632 OFFCURVE",
"344 632 CURVE SMOOTH"
);
}
);
userData = {
com.fontlab.hintData = {
hhints = (
{
position = 0;
width = 52;
},
{
position = 632;
width = 52;
}
);
vhints = (
{
position = 60;
width = 53;
},
{
position = 547;
width = 53;
}
);
};
};
width = 660;
}
);
unicode = 00D3;
},
{
glyphname = Ocircumflex;
layers = (
{
layerId = master01;
paths = (
{
closed = 1;
nodes = (
"217 760 LINE",
"368 881 LINE",
"497 759 LINE",
"461 719 LINE",
"365 806 LINE",
"250 718 LINE"
);
},
{
closed = 1;
nodes = (
"164 0 OFFCURVE",
"60 145 OFFCURVE",
"60 315 CURVE SMOOTH",
"60 515 OFFCURVE",
"195 684 OFFCURVE",
"351 684 CURVE SMOOTH",
"495 684 OFFCURVE",
"600 541 OFFCURVE",
"600 369 CURVE SMOOTH",
"600 169 OFFCURVE",
"465 0 OFFCURVE",
"309 0 CURVE SMOOTH"
);
},
{
closed = 1;
nodes = (
"221 632 OFFCURVE",
"113 491 OFFCURVE",
"113 315 CURVE SMOOTH",
"113 171 OFFCURVE",
"195 52 OFFCURVE",
"309 52 CURVE SMOOTH",
"432 52 OFFCURVE",
"547 195 OFFCURVE",
"547 365 CURVE SMOOTH",
"547 500 OFFCURVE",
"463 632 OFFCURVE",
"344 632 CURVE SMOOTH"
);
}
);
userData = {
com.fontlab.hintData = {
hhints = (
{
position = 0;
width = 52;
},
{
position = 632;
width = 52;
}
);
vhints = (
{
position = 60;
width = 53;
},
{
position = 547;
width = 53;
}
);
};
};
width = 660;
}
);
unicode = 00D4;
},
{
glyphname = Odieresis;
layers = (
{
layerId = master01;
paths = (
{
closed = 1;
nodes = (
"305 737 LINE",
"231 727 LINE",
"240 809 LINE",
"313 819 LINE"
);
},
{
closed = 1;
nodes = (
"465 737 LINE",
"391 727 LINE",
"400 809 LINE",
"473 819 LINE"
);
},
{
closed = 1;
nodes = (
"164 0 OFFCURVE",
"60 145 OFFCURVE",
"60 315 CURVE SMOOTH",
"60 515 OFFCURVE",
"195 684 OFFCURVE",
"351 684 CURVE SMOOTH",
"495 684 OFFCURVE",
"600 541 OFFCURVE",
"600 369 CURVE SMOOTH",
"600 169 OFFCURVE",
"465 0 OFFCURVE",
"309 0 CURVE SMOOTH"
);
},
{
closed = 1;
nodes = (
"221 632 OFFCURVE",
"113 491 OFFCURVE",
"113 315 CURVE SMOOTH",
"113 171 OFFCURVE",
"195 52 OFFCURVE",
"309 52 CURVE SMOOTH",
"432 52 OFFCURVE",
"547 195 OFFCURVE",
"547 365 CURVE SMOOTH",
"547 500 OFFCURVE",
"463 632 OFFCURVE",
"344 632 CURVE SMOOTH"
);
}
);
userData = {
com.fontlab.hintData = {
hhints = (
{
position = 0;
width = 52;
},
{
position = 632;
width = 52;
}
);
vhints = (
{
position = 60;
width = 53;
},
{
position = 547;
width = 53;
}
);
};
};
width = 660;
}
);
unicode = 00D6;
},
{
glyphname = Ograve;
layers = (
{
layerId = master01;
paths = (
{
closed = 1;
nodes = (
"387 726 LINE",
"247 866 LINE",
"307 900 LINE",
"433 754 LINE"
);
},
{
closed = 1;
nodes = (
"164 0 OFFCURVE",
"60 145 OFFCURVE",
"60 315 CURVE SMOOTH",
"60 515 OFFCURVE",
"195 684 OFFCURVE",
"351 684 CURVE SMOOTH",
"495 684 OFFCURVE",
"600 541 OFFCURVE",
"600 369 CURVE SMOOTH",
"600 169 OFFCURVE",
"465 0 OFFCURVE",
"309 0 CURVE SMOOTH"
);
},
{
closed = 1;
nodes = (
"221 632 OFFCURVE",
"113 491 OFFCURVE",
"113 315 CURVE SMOOTH",
"113 171 OFFCURVE",
"195 52 OFFCURVE",
"309 52 CURVE SMOOTH",
"432 52 OFFCURVE",
"547 195 OFFCURVE",
"547 365 CURVE SMOOTH",
"547 500 OFFCURVE",
"463 632 OFFCURVE",
"344 632 CURVE SMOOTH"
);
}
);
userData = {
com.fontlab.hintData = {
hhints = (
{
position = 0;
width = 52;
},
{
position = 632;
width = 52;
}
);
vhints = (
{
position = 60;
width = 53;
},
{
position = 547;
width = 53;
}
);
};
};
width = 660;
}
);
unicode = 00D2;
},
{
glyphname = Ohungarumlaut;
layers = (
{
layerId = master01;
paths = (
{
closed = 1;
nodes = (
"323 893 LINE",
"375 848 LINE",
"213 736 LINE",
"173 771 LINE"
);
},
{
closed = 1;
nodes = (
"483 893 LINE",
"536 848 LINE",
"373 736 LINE",
"333 771 LINE"
);
},
{
closed = 1;
nodes = (
"164 0 OFFCURVE",
"60 145 OFFCURVE",
"60 315 CURVE SMOOTH",
"60 515 OFFCURVE",
"195 684 OFFCURVE",
"351 684 CURVE SMOOTH",
"495 684 OFFCURVE",
"600 541 OFFCURVE",
"600 369 CURVE SMOOTH",
"600 169 OFFCURVE",
"465 0 OFFCURVE",
"309 0 CURVE SMOOTH"
);
},
{
closed = 1;
nodes = (
"221 632 OFFCURVE",
"113 491 OFFCURVE",
"113 315 CURVE SMOOTH",
"113 171 OFFCURVE",
"195 52 OFFCURVE",
"309 52 CURVE SMOOTH",
"432 52 OFFCURVE",
"547 195 OFFCURVE",
"547 365 CURVE SMOOTH",
"547 500 OFFCURVE",
"463 632 OFFCURVE",
"344 632 CURVE SMOOTH"
);
}
);
userData = {
com.fontlab.hintData = {
hhints = (
{
position = 0;
width = 52;
},
{
position = 632;
width = 52;
}
);
vhints = (
{
position = 60;
width = 53;
},
{
position = 547;
width = 53;
}
);
};
};
width = 660;
}
);
unicode = 0150;
},
{
glyphname = Oslash;
layers = (
{
layerId = master01;
paths = (
{
closed = 1;
nodes = (
"567 567 OFFCURVE",
"600 465 OFFCURVE",
"600 368 CURVE SMOOTH",
"600 168 OFFCURVE",
"465 -1 OFFCURVE",
"309 -1 CURVE SMOOTH",
"261 -1 OFFCURVE",
"214 16 OFFCURVE",
"175 46 CURVE",
"130 -33 LINE",
"85 -7 LINE",
"136 84 LINE",
"87 143 OFFCURVE",
"60 224 OFFCURVE",
"60 312 CURVE SMOOTH",
"60 513 OFFCURVE",
"194 683 OFFCURVE",
"351 683 CURVE SMOOTH",
"387 683 OFFCURVE",
"422 674 OFFCURVE",
"454 656 CURVE",
"500 741 LINE",
"546 714 LINE",
"497 626 LINE"
);
},
{
closed = 1;
nodes = (
"427 608 LINE",
"401 623 OFFCURVE",
"373 631 OFFCURVE",
"344 631 CURVE SMOOTH",
"222 631 OFFCURVE",
"113 490 OFFCURVE",
"113 315 CURVE SMOOTH",
"113 247 OFFCURVE",
"132 182 OFFCURVE",
"164 134 CURVE"
);
},
{
closed = 1;
nodes = (
"456 51 OFFCURVE",
"547 227 OFFCURVE",
"547 364 CURVE SMOOTH",
"547 442 OFFCURVE",
"517 523 OFFCURVE",
"469 575 CURVE",
"200 92 LINE",
"232 65 OFFCURVE",
"269 51 OFFCURVE",
"309 51 CURVE SMOOTH"
);
}
);
userData = {
com.fontlab.hintData = {
hhints = (
{
position = -1;
width = 52;
},
{
position = 631;
width = 52;
}
);
vhints = (
{
position = 60;
width = 53;
},
{
position = 547;
width = 53;
}
);
};
};
width = 660;
}
);
unicode = 00D8;
},
{
glyphname = Otilde;
layers = (
{
layerId = master01;
paths = (
{
closed = 1;
nodes = (
"164 0 OFFCURVE",
"60 145 OFFCURVE",
"60 315 CURVE SMOOTH",
"60 515 OFFCURVE",
"195 684 OFFCURVE",
"351 684 CURVE SMOOTH",
"495 684 OFFCURVE",
"600 541 OFFCURVE",
"600 369 CURVE SMOOTH",
"600 169 OFFCURVE",
"465 0 OFFCURVE",
"309 0 CURVE SMOOTH"
);
},
{
closed = 1;
nodes = (
"221 632 OFFCURVE",
"113 491 OFFCURVE",
"113 315 CURVE SMOOTH",
"113 171 OFFCURVE",
"195 52 OFFCURVE",
"309 52 CURVE SMOOTH",
"432 52 OFFCURVE",
"547 195 OFFCURVE",
"547 365 CURVE SMOOTH",
"547 500 OFFCURVE",
"463 632 OFFCURVE",
"344 632 CURVE SMOOTH"
);
},
{
closed = 1;
nodes = (
"452 762 OFFCURVE",
"474 824 OFFCURVE",
"483 853 CURVE",
"532 837 LINE",
"517 772 OFFCURVE",
"470 721 OFFCURVE",
"419 721 CURVE SMOOTH",
"374 721 OFFCURVE",
"350 753 OFFCURVE",
"330 781 CURVE SMOOTH",
"311 807 OFFCURVE",
"300 829 OFFCURVE",
"283 829 CURVE SMOOTH",
"252 829 OFFCURVE",
"228 770 OFFCURVE",
"222 745 CURVE",
"173 763 LINE",
"189 813 OFFCURVE",
"222 870 OFFCURVE",
"283 870 CURVE SMOOTH",
"329 870 OFFCURVE",
"353 837 OFFCURVE",
"372 811 CURVE SMOOTH",
"391 785 OFFCURVE",
"402 762 OFFCURVE",
"419 762 CURVE SMOOTH"
);
}
);
userData = {
com.fontlab.hintData = {
hhints = (
{
position = 0;
width = 52;
},
{
position = 632;
width = 52;
},
{
position = 721;
width = 41;
},
{
position = 829;
width = 41;
}
);
vhints = (
{
position = 60;
width = 53;
},
{
position = 173;
width = 49;
},
{
position = 483;
width = 49;
},
{
position = 547;
width = 53;
}
);
};
};
width = 660;
}
);
unicode = 00D5;
},
{
glyphname = OE;
layers = (
{
layerId = master01;
paths = (
{
closed = 1;
nodes = (
"1033 56 LINE",
"1013 0 LINE",
"547 0 LINE",
"547 162 LINE",
"494 65 OFFCURVE",
"405 0 OFFCURVE",
"309 0 CURVE SMOOTH",
"164 0 OFFCURVE",
"60 145 OFFCURVE",
"60 315 CURVE SMOOTH",
"60 515 OFFCURVE",
"195 684 OFFCURVE",
"351 684 CURVE SMOOTH",
"426 684 OFFCURVE",
"505 641 OFFCURVE",
"547 567 CURVE",
"547 681 LINE",
"1028 681 LINE",
"1018 625 LINE",
"603 625 LINE",
"603 382 LINE",
"988 382 LINE",
"971 326 LINE",
"603 326 LINE",
"603 56 LINE"
);
},
{
closed = 1;
nodes = (
"547 500 OFFCURVE",
"463 632 OFFCURVE",
"344 632 CURVE SMOOTH",
"221 632 OFFCURVE",
"113 491 OFFCURVE",
"113 315 CURVE SMOOTH",
"113 171 OFFCURVE",
"195 52 OFFCURVE",
"309 52 CURVE SMOOTH",
"429 52 OFFCURVE",
"534 173 OFFCURVE",
"547 365 CURVE"
);
}
);
userData = {
com.fontlab.hintData = {
hhints = (
{
position = 0;
width = 52;
},
{
position = 326;
width = 56;
},
{
position = 625;
width = 56;
},
{
position = 632;
width = 52;
}
);
vhints = (
{
position = 60;
width = 53;
},
{
position = 547;
width = 56;
}
);
};
};
width = 1093;
}
);
unicode = 0152;
},
{
glyphname = P;
layers = (
{
layerId = master01;
paths = (
{
closed = 1;
nodes = (
"120 10 LINE",
"65 0 LINE",
"65 674 LINE",
"88 676 OFFCURVE",
"143 679 OFFCURVE",
"177 679 CURVE SMOOTH",
"316 679 OFFCURVE",
"515 651 OFFCURVE",
"515 472 CURVE SMOOTH",
"515 307 OFFCURVE",
"294 244 OFFCURVE",
"120 238 CURVE"
);
},
{
closed = 1;
nodes = (
"120 293 LINE",
"332 302 OFFCURVE",
"459 372 OFFCURVE",
"459 466 CURVE SMOOTH",
"459 551 OFFCURVE",
"398 623 OFFCURVE",
"166 623 CURVE SMOOTH",
"120 623 LINE"
);
}
);
userData = {
com.fontlab.hintData = {
hhints = (
{
position = 0;
width = 21;
},
{
position = 238;
width = 55;
},
{
position = 623;
width = 56;
}
);
vhints = (
{
position = 65;
width = 55;
},
{
position = 459;
width = 56;
}
);
};
};
width = 545;
}
);
unicode = 0050;
},
{
glyphname = Thorn;
layers = (
{
layerId = master01;
paths = (
{
closed = 1;
nodes = (
"120 686 LINE",
"120 576 LINE",
"258 576 OFFCURVE",
"476 560 OFFCURVE",
"476 377 CURVE SMOOTH",
"476 199 OFFCURVE",
"262 152 OFFCURVE",
"118 143 CURVE",
"118 12 LINE",
"65 0 LINE",
"65 674 LINE"
);
},
{
closed = 1;
nodes = (
"295 210 OFFCURVE",
"421 268 OFFCURVE",
"421 377 CURVE SMOOTH",
"421 483 OFFCURVE",
"297 519 OFFCURVE",
"120 519 CURVE",
"119 202 LINE"
);
}
);
userData = {
com.fontlab.hintData = {
hhints = (
{
position = 0;
width = 21;
},
{
position = 143;
width = 59;
},
{
position = 519;
width = 57;
}
);
vhints = (
{
position = 65;
width = 53;
},
{
position = 421;
width = 55;
}
);
};
};
width = 506;
}
);
unicode = 00DE;
},
{
glyphname = Q;
layers = (
{
layerId = master01;
paths = (
{
closed = 1;
nodes = (
"671 12 LINE",
"647 -35 LINE",
"506 57 LINE",
"455 20 OFFCURVE",
"395 -1 OFFCURVE",
"333 -1 CURVE SMOOTH",
"171 -1 OFFCURVE",
"51 140 OFFCURVE",
"51 312 CURVE SMOOTH",
"51 511 OFFCURVE",
"204 679 OFFCURVE",
"380 679 CURVE SMOOTH",
"543 679 OFFCURVE",
"662 536 OFFCURVE",
"662 366 CURVE SMOOTH",
"662 258 OFFCURVE",
"618 160 OFFCURVE",
"548 92 CURVE"
);
},
{
closed = 1;
nodes = (
"560 182 OFFCURVE",
"602 268 OFFCURVE",
"602 359 CURVE SMOOTH",
"602 494 OFFCURVE",
"506 625 OFFCURVE",
"372 625 CURVE SMOOTH",
"233 625 OFFCURVE",
"112 484 OFFCURVE",
"112 312 CURVE SMOOTH",
"112 166 OFFCURVE",
"206 52 OFFCURVE",
"333 52 CURVE SMOOTH",
"378 52 OFFCURVE",
"422 67 OFFCURVE",
"460 92 CURVE",
"347 163 LINE",
"397 193 LINE",
"503 126 LINE"
);
}
);
userData = {
com.fontlab.hintData = {
hhints = (
{
position = -1;
width = 53;
},
{
position = 625;
width = 54;
}
);
vhints = (
{
position = 51;
width = 61;
},
{
position = 602;
width = 60;
}
);
};
};
width = 721;
}
);
unicode = 0051;
},
{
glyphname = R;
layers = (
{
layerId = master01;
paths = (
{
closed = 1;
nodes = (
"121 295 LINE",
"318 302 OFFCURVE",
"467 374 OFFCURVE",
"467 470 CURVE SMOOTH",
"467 557 OFFCURVE",
"401 630 OFFCURVE",
"163 630 CURVE SMOOTH",
"121 630 LINE"
);
},
{
closed = 1;
nodes = (
"120 10 LINE",
"65 0 LINE",
"65 681 LINE",
"87 684 OFFCURVE",
"141 686 OFFCURVE",
"174 687 CURVE",
"316 687 OFFCURVE",
"522 658 OFFCURVE",
"522 476 CURVE SMOOTH",
"522 392 OFFCURVE",
"450 311 OFFCURVE",
"335 275 CURVE",
"392 240 OFFCURVE",
"471 172 OFFCURVE",
"544 37 CURVE",
"501 0 LINE",
"423 151 OFFCURVE",
"336 213 OFFCURVE",
"288 238 CURVE SMOOTH",
"272 246 OFFCURVE",
"245 249 OFFCURVE",
"224 249 CURVE SMOOTH",
"200 249 OFFCURVE",
"154 244 OFFCURVE",
"120 237 CURVE"
);
}
);
userData = {
com.fontlab.hintData = {
hhints = (
{
position = 0;
width = 21;
},
{
position = 249;
width = 46;
},
{
position = 630;
width = 57;
}
);
vhints = (
{
position = 65;
width = 56;
},
{
position = 467;
width = 55;
}
);
};
};
width = 594;
}
);
unicode = 0052;
},
{
glyphname = Racute;
layers = (
{
layerId = master01;
paths = (
{
closed = 1;
nodes = (
"120 10 LINE",
"65 0 LINE",
"65 681 LINE",
"87 684 OFFCURVE",
"141 686 OFFCURVE",
"174 687 CURVE",
"316 687 OFFCURVE",
"522 658 OFFCURVE",
"522 476 CURVE SMOOTH",
"522 392 OFFCURVE",
"450 311 OFFCURVE",
"335 275 CURVE",
"392 240 OFFCURVE",
"471 172 OFFCURVE",
"544 37 CURVE",
"501 0 LINE",
"423 151 OFFCURVE",
"336 213 OFFCURVE",
"288 238 CURVE SMOOTH",
"272 246 OFFCURVE",
"245 249 OFFCURVE",
"224 249 CURVE SMOOTH",
"200 249 OFFCURVE",
"154 244 OFFCURVE",
"120 237 CURVE"
);
},
{
closed = 1;
nodes = (
"121 295 LINE",
"318 302 OFFCURVE",
"467 374 OFFCURVE",
"467 470 CURVE SMOOTH",
"467 557 OFFCURVE",
"401 630 OFFCURVE",
"163 630 CURVE SMOOTH",
"121 630 LINE"
);
},
{
closed = 1;
nodes = (
"308 893 LINE",
"361 848 LINE",
"198 736 LINE",
"158 771 LINE"
);
}
);
userData = {
com.fontlab.hintData = {
hhints = (
{
position = 0;
width = 21;
},
{
position = 249;
width = 46;
},
{
position = 630;
width = 57;
}
);
vhints = (
{
position = 65;
width = 56;
},
{
position = 467;
width = 55;
}
);
};
};
width = 594;
}
);
unicode = 0154;
},
{
glyphname = Rcaron;
layers = (
{
layerId = master01;
paths = (
{
closed = 1;
nodes = (
"120 10 LINE",
"65 0 LINE",
"65 681 LINE",
"87 684 OFFCURVE",
"141 686 OFFCURVE",
"174 687 CURVE",
"316 687 OFFCURVE",
"522 658 OFFCURVE",
"522 476 CURVE SMOOTH",
"522 392 OFFCURVE",
"450 311 OFFCURVE",
"335 275 CURVE",
"392 240 OFFCURVE",
"471 172 OFFCURVE",
"544 37 CURVE",
"501 0 LINE",
"423 151 OFFCURVE",
"336 213 OFFCURVE",
"288 238 CURVE SMOOTH",
"272 246 OFFCURVE",
"245 249 OFFCURVE",
"224 249 CURVE SMOOTH",
"200 249 OFFCURVE",
"154 244 OFFCURVE",
"120 237 CURVE"
);
},
{
closed = 1;
nodes = (
"121 295 LINE",
"318 302 OFFCURVE",
"467 374 OFFCURVE",
"467 470 CURVE SMOOTH",
"467 557 OFFCURVE",
"401 630 OFFCURVE",
"163 630 CURVE SMOOTH",
"121 630 LINE"
);
},
{
closed = 1;
nodes = (
"423 838 LINE",
"272 718 LINE",
"143 840 LINE",
"179 880 LINE",
"275 792 LINE",
"390 881 LINE"
);
}
);
userData = {
com.fontlab.hintData = {
hhints = (
{
position = 0;
width = 21;
},
{
position = 249;
width = 46;
},
{
position = 630;
width = 57;
}
);
vhints = (
{
position = 65;
width = 56;
},
{
position = 467;
width = 55;
}
);
};
};
width = 594;
}
);
unicode = 0158;
},
{
glyphname = S;
layers = (
{
layerId = master01;
paths = (
{
closed = 1;
nodes = (
"160 455 OFFCURVE",
"214 416 OFFCURVE",
"319 387 CURVE SMOOTH",
"466 346 OFFCURVE",
"538 282 OFFCURVE",
"538 190 CURVE SMOOTH",
"538 60 OFFCURVE",
"406 -1 OFFCURVE",
"305 -1 CURVE SMOOTH",
"187 -1 OFFCURVE",
"90 60 OFFCURVE",
"60 152 CURVE",
"121 162 LINE",
"148 86 OFFCURVE",
"232 52 OFFCURVE",
"304 52 CURVE SMOOTH",
"398 52 OFFCURVE",
"475 105 OFFCURVE",
"475 197 CURVE SMOOTH",
"475 228 OFFCURVE",
"464 287 OFFCURVE",
"306 330 CURVE SMOOTH",
"209 356 OFFCURVE",
"96 410 OFFCURVE",
"96 507 CURVE SMOOTH",
"96 649 OFFCURVE",
"228 681 OFFCURVE",
"329 681 CURVE SMOOTH",
"419 681 OFFCURVE",
"535 649 OFFCURVE",
"535 539 CURVE SMOOTH",
"535 533 OFFCURVE",
"535 527 OFFCURVE",
"534 521 CURVE",
"482 510 LINE",
"483 515 OFFCURVE",
"483 522 OFFCURVE",
"483 526 CURVE SMOOTH",
"483 609 OFFCURVE",
"387 631 OFFCURVE",
"329 631 CURVE SMOOTH",
"187 631 OFFCURVE",
"160 562 OFFCURVE",
"160 505 CURVE SMOOTH"
);
}
);
userData = {
com.fontlab.hintData = {
hhints = (
{
position = -1;
width = 53;
},
{
position = 631;
width = 50;
}
);
vhints = (
{
position = 96;
width = 64;
},
{
position = 475;
width = 63;
},
{
position = 483;
width = 52;
}
);
};
};
width = 599;
}
);
unicode = 0053;
},
{
glyphname = Sacute;
layers = (
{
layerId = master01;
paths = (
{
closed = 1;
nodes = (
"160 455 OFFCURVE",
"214 416 OFFCURVE",
"319 387 CURVE SMOOTH",
"466 346 OFFCURVE",
"538 282 OFFCURVE",
"538 190 CURVE SMOOTH",
"538 60 OFFCURVE",
"406 -1 OFFCURVE",
"305 -1 CURVE SMOOTH",
"187 -1 OFFCURVE",
"90 60 OFFCURVE",
"60 152 CURVE",
"121 162 LINE",
"148 86 OFFCURVE",
"232 52 OFFCURVE",
"304 52 CURVE SMOOTH",
"398 52 OFFCURVE",
"475 105 OFFCURVE",
"475 197 CURVE SMOOTH",
"475 228 OFFCURVE",
"464 287 OFFCURVE",
"306 330 CURVE SMOOTH",
"209 356 OFFCURVE",
"96 410 OFFCURVE",
"96 507 CURVE SMOOTH",
"96 649 OFFCURVE",
"228 681 OFFCURVE",
"329 681 CURVE SMOOTH",
"419 681 OFFCURVE",
"535 649 OFFCURVE",
"535 539 CURVE SMOOTH",
"535 533 OFFCURVE",
"535 527 OFFCURVE",
"534 521 CURVE",
"482 510 LINE",
"483 515 OFFCURVE",
"483 522 OFFCURVE",
"483 526 CURVE SMOOTH",
"483 609 OFFCURVE",
"387 631 OFFCURVE",
"329 631 CURVE SMOOTH",
"187 631 OFFCURVE",
"160 562 OFFCURVE",
"160 505 CURVE SMOOTH"
);
},
{
closed = 1;
nodes = (
"365 893 LINE",
"418 848 LINE",
"255 736 LINE",
"215 771 LINE"
);
}
);
userData = {
com.fontlab.hintData = {
hhints = (
{
position = -1;
width = 53;
},
{
position = 631;
width = 50;
}
);
vhints = (
{
position = 96;
width = 64;
},
{
position = 475;
width = 63;
},
{
position = 483;
width = 52;
}
);
};
};
width = 599;
}
);
unicode = 015A;
},
{
glyphname = Scaron;
layers = (
{
layerId = master01;
paths = (
{
closed = 1;
nodes = (
"160 455 OFFCURVE",
"214 416 OFFCURVE",
"319 387 CURVE SMOOTH",
"466 346 OFFCURVE",
"538 282 OFFCURVE",
"538 190 CURVE SMOOTH",
"538 60 OFFCURVE",
"406 -1 OFFCURVE",
"305 -1 CURVE SMOOTH",
"187 -1 OFFCURVE",
"90 60 OFFCURVE",
"60 152 CURVE",
"121 162 LINE",
"148 86 OFFCURVE",
"232 52 OFFCURVE",
"304 52 CURVE SMOOTH",
"398 52 OFFCURVE",
"475 105 OFFCURVE",
"475 197 CURVE SMOOTH",
"475 228 OFFCURVE",
"464 287 OFFCURVE",
"306 330 CURVE SMOOTH",
"209 356 OFFCURVE",
"96 410 OFFCURVE",
"96 507 CURVE SMOOTH",
"96 649 OFFCURVE",
"228 681 OFFCURVE",
"329 681 CURVE SMOOTH",
"419 681 OFFCURVE",
"535 649 OFFCURVE",
"535 539 CURVE SMOOTH",
"535 533 OFFCURVE",
"535 527 OFFCURVE",
"534 521 CURVE",
"482 510 LINE",
"483 515 OFFCURVE",
"483 522 OFFCURVE",
"483 526 CURVE SMOOTH",
"483 609 OFFCURVE",
"387 631 OFFCURVE",
"329 631 CURVE SMOOTH",
"187 631 OFFCURVE",
"160 562 OFFCURVE",
"160 505 CURVE SMOOTH"
);
},
{
closed = 1;
nodes = (
"471 838 LINE",
"321 718 LINE",
"192 840 LINE",
"228 880 LINE",
"324 792 LINE",
"438 881 LINE"
);
}
);
userData = {
com.fontlab.hintData = {
hhints = (
{
position = -1;
width = 53;
},
{
position = 631;
width = 50;
}
);
vhints = (
{
position = 96;
width = 64;
},
{
position = 475;
width = 63;
},
{
position = 483;
width = 52;
}
);
};
};
width = 599;
}
);
unicode = 0160;
},
{
glyphname = Scedilla;
layers = (
{
layerId = master01;
paths = (
{
closed = 1;
nodes = (
"324 -159 OFFCURVE",
"346 -137 OFFCURVE",
"346 -110 CURVE SMOOTH",
"346 -83 OFFCURVE",
"324 -61 OFFCURVE",
"297 -61 CURVE SMOOTH",
"284 -61 OFFCURVE",
"270 -67 OFFCURVE",
"265 -72 CURVE",
"236 -42 LINE",
"252 3 LINE",
"159 18 OFFCURVE",
"85 74 OFFCURVE",
"60 152 CURVE",
"121 162 LINE",
"148 86 OFFCURVE",
"232 52 OFFCURVE",
"304 52 CURVE SMOOTH",
"398 52 OFFCURVE",
"475 105 OFFCURVE",
"475 197 CURVE SMOOTH",
"475 228 OFFCURVE",
"464 287 OFFCURVE",
"306 330 CURVE SMOOTH",
"209 356 OFFCURVE",
"96 410 OFFCURVE",
"96 507 CURVE SMOOTH",
"96 649 OFFCURVE",
"228 681 OFFCURVE",
"329 681 CURVE SMOOTH",
"419 681 OFFCURVE",
"535 649 OFFCURVE",
"535 539 CURVE SMOOTH",
"535 533 OFFCURVE",
"535 527 OFFCURVE",
"534 521 CURVE",
"482 510 LINE",
"483 515 OFFCURVE",
"483 522 OFFCURVE",
"483 526 CURVE SMOOTH",
"483 609 OFFCURVE",
"387 631 OFFCURVE",
"329 631 CURVE SMOOTH",
"187 631 OFFCURVE",
"160 562 OFFCURVE",
"160 505 CURVE SMOOTH",
"160 455 OFFCURVE",
"214 416 OFFCURVE",
"319 387 CURVE SMOOTH",
"466 346 OFFCURVE",
"538 282 OFFCURVE",
"538 190 CURVE SMOOTH",
"538 60 OFFCURVE",
"406 -1 OFFCURVE",
"305 -1 CURVE SMOOTH",
"299 -1 OFFCURVE",
"293 -1 OFFCURVE",
"287 0 CURVE",
"286 -19 LINE",
"290 -19 LINE SMOOTH",
"346 -19 OFFCURVE",
"388 -55 OFFCURVE",
"388 -110 CURVE SMOOTH",
"388 -160 OFFCURVE",
"347 -201 OFFCURVE",
"297 -201 CURVE SMOOTH",
"268 -201 OFFCURVE",
"242 -188 OFFCURVE",
"225 -166 CURVE",
"255 -136 LINE",
"260 -149 OFFCURVE",
"281 -159 OFFCURVE",
"297 -159 CURVE SMOOTH"
);
}
);
userData = {
com.fontlab.hintData = {
hhints = (
{
position = -201;
width = 42;
},
{
position = -61;
width = 42;
},
{
position = -1;
width = 53;
},
{
position = 631;
width = 50;
}
);
vhints = (
{
position = 96;
width = 64;
},
{
position = 346;
width = 42;
},
{
position = 475;
width = 63;
},
{
position = 483;
width = 52;
}
);
};
};
width = 599;
}
);
unicode = 015E;
},
{
glyphname = Scircumflex;
layers = (
{
layerId = master01;
paths = (
{
closed = 1;
nodes = (
"160 455 OFFCURVE",
"214 416 OFFCURVE",
"319 387 CURVE SMOOTH",
"466 346 OFFCURVE",
"538 282 OFFCURVE",
"538 190 CURVE SMOOTH",
"538 60 OFFCURVE",
"406 -1 OFFCURVE",
"305 -1 CURVE SMOOTH",
"187 -1 OFFCURVE",
"90 60 OFFCURVE",
"60 152 CURVE",
"121 162 LINE",
"148 86 OFFCURVE",
"232 52 OFFCURVE",
"304 52 CURVE SMOOTH",
"398 52 OFFCURVE",
"475 105 OFFCURVE",
"475 197 CURVE SMOOTH",
"475 228 OFFCURVE",
"464 287 OFFCURVE",
"306 330 CURVE SMOOTH",
"209 356 OFFCURVE",
"96 410 OFFCURVE",
"96 507 CURVE SMOOTH",
"96 649 OFFCURVE",
"228 681 OFFCURVE",
"329 681 CURVE SMOOTH",
"419 681 OFFCURVE",
"535 649 OFFCURVE",
"535 539 CURVE SMOOTH",
"535 533 OFFCURVE",
"535 527 OFFCURVE",
"534 521 CURVE",
"482 510 LINE",
"483 515 OFFCURVE",
"483 522 OFFCURVE",
"483 526 CURVE SMOOTH",
"483 609 OFFCURVE",
"387 631 OFFCURVE",
"329 631 CURVE SMOOTH",
"187 631 OFFCURVE",
"160 562 OFFCURVE",
"160 505 CURVE SMOOTH"
);
},
{
closed = 1;
nodes = (
"185 760 LINE",
"335 881 LINE",
"464 759 LINE",
"428 719 LINE",
"332 806 LINE",
"218 718 LINE"
);
}
);
userData = {
com.fontlab.hintData = {
hhints = (
{
position = -1;
width = 53;
},
{
position = 631;
width = 50;
}
);
vhints = (
{
position = 96;
width = 64;
},
{
position = 475;
width = 63;
},
{
position = 483;
width = 52;
}
);
};
};
width = 599;
}
);
unicode = 015C;
},
{
glyphname = T;
layers = (
{
layerId = master01;
paths = (
{
closed = 1;
nodes = (
"225 625 LINE",
"10 625 LINE",
"10 681 LINE",
"512 681 LINE",
"512 625 LINE",
"282 625 LINE",
"282 10 LINE",
"225 0 LINE"
);
}
);
userData = {
com.fontlab.hintData = {
hhints = (
{
position = 0;
width = 21;
},
{
position = 625;
width = 56;
}
);
vhints = (
{
position = 225;
width = 57;
}
);
};
};
width = 522;
}
);
unicode = 0054;
},
{
glyphname = Tcaron;
layers = (
{
layerId = master01;
paths = (
{
closed = 1;
nodes = (
"225 625 LINE",
"10 625 LINE",
"10 681 LINE",
"512 681 LINE",
"512 625 LINE",
"282 625 LINE",
"282 10 LINE",
"225 0 LINE"
);
},
{
closed = 1;
nodes = (
"406 838 LINE",
"256 718 LINE",
"127 840 LINE",
"163 880 LINE",
"259 792 LINE",
"373 881 LINE"
);
}
);
userData = {
com.fontlab.hintData = {
hhints = (
{
position = 0;
width = 21;
},
{
position = 625;
width = 56;
}
);
vhints = (
{
position = 225;
width = 57;
}
);
};
};
width = 522;
}
);
unicode = 0164;
},
{
glyphname = U;
layers = (
{
layerId = master01;
paths = (
{
closed = 1;
nodes = (
"105 0 OFFCURVE",
"66 197 OFFCURVE",
"66 459 CURVE SMOOTH",
"66 529 OFFCURVE",
"67 640 OFFCURVE",
"68 670 CURVE",
"125 680 LINE",
"124 658 OFFCURVE",
"122 534 OFFCURVE",
"122 450 CURVE SMOOTH",
"122 241 OFFCURVE",
"145 49 OFFCURVE",
"342 49 CURVE SMOOTH",
"546 49 OFFCURVE",
"562 260 OFFCURVE",
"562 431 CURVE SMOOTH",
"562 514 OFFCURVE",
"561 634 OFFCURVE",
"560 669 CURVE",
"616 680 LINE",
"617 656 OFFCURVE",
"618 550 OFFCURVE",
"618 476 CURVE SMOOTH",
"618 245 OFFCURVE",
"598 0 OFFCURVE",
"342 0 CURVE SMOOTH"
);
}
);
userData = {
com.fontlab.hintData = {
hhints = (
{
position = 0;
width = 49;
},
{
position = 660;
width = 20;
}
);
vhints = (
{
position = 66;
width = 56;
},
{
position = 562;
width = 56;
}
);
};
};
width = 684;
}
);
unicode = 0055;
},
{
glyphname = Uacute;
layers = (
{
layerId = master01;
paths = (
{
closed = 1;
nodes = (
"105 0 OFFCURVE",
"66 197 OFFCURVE",
"66 459 CURVE SMOOTH",
"66 529 OFFCURVE",
"67 640 OFFCURVE",
"68 670 CURVE",
"125 680 LINE",
"124 658 OFFCURVE",
"122 534 OFFCURVE",
"122 450 CURVE SMOOTH",
"122 241 OFFCURVE",
"145 49 OFFCURVE",
"342 49 CURVE SMOOTH",
"546 49 OFFCURVE",
"562 260 OFFCURVE",
"562 431 CURVE SMOOTH",
"562 514 OFFCURVE",
"561 634 OFFCURVE",
"560 669 CURVE",
"616 680 LINE",
"617 656 OFFCURVE",
"618 550 OFFCURVE",
"618 476 CURVE SMOOTH",
"618 245 OFFCURVE",
"598 0 OFFCURVE",
"342 0 CURVE SMOOTH"
);
},
{
closed = 1;
nodes = (
"414 893 LINE",
"467 848 LINE",
"305 736 LINE",
"264 771 LINE"
);
}
);
userData = {
com.fontlab.hintData = {
hhints = (
{
position = 0;
width = 49;
},
{
position = 660;
width = 20;
}
);
vhints = (
{
position = 66;
width = 56;
},
{
position = 562;
width = 56;
}
);
};
};
width = 684;
}
);
unicode = 00DA;
},
{
glyphname = Ubreve;
layers = (
{
layerId = master01;
paths = (
{
closed = 1;
nodes = (
"105 0 OFFCURVE",
"66 197 OFFCURVE",
"66 459 CURVE SMOOTH",
"66 529 OFFCURVE",
"67 640 OFFCURVE",
"68 670 CURVE",
"125 680 LINE",
"124 658 OFFCURVE",
"122 534 OFFCURVE",
"122 450 CURVE SMOOTH",
"122 241 OFFCURVE",
"145 49 OFFCURVE",
"342 49 CURVE SMOOTH",
"546 49 OFFCURVE",
"562 260 OFFCURVE",
"562 431 CURVE SMOOTH",
"562 514 OFFCURVE",
"561 634 OFFCURVE",
"560 669 CURVE",
"616 680 LINE",
"617 656 OFFCURVE",
"618 550 OFFCURVE",
"618 476 CURVE SMOOTH",
"618 245 OFFCURVE",
"598 0 OFFCURVE",
"342 0 CURVE SMOOTH"
);
},
{
closed = 1;
nodes = (
"413 785 OFFCURVE",
"442 814 OFFCURVE",
"460 863 CURVE",
"491 832 LINE",
"472 777 OFFCURVE",
"412 739 OFFCURVE",
"349 739 CURVE SMOOTH",
"279 739 OFFCURVE",
"221 775 OFFCURVE",
"197 828 CURVE",
"227 858 LINE",
"261 797 OFFCURVE",
"313 785 OFFCURVE",
"350 785 CURVE SMOOTH"
);
}
);
userData = {
com.fontlab.hintData = {
hhints = (
{
position = 0;
width = 49;
},
{
position = 660;
width = 20;
},
{
position = 739;
width = 46;
}
);
vhints = (
{
position = 66;
width = 56;
},
{
position = 562;
width = 56;
}
);
};
};
width = 684;
}
);
unicode = 016C;
},
{
glyphname = Ucircumflex;
layers = (
{
layerId = master01;
paths = (
{
closed = 1;
nodes = (
"105 0 OFFCURVE",
"66 197 OFFCURVE",
"66 459 CURVE SMOOTH",
"66 529 OFFCURVE",
"67 640 OFFCURVE",
"68 670 CURVE",
"125 680 LINE",
"124 658 OFFCURVE",
"122 534 OFFCURVE",
"122 450 CURVE SMOOTH",
"122 241 OFFCURVE",
"145 49 OFFCURVE",
"342 49 CURVE SMOOTH",
"546 49 OFFCURVE",
"562 260 OFFCURVE",
"562 431 CURVE SMOOTH",
"562 514 OFFCURVE",
"561 634 OFFCURVE",
"560 669 CURVE",
"616 680 LINE",
"617 656 OFFCURVE",
"618 550 OFFCURVE",
"618 476 CURVE SMOOTH",
"618 245 OFFCURVE",
"598 0 OFFCURVE",
"342 0 CURVE SMOOTH"
);
},
{
closed = 1;
nodes = (
"206 760 LINE",
"356 881 LINE",
"485 759 LINE",
"449 719 LINE",
"354 806 LINE",
"239 718 LINE"
);
}
);
userData = {
com.fontlab.hintData = {
hhints = (
{
position = 0;
width = 49;
},
{
position = 660;
width = 20;
}
);
vhints = (
{
position = 66;
width = 56;
},
{
position = 562;
width = 56;
}
);
};
};
width = 684;
}
);
unicode = 00DB;
},
{
glyphname = Udieresis;
layers = (
{
layerId = master01;
paths = (
{
closed = 1;
nodes = (
"105 0 OFFCURVE",
"66 197 OFFCURVE",
"66 459 CURVE SMOOTH",
"66 529 OFFCURVE",
"67 640 OFFCURVE",
"68 670 CURVE",
"125 680 LINE",
"124 658 OFFCURVE",
"122 534 OFFCURVE",
"122 450 CURVE SMOOTH",
"122 241 OFFCURVE",
"145 49 OFFCURVE",
"342 49 CURVE SMOOTH",
"546 49 OFFCURVE",
"562 260 OFFCURVE",
"562 431 CURVE SMOOTH",
"562 514 OFFCURVE",
"561 634 OFFCURVE",
"560 669 CURVE",
"616 680 LINE",
"617 656 OFFCURVE",
"618 550 OFFCURVE",
"618 476 CURVE SMOOTH",
"618 245 OFFCURVE",
"598 0 OFFCURVE",
"342 0 CURVE SMOOTH"
);
},
{
closed = 1;
nodes = (
"305 737 LINE",
"231 727 LINE",
"240 809 LINE",
"313 819 LINE"
);
},
{
closed = 1;
nodes = (
"465 737 LINE",
"391 727 LINE",
"400 809 LINE",
"473 819 LINE"
);
}
);
userData = {
com.fontlab.hintData = {
hhints = (
{
position = 0;
width = 49;
},
{
position = 660;
width = 20;
}
);
vhints = (
{
position = 66;
width = 56;
},
{
position = 562;
width = 56;
}
);
};
};
width = 684;
}
);
unicode = 00DC;
},
{
glyphname = Ugrave;
layers = (
{
layerId = master01;
paths = (
{
closed = 1;
nodes = (
"393 726 LINE",
"253 866 LINE",
"313 900 LINE",
"439 754 LINE"
);
},
{
closed = 1;
nodes = (
"105 0 OFFCURVE",
"66 197 OFFCURVE",
"66 459 CURVE SMOOTH",
"66 529 OFFCURVE",
"67 640 OFFCURVE",
"68 670 CURVE",
"125 680 LINE",
"124 658 OFFCURVE",
"122 534 OFFCURVE",
"122 450 CURVE SMOOTH",
"122 241 OFFCURVE",
"145 49 OFFCURVE",
"342 49 CURVE SMOOTH",
"546 49 OFFCURVE",
"562 260 OFFCURVE",
"562 431 CURVE SMOOTH",
"562 514 OFFCURVE",
"561 634 OFFCURVE",
"560 669 CURVE",
"616 680 LINE",
"617 656 OFFCURVE",
"618 550 OFFCURVE",
"618 476 CURVE SMOOTH",
"618 245 OFFCURVE",
"598 0 OFFCURVE",
"342 0 CURVE SMOOTH"
);
}
);
userData = {
com.fontlab.hintData = {
hhints = (
{
position = 0;
width = 49;
},
{
position = 660;
width = 20;
}
);
vhints = (
{
position = 66;
width = 56;
},
{
position = 562;
width = 56;
}
);
};
};
width = 684;
}
);
unicode = 00D9;
},
{
glyphname = Uhungarumlaut;
layers = (
{
layerId = master01;
paths = (
{
closed = 1;
nodes = (
"105 0 OFFCURVE",
"66 197 OFFCURVE",
"66 459 CURVE SMOOTH",
"66 529 OFFCURVE",
"67 640 OFFCURVE",
"68 670 CURVE",
"125 680 LINE",
"124 658 OFFCURVE",
"122 534 OFFCURVE",
"122 450 CURVE SMOOTH",
"122 241 OFFCURVE",
"145 49 OFFCURVE",
"342 49 CURVE SMOOTH",
"546 49 OFFCURVE",
"562 260 OFFCURVE",
"562 431 CURVE SMOOTH",
"562 514 OFFCURVE",
"561 634 OFFCURVE",
"560 669 CURVE",
"616 680 LINE",
"617 656 OFFCURVE",
"618 550 OFFCURVE",
"618 476 CURVE SMOOTH",
"618 245 OFFCURVE",
"598 0 OFFCURVE",
"342 0 CURVE SMOOTH"
);
},
{
closed = 1;
nodes = (
"337 893 LINE",
"390 848 LINE",
"228 736 LINE",
"187 771 LINE"
);
},
{
closed = 1;
nodes = (
"498 893 LINE",
"550 848 LINE",
"388 736 LINE",
"348 771 LINE"
);
}
);
userData = {
com.fontlab.hintData = {
hhints = (
{
position = 0;
width = 49;
},
{
position = 660;
width = 20;
}
);
vhints = (
{
position = 66;
width = 56;
},
{
position = 562;
width = 56;
}
);
};
};
width = 684;
}
);
unicode = 0170;
},
{
glyphname = Uring;
layers = (
{
layerId = master01;
paths = (
{
closed = 1;
nodes = (
"105 0 OFFCURVE",
"66 197 OFFCURVE",
"66 459 CURVE SMOOTH",
"66 529 OFFCURVE",
"67 640 OFFCURVE",
"68 670 CURVE",
"125 680 LINE",
"124 658 OFFCURVE",
"122 534 OFFCURVE",
"122 450 CURVE SMOOTH",
"122 241 OFFCURVE",
"145 49 OFFCURVE",
"342 49 CURVE SMOOTH",
"546 49 OFFCURVE",
"562 260 OFFCURVE",
"562 431 CURVE SMOOTH",
"562 514 OFFCURVE",
"561 634 OFFCURVE",
"560 669 CURVE",
"616 680 LINE",
"617 656 OFFCURVE",
"618 550 OFFCURVE",
"618 476 CURVE SMOOTH",
"618 245 OFFCURVE",
"598 0 OFFCURVE",
"342 0 CURVE SMOOTH"
);
},
{
closed = 1;
nodes = (
"275 721 OFFCURVE",
"228 768 OFFCURVE",
"228 823 CURVE SMOOTH",
"228 886 OFFCURVE",
"288 940 OFFCURVE",
"362 940 CURVE SMOOTH",
"432 940 OFFCURVE",
"476 888 OFFCURVE",
"476 837 CURVE SMOOTH",
"476 763 OFFCURVE",
"405 721 OFFCURVE",
"342 721 CURVE SMOOTH"
);
},
{
closed = 1;
nodes = (
"324 893 OFFCURVE",
"270 868 OFFCURVE",
"270 823 CURVE SMOOTH",
"270 790 OFFCURVE",
"303 767 OFFCURVE",
"344 767 CURVE SMOOTH",
"386 767 OFFCURVE",
"435 796 OFFCURVE",
"435 835 CURVE SMOOTH",
"435 866 OFFCURVE",
"400 893 OFFCURVE",
"359 893 CURVE SMOOTH"
);
}
);
userData = {
com.fontlab.hintData = {
hhints = (
{
position = 0;
width = 49;
},
{
position = 660;
width = 20;
},
{
position = 721;
width = 46;
},
{
position = 893;
width = 47;
}
);
vhints = (
{
position = 66;
width = 56;
},
{
position = 228;
width = 42;
},
{
position = 435;
width = 41;
},
{
position = 562;
width = 56;
}
);
};
};
width = 684;
}
);
unicode = 016E;
},
{
glyphname = V;
layers = (
{
layerId = master01;
paths = (
{
closed = 1;
nodes = (
"478 680 LINE",
"530 659 LINE",
"285 11 LINE",
"222 0 LINE",
"10 659 LINE",
"63 679 LINE",
"253 86 LINE"
);
}
);
userData = {
com.fontlab.hintData = {
hhints = (
{
position = 0;
width = 21;
},
{
position = 660;
width = 20;
}
);
};
};
width = 540;
}
);
unicode = 0056;
},
{
glyphname = W;
layers = (
{
layerId = master01;
paths = (
{
closed = 1;
nodes = (
"640 11 LINE",
"580 0 LINE",
"435 579 LINE",
"265 11 LINE",
"207 0 LINE",
"10 671 LINE",
"64 681 LINE",
"235 100 LINE",
"405 670 LINE",
"464 681 LINE",
"611 92 LINE",
"807 669 LINE",
"868 680 LINE"
);
}
);
userData = {
com.fontlab.hintData = {
hhints = (
{
position = 0;
width = 21;
},
{
position = 660;
width = 21;
}
);
};
};
width = 878;
}
);
unicode = 0057;
},
{
glyphname = X;
layers = (
{
layerId = master01;
paths = (
{
closed = 1;
nodes = (
"521 -4 LINE",
"313 297 LINE",
"92 -4 LINE",
"47 29 LINE",
"280 346 LINE",
"69 653 LINE",
"115 685 LINE",
"314 393 LINE",
"529 685 LINE",
"574 652 LINE",
"347 345 LINE",
"566 27 LINE"
);
}
);
width = 646;
}
);
unicode = 0058;
},
{
glyphname = Y;
layers = (
{
layerId = master01;
paths = (
{
closed = 1;
nodes = (
"566 677 LINE",
"628 677 LINE",
"226 0 LINE",
"164 0 LINE",
"290 214 LINE",
"20 677 LINE",
"82 677 LINE",
"322 266 LINE"
);
}
);
userData = {
com.fontlab.hintData = {
hhints = (
{
position = 0;
width = 21;
}
);
};
};
width = 628;
}
);
unicode = 0059;
},
{
glyphname = Yacute;
layers = (
{
layerId = master01;
paths = (
{
closed = 1;
nodes = (
"566 677 LINE",
"628 677 LINE",
"226 0 LINE",
"164 0 LINE",
"290 214 LINE",
"20 677 LINE",
"82 677 LINE",
"322 266 LINE"
);
},
{
closed = 1;
nodes = (
"386 893 LINE",
"439 848 LINE",
"277 736 LINE",
"236 771 LINE"
);
}
);
userData = {
com.fontlab.hintData = {
hhints = (
{
position = 0;
width = 21;
}
);
};
};
width = 628;
}
);
unicode = 00DD;
},
{
glyphname = Ydieresis;
layers = (
{
layerId = master01;
paths = (
{
closed = 1;
nodes = (
"566 677 LINE",
"628 677 LINE",
"226 0 LINE",
"164 0 LINE",
"290 214 LINE",
"20 677 LINE",
"82 677 LINE",
"322 266 LINE"
);
},
{
closed = 1;
nodes = (
"289 737 LINE",
"215 727 LINE",
"224 809 LINE",
"297 819 LINE"
);
},
{
closed = 1;
nodes = (
"449 737 LINE",
"375 727 LINE",
"384 809 LINE",
"457 819 LINE"
);
}
);
userData = {
com.fontlab.hintData = {
hhints = (
{
position = 0;
width = 21;
}
);
};
};
width = 628;
}
);
unicode = 0178;
},
{
glyphname = Z;
layers = (
{
layerId = master01;
paths = (
{
closed = 1;
nodes = (
"48 55 LINE",
"501 620 LINE",
"79 620 LINE",
"90 681 LINE",
"546 681 LINE",
"571 626 LINE",
"118 61 LINE",
"562 61 LINE",
"551 0 LINE",
"73 0 LINE"
);
}
);
userData = {
com.fontlab.hintData = {
hhints = (
{
position = 0;
width = 61;
},
{
position = 620;
width = 61;
}
);
};
};
width = 621;
}
);
unicode = 005A;
},
{
glyphname = Zacute;
layers = (
{
layerId = master01;
paths = (
{
closed = 1;
nodes = (
"48 55 LINE",
"501 620 LINE",
"79 620 LINE",
"90 681 LINE",
"546 681 LINE",
"571 626 LINE",
"118 61 LINE",
"562 61 LINE",
"551 0 LINE",
"73 0 LINE"
);
},
{
closed = 1;
nodes = (
"389 893 LINE",
"442 848 LINE",
"279 736 LINE",
"239 771 LINE"
);
}
);
userData = {
com.fontlab.hintData = {
hhints = (
{
position = 0;
width = 61;
},
{
position = 620;
width = 61;
}
);
};
};
width = 621;
}
);
unicode = 0179;
},
{
glyphname = Zcaron;
layers = (
{
layerId = master01;
paths = (
{
closed = 1;
nodes = (
"48 55 LINE",
"501 620 LINE",
"79 620 LINE",
"90 681 LINE",
"546 681 LINE",
"571 626 LINE",
"118 61 LINE",
"562 61 LINE",
"551 0 LINE",
"73 0 LINE"
);
},
{
closed = 1;
nodes = (
"458 838 LINE",
"308 718 LINE",
"179 840 LINE",
"215 880 LINE",
"311 792 LINE",
"425 881 LINE"
);
}
);
userData = {
com.fontlab.hintData = {
hhints = (
{
position = 0;
width = 61;
},
{
position = 620;
width = 61;
}
);
};
};
width = 621;
}
);
unicode = 017D;
},
{
glyphname = Zdotaccent;
layers = (
{
layerId = master01;
paths = (
{
closed = 1;
nodes = (
"48 55 LINE",
"501 620 LINE",
"79 620 LINE",
"90 681 LINE",
"546 681 LINE",
"571 626 LINE",
"118 61 LINE",
"562 61 LINE",
"551 0 LINE",
"73 0 LINE"
);
},
{
closed = 1;
nodes = (
"343 738 LINE",
"269 728 LINE",
"278 810 LINE",
"351 820 LINE"
);
}
);
userData = {
com.fontlab.hintData = {
hhints = (
{
position = 0;
width = 61;
},
{
position = 620;
width = 61;
}
);
};
};
width = 621;
}
);
unicode = 017B;
},
{
glyphname = uni0162;
layers = (
{
layerId = master01;
paths = (
{
closed = 1;
nodes = (
"225 625 LINE",
"10 625 LINE",
"10 681 LINE",
"512 681 LINE",
"512 625 LINE",
"282 625 LINE",
"282 10 LINE",
"225 0 LINE"
);
},
{
closed = 1;
nodes = (
"329 -58 LINE",
"236 -224 LINE",
"187 -196 LINE",
"241 -100 LINE",
"202 -78 LINE",
"259 -19 LINE"
);
}
);
userData = {
com.fontlab.hintData = {
hhints = (
{
position = 0;
width = 21;
},
{
position = 625;
width = 56;
}
);
vhints = (
{
position = 225;
width = 57;
}
);
};
};
width = 522;
}
);
unicode = 0162;
},
{
glyphname = a;
layers = (
{
layerId = master01;
paths = (
{
closed = 1;
nodes = (
"439 11 LINE",
"383 0 LINE",
"383 54 LINE",
"348 33 OFFCURVE",
"294 7 OFFCURVE",
"238 7 CURVE SMOOTH",
"129 7 OFFCURVE",
"50 95 OFFCURVE",
"50 223 CURVE SMOOTH",
"50 326 OFFCURVE",
"114 513 OFFCURVE",
"287 513 CURVE SMOOTH",
"342 513 OFFCURVE",
"394 495 OFFCURVE",
"439 472 CURVE"
);
},
{
closed = 1;
nodes = (
"296 62 OFFCURVE",
"359 103 OFFCURVE",
"381 120 CURVE",
"386 436 LINE",
"367 444 OFFCURVE",
"326 458 OFFCURVE",
"292 458 CURVE SMOOTH",
"155 458 OFFCURVE",
"107 309 OFFCURVE",
"107 225 CURVE SMOOTH",
"107 153 OFFCURVE",
"141 64 OFFCURVE",
"236 62 CURVE"
);
}
);
userData = {
com.fontlab.hintData = {
hhints = (
{
position = 0;
width = 21;
},
{
position = 7;
width = 55;
},
{
position = 458;
width = 55;
}
);
vhints = (
{
position = 50;
width = 57;
},
{
position = 383;
width = 56;
}
);
};
};
width = 504;
}
);
unicode = 0061;
},
{
glyphname = aacute;
layers = (
{
layerId = master01;
paths = (
{
closed = 1;
nodes = (
"439 11 LINE",
"383 0 LINE",
"383 54 LINE",
"348 33 OFFCURVE",
"294 7 OFFCURVE",
"238 7 CURVE SMOOTH",
"129 7 OFFCURVE",
"50 95 OFFCURVE",
"50 223 CURVE SMOOTH",
"50 326 OFFCURVE",
"114 513 OFFCURVE",
"287 513 CURVE SMOOTH",
"342 513 OFFCURVE",
"394 495 OFFCURVE",
"439 472 CURVE"
);
},
{
closed = 1;
nodes = (
"296 62 OFFCURVE",
"359 103 OFFCURVE",
"381 120 CURVE",
"386 436 LINE",
"367 444 OFFCURVE",
"326 458 OFFCURVE",
"292 458 CURVE SMOOTH",
"155 458 OFFCURVE",
"107 309 OFFCURVE",
"107 225 CURVE SMOOTH",
"107 153 OFFCURVE",
"141 64 OFFCURVE",
"236 62 CURVE"
);
},
{
closed = 1;
nodes = (
"318 724 LINE",
"370 679 LINE",
"208 567 LINE",
"168 602 LINE"
);
}
);
userData = {
com.fontlab.hintData = {
hhints = (
{
position = 0;
width = 21;
},
{
position = 7;
width = 55;
},
{
position = 458;
width = 55;
}
);
vhints = (
{
position = 50;
width = 57;
},
{
position = 383;
width = 56;
}
);
};
};
width = 504;
}
);
unicode = 00E1;
},
{
glyphname = abreve;
layers = (
{
layerId = master01;
paths = (
{
closed = 1;
nodes = (
"439 11 LINE",
"383 0 LINE",
"383 54 LINE",
"348 33 OFFCURVE",
"294 7 OFFCURVE",
"238 7 CURVE SMOOTH",
"129 7 OFFCURVE",
"50 95 OFFCURVE",
"50 223 CURVE SMOOTH",
"50 326 OFFCURVE",
"114 513 OFFCURVE",
"287 513 CURVE SMOOTH",
"342 513 OFFCURVE",
"394 495 OFFCURVE",
"439 472 CURVE"
);
},
{
closed = 1;
nodes = (
"296 62 OFFCURVE",
"359 103 OFFCURVE",
"381 120 CURVE",
"386 436 LINE",
"367 444 OFFCURVE",
"326 458 OFFCURVE",
"292 458 CURVE SMOOTH",
"155 458 OFFCURVE",
"107 309 OFFCURVE",
"107 225 CURVE SMOOTH",
"107 153 OFFCURVE",
"141 64 OFFCURVE",
"236 62 CURVE"
);
},
{
closed = 1;
nodes = (
"349 605 OFFCURVE",
"378 634 OFFCURVE",
"396 683 CURVE",
"427 652 LINE",
"408 597 OFFCURVE",
"348 559 OFFCURVE",
"285 559 CURVE SMOOTH",
"215 559 OFFCURVE",
"157 595 OFFCURVE",
"133 648 CURVE",
"163 678 LINE",
"197 617 OFFCURVE",
"249 605 OFFCURVE",
"286 605 CURVE SMOOTH"
);
}
);
userData = {
com.fontlab.hintData = {
hhints = (
{
position = 0;
width = 21;
},
{
position = 7;
width = 55;
},
{
position = 458;
width = 55;
},
{
position = 559;
width = 46;
},
{
position = 663;
width = 20;
}
);
vhints = (
{
position = 50;
width = 57;
},
{
position = 383;
width = 56;
}
);
};
};
width = 504;
}
);
unicode = 0103;
},
{
glyphname = acircumflex;
layers = (
{
layerId = master01;
paths = (
{
closed = 1;
nodes = (
"439 11 LINE",
"383 0 LINE",
"383 54 LINE",
"348 33 OFFCURVE",
"294 7 OFFCURVE",
"238 7 CURVE SMOOTH",
"129 7 OFFCURVE",
"50 95 OFFCURVE",
"50 223 CURVE SMOOTH",
"50 326 OFFCURVE",
"114 513 OFFCURVE",
"287 513 CURVE SMOOTH",
"342 513 OFFCURVE",
"394 495 OFFCURVE",
"439 472 CURVE"
);
},
{
closed = 1;
nodes = (
"296 62 OFFCURVE",
"359 103 OFFCURVE",
"381 120 CURVE",
"386 436 LINE",
"367 444 OFFCURVE",
"326 458 OFFCURVE",
"292 458 CURVE SMOOTH",
"155 458 OFFCURVE",
"107 309 OFFCURVE",
"107 225 CURVE SMOOTH",
"107 153 OFFCURVE",
"141 64 OFFCURVE",
"236 62 CURVE"
);
},
{
closed = 1;
nodes = (
"141 591 LINE",
"292 712 LINE",
"421 590 LINE",
"385 550 LINE",
"289 637 LINE",
"174 549 LINE"
);
}
);
userData = {
com.fontlab.hintData = {
hhints = (
{
position = 0;
width = 21;
},
{
position = 7;
width = 55;
},
{
position = 458;
width = 55;
}
);
vhints = (
{
position = 50;
width = 57;
},
{
position = 383;
width = 56;
}
);
};
};
width = 504;
}
);
unicode = 00E2;
},
{
glyphname = adieresis;
layers = (
{
layerId = master01;
paths = (
{
closed = 1;
nodes = (
"439 11 LINE",
"383 0 LINE",
"383 54 LINE",
"348 33 OFFCURVE",
"294 7 OFFCURVE",
"238 7 CURVE SMOOTH",
"129 7 OFFCURVE",
"50 95 OFFCURVE",
"50 223 CURVE SMOOTH",
"50 326 OFFCURVE",
"114 513 OFFCURVE",
"287 513 CURVE SMOOTH",
"342 513 OFFCURVE",
"394 495 OFFCURVE",
"439 472 CURVE"
);
},
{
closed = 1;
nodes = (
"296 62 OFFCURVE",
"359 103 OFFCURVE",
"381 120 CURVE",
"386 436 LINE",
"367 444 OFFCURVE",
"326 458 OFFCURVE",
"292 458 CURVE SMOOTH",
"155 458 OFFCURVE",
"107 309 OFFCURVE",
"107 225 CURVE SMOOTH",
"107 153 OFFCURVE",
"141 64 OFFCURVE",
"236 62 CURVE"
);
},
{
closed = 1;
nodes = (
"236 581 LINE",
"162 571 LINE",
"171 653 LINE",
"244 663 LINE"
);
},
{
closed = 1;
nodes = (
"396 581 LINE",
"322 571 LINE",
"331 653 LINE",
"404 663 LINE"
);
}
);
userData = {
com.fontlab.hintData = {
hhints = (
{
position = 0;
width = 21;
},
{
position = 7;
width = 55;
},
{
position = 458;
width = 55;
}
);
vhints = (
{
position = 50;
width = 57;
},
{
position = 383;
width = 56;
}
);
};
};
width = 504;
}
);
unicode = 00E4;
},
{
glyphname = agrave;
layers = (
{
layerId = master01;
paths = (
{
closed = 1;
nodes = (
"298 557 LINE",
"158 697 LINE",
"217 731 LINE",
"344 585 LINE"
);
},
{
closed = 1;
nodes = (
"439 11 LINE",
"383 0 LINE",
"383 54 LINE",
"348 33 OFFCURVE",
"294 7 OFFCURVE",
"238 7 CURVE SMOOTH",
"129 7 OFFCURVE",
"50 95 OFFCURVE",
"50 223 CURVE SMOOTH",
"50 326 OFFCURVE",
"114 513 OFFCURVE",
"287 513 CURVE SMOOTH",
"342 513 OFFCURVE",
"394 495 OFFCURVE",
"439 472 CURVE"
);
},
{
closed = 1;
nodes = (
"296 62 OFFCURVE",
"359 103 OFFCURVE",
"381 120 CURVE",
"386 436 LINE",
"367 444 OFFCURVE",
"326 458 OFFCURVE",
"292 458 CURVE SMOOTH",
"155 458 OFFCURVE",
"107 309 OFFCURVE",
"107 225 CURVE SMOOTH",
"107 153 OFFCURVE",
"141 64 OFFCURVE",
"236 62 CURVE"
);
}
);
userData = {
com.fontlab.hintData = {
hhints = (
{
position = 0;
width = 21;
},
{
position = 7;
width = 55;
},
{
position = 458;
width = 55;
}
);
vhints = (
{
position = 50;
width = 57;
},
{
position = 383;
width = 56;
}
);
};
};
width = 504;
}
);
unicode = 00E0;
},
{
glyphname = aogonek;
layers = (
{
layerId = master01;
paths = (
{
closed = 1;
nodes = (
"404 -11 LINE SMOOTH",
"381 -28 OFFCURVE",
"341 -57 OFFCURVE",
"341 -101 CURVE SMOOTH",
"341 -135 OFFCURVE",
"368 -158 OFFCURVE",
"402 -158 CURVE SMOOTH",
"434 -158 OFFCURVE",
"453 -145 OFFCURVE",
"476 -127 CURVE",
"500 -159 LINE",
"483 -180 OFFCURVE",
"443 -201 OFFCURVE",
"402 -201 CURVE SMOOTH",
"343 -201 OFFCURVE",
"299 -158 OFFCURVE",
"299 -100 CURVE SMOOTH",
"299 -46 OFFCURVE",
"343 0 OFFCURVE",
"383 26 CURVE",
"383 54 LINE",
"348 33 OFFCURVE",
"294 7 OFFCURVE",
"238 7 CURVE SMOOTH",
"129 7 OFFCURVE",
"50 95 OFFCURVE",
"50 223 CURVE SMOOTH",
"50 326 OFFCURVE",
"114 513 OFFCURVE",
"287 513 CURVE SMOOTH",
"342 513 OFFCURVE",
"394 495 OFFCURVE",
"439 472 CURVE",
"439 15 LINE"
);
},
{
closed = 1;
nodes = (
"296 62 OFFCURVE",
"359 103 OFFCURVE",
"381 120 CURVE",
"386 436 LINE",
"367 444 OFFCURVE",
"326 458 OFFCURVE",
"292 458 CURVE SMOOTH",
"155 458 OFFCURVE",
"107 309 OFFCURVE",
"107 225 CURVE SMOOTH",
"107 153 OFFCURVE",
"141 64 OFFCURVE",
"236 62 CURVE"
);
}
);
userData = {
com.fontlab.hintData = {
hhints = (
{
position = -201;
width = 43;
},
{
position = 7;
width = 55;
},
{
position = 458;
width = 55;
}
);
vhints = (
{
position = 50;
width = 57;
},
{
position = 299;
width = 42;
},
{
position = 383;
width = 56;
}
);
};
};
width = 510;
}
);
unicode = 0105;
},
{
glyphname = aring;
layers = (
{
layerId = master01;
paths = (
{
closed = 1;
nodes = (
"195 563 OFFCURVE",
"150 615 OFFCURVE",
"150 666 CURVE SMOOTH",
"150 729 OFFCURVE",
"212 778 OFFCURVE",
"273 782 CURVE",
"338 782 OFFCURVE",
"399 747 OFFCURVE",
"399 680 CURVE SMOOTH",
"399 610 OFFCURVE",
"331 563 OFFCURVE",
"264 563 CURVE SMOOTH"
);
},
{
closed = 1;
nodes = (
"231 736 OFFCURVE",
"192 697 OFFCURVE",
"192 666 CURVE SMOOTH",
"192 628 OFFCURVE",
"232 610 OFFCURVE",
"266 610 CURVE SMOOTH",
"301 610 OFFCURVE",
"357 632 OFFCURVE",
"357 677 CURVE SMOOTH",
"357 711 OFFCURVE",
"320 736 OFFCURVE",
"282 736 CURVE SMOOTH"
);
},
{
closed = 1;
nodes = (
"439 11 LINE",
"383 0 LINE",
"383 54 LINE",
"348 33 OFFCURVE",
"294 7 OFFCURVE",
"238 7 CURVE SMOOTH",
"129 7 OFFCURVE",
"50 95 OFFCURVE",
"50 223 CURVE SMOOTH",
"50 326 OFFCURVE",
"114 513 OFFCURVE",
"287 513 CURVE SMOOTH",
"342 513 OFFCURVE",
"394 495 OFFCURVE",
"439 472 CURVE"
);
},
{
closed = 1;
nodes = (
"296 62 OFFCURVE",
"359 103 OFFCURVE",
"381 120 CURVE",
"386 436 LINE",
"367 444 OFFCURVE",
"326 458 OFFCURVE",
"292 458 CURVE SMOOTH",
"155 458 OFFCURVE",
"107 309 OFFCURVE",
"107 225 CURVE SMOOTH",
"107 153 OFFCURVE",
"141 64 OFFCURVE",
"236 62 CURVE"
);
}
);
userData = {
com.fontlab.hintData = {
hhints = (
{
position = 0;
width = 21;
},
{
position = 7;
width = 55;
},
{
position = 458;
width = 55;
},
{
position = 563;
width = 47;
},
{
position = 736;
width = 46;
}
);
vhints = (
{
position = 50;
width = 57;
},
{
position = 150;
width = 42;
},
{
position = 357;
width = 42;
},
{
position = 383;
width = 56;
}
);
};
};
width = 504;
}
);
unicode = 00E5;
},
{
glyphname = atilde;
layers = (
{
layerId = master01;
paths = (
{
closed = 1;
nodes = (
"439 11 LINE",
"383 0 LINE",
"383 54 LINE",
"348 33 OFFCURVE",
"294 7 OFFCURVE",
"238 7 CURVE SMOOTH",
"129 7 OFFCURVE",
"50 95 OFFCURVE",
"50 223 CURVE SMOOTH",
"50 326 OFFCURVE",
"114 513 OFFCURVE",
"287 513 CURVE SMOOTH",
"342 513 OFFCURVE",
"394 495 OFFCURVE",
"439 472 CURVE"
);
},
{
closed = 1;
nodes = (
"296 62 OFFCURVE",
"359 103 OFFCURVE",
"381 120 CURVE",
"386 436 LINE",
"367 444 OFFCURVE",
"326 458 OFFCURVE",
"292 458 CURVE SMOOTH",
"155 458 OFFCURVE",
"107 309 OFFCURVE",
"107 225 CURVE SMOOTH",
"107 153 OFFCURVE",
"141 64 OFFCURVE",
"236 62 CURVE"
);
},
{
closed = 1;
nodes = (
"368 597 OFFCURVE",
"390 659 OFFCURVE",
"399 688 CURVE",
"448 672 LINE",
"433 607 OFFCURVE",
"386 556 OFFCURVE",
"335 556 CURVE SMOOTH",
"290 556 OFFCURVE",
"266 588 OFFCURVE",
"246 616 CURVE SMOOTH",
"227 642 OFFCURVE",
"216 664 OFFCURVE",
"199 664 CURVE SMOOTH",
"168 664 OFFCURVE",
"144 605 OFFCURVE",
"138 580 CURVE",
"89 598 LINE",
"105 648 OFFCURVE",
"138 705 OFFCURVE",
"199 705 CURVE SMOOTH",
"245 705 OFFCURVE",
"269 672 OFFCURVE",
"288 646 CURVE SMOOTH",
"307 620 OFFCURVE",
"318 597 OFFCURVE",
"335 597 CURVE SMOOTH"
);
}
);
userData = {
com.fontlab.hintData = {
hhints = (
{
position = 0;
width = 21;
},
{
position = 7;
width = 55;
},
{
position = 458;
width = 55;
},
{
position = 556;
width = 41;
},
{
position = 664;
width = 41;
}
);
vhints = (
{
position = 50;
width = 57;
},
{
position = 89;
width = 49;
},
{
position = 383;
width = 56;
},
{
position = 399;
width = 49;
}
);
};
};
width = 513;
}
);
unicode = 00E3;
},
{
glyphname = ae;
layers = (
{
layerId = master01;
paths = (
{
closed = 1;
nodes = (
"552 0 OFFCURVE",
"483 37 OFFCURVE",
"439 95 CURVE",
"439 11 LINE",
"383 0 LINE",
"383 54 LINE",
"348 33 OFFCURVE",
"294 7 OFFCURVE",
"238 7 CURVE SMOOTH",
"129 7 OFFCURVE",
"50 95 OFFCURVE",
"50 223 CURVE SMOOTH",
"50 326 OFFCURVE",
"114 513 OFFCURVE",
"287 513 CURVE SMOOTH",
"342 513 OFFCURVE",
"394 495 OFFCURVE",
"439 472 CURVE",
"439 406 LINE",
"483 464 OFFCURVE",
"551 502 OFFCURVE",
"629 502 CURVE SMOOTH",
"718 502 OFFCURVE",
"791 435 OFFCURVE",
"814 355 CURVE",
"460 159 LINE",
"491 95 OFFCURVE",
"555 51 OFFCURVE",
"629 51 CURVE SMOOTH",
"680 51 OFFCURVE",
"728 72 OFFCURVE",
"765 111 CURVE",
"802 76 LINE",
"756 27 OFFCURVE",
"694 0 OFFCURVE",
"629 0 CURVE SMOOTH"
);
},
{
closed = 1;
nodes = (
"296 62 OFFCURVE",
"359 103 OFFCURVE",
"381 120 CURVE",
"386 436 LINE",
"367 444 OFFCURVE",
"326 458 OFFCURVE",
"292 458 CURVE SMOOTH",
"155 458 OFFCURVE",
"107 309 OFFCURVE",
"107 225 CURVE SMOOTH",
"107 153 OFFCURVE",
"141 64 OFFCURVE",
"236 62 CURVE"
);
},
{
closed = 1;
nodes = (
"521 451 OFFCURVE",
"439 357 OFFCURVE",
"439 251 CURVE SMOOTH",
"439 236 OFFCURVE",
"441 222 OFFCURVE",
"444 208 CURVE",
"748 378 LINE",
"722 424 OFFCURVE",
"677 451 OFFCURVE",
"630 451 CURVE SMOOTH"
);
}
);
userData = {
com.fontlab.hintData = {
hhints = (
{
position = 0;
width = 51;
},
{
position = 7;
width = 55;
},
{
position = 451;
width = 51;
},
{
position = 458;
width = 55;
}
);
vhints = (
{
position = 50;
width = 57;
},
{
position = 383;
width = 56;
}
);
};
};
width = 864;
}
);
unicode = 00E6;
},
{
glyphname = b;
layers = (
{
layerId = master01;
paths = (
{
closed = 1;
nodes = (
"430 490 OFFCURVE",
"478 372 OFFCURVE",
"478 268 CURVE SMOOTH",
"478 215 OFFCURVE",
"474 1 OFFCURVE",
"259 1 CURVE SMOOTH",
"207 1 OFFCURVE",
"152 16 OFFCURVE",
"121 29 CURVE",
"121 0 LINE",
"65 10 LINE",
"65 681 LINE",
"121 692 LINE",
"121 409 LINE",
"156 459 OFFCURVE",
"229 490 OFFCURVE",
"320 490 CURVE SMOOTH"
);
},
{
closed = 1;
nodes = (
"377 55 OFFCURVE",
"425 147 OFFCURVE",
"425 268 CURVE SMOOTH",
"425 329 OFFCURVE",
"401 434 OFFCURVE",
"307 434 CURVE SMOOTH",
"200 434 OFFCURVE",
"121 370 OFFCURVE",
"121 291 CURVE SMOOTH",
"121 82 LINE",
"139 73 OFFCURVE",
"194 55 OFFCURVE",
"251 55 CURVE SMOOTH"
);
}
);
userData = {
com.fontlab.hintData = {
hhints = (
{
position = 1;
width = 54;
},
{
position = 434;
width = 56;
}
);
vhints = (
{
position = 65;
width = 56;
},
{
position = 425;
width = 53;
}
);
};
};
width = 528;
}
);
unicode = 0062;
},
{
glyphname = c;
layers = (
{
layerId = master01;
paths = (
{
closed = 1;
nodes = (
"339 55 OFFCURVE",
"391 88 OFFCURVE",
"417 137 CURVE",
"457 97 LINE",
"420 41 OFFCURVE",
"355 3 OFFCURVE",
"279 0 CURVE SMOOTH",
"275.529 -0.175 OFFCURVE",
"272.067 -0.262 OFFCURVE",
"268.616 -0.262 CURVE SMOOTH",
"153.735 -0.262 OFFCURVE",
"51 95.617 OFFCURVE",
"51 216 CURVE SMOOTH",
"51 329 OFFCURVE",
"138 502 OFFCURVE",
"274 502 CURVE SMOOTH",
"338 502 OFFCURVE",
"391 477 OFFCURVE",
"426 430 CURVE",
"386 391 LINE",
"363 429 OFFCURVE",
"322 450 OFFCURVE",
"276 450 CURVE SMOOTH",
"177 450 OFFCURVE",
"104 309 OFFCURVE",
"104 218 CURVE SMOOTH",
"104 82.472 OFFCURVE",
"221.143 51.903 OFFCURVE",
"272.172 51.903 CURVE SMOOTH",
"273.855 51.903 OFFCURVE",
"275.467 51.936 OFFCURVE",
"277 52 CURVE SMOOTH"
);
}
);
userData = {
com.fontlab.hintData = {
hhints = (
{
position = 0;
width = 52;
},
{
position = 450;
width = 52;
}
);
vhints = (
{
position = 51;
width = 53;
}
);
};
};
width = 507;
}
);
unicode = 0063;
},
{
glyphname = cacute;
layers = (
{
layerId = master01;
paths = (
{
closed = 1;
nodes = (
"339 55 OFFCURVE",
"391 88 OFFCURVE",
"417 137 CURVE",
"457 97 LINE",
"420 41 OFFCURVE",
"355 3 OFFCURVE",
"279 0 CURVE SMOOTH",
"275.529 -0.175 OFFCURVE",
"272.067 -0.262 OFFCURVE",
"268.616 -0.262 CURVE SMOOTH",
"153.735 -0.262 OFFCURVE",
"51 95.617 OFFCURVE",
"51 216 CURVE SMOOTH",
"51 329 OFFCURVE",
"138 502 OFFCURVE",
"274 502 CURVE SMOOTH",
"338 502 OFFCURVE",
"391 477 OFFCURVE",
"426 430 CURVE",
"386 391 LINE",
"363 429 OFFCURVE",
"322 450 OFFCURVE",
"276 450 CURVE SMOOTH",
"177 450 OFFCURVE",
"104 309 OFFCURVE",
"104 218 CURVE SMOOTH",
"104 82.472 OFFCURVE",
"221.143 51.903 OFFCURVE",
"272.172 51.903 CURVE SMOOTH",
"273.855 51.903 OFFCURVE",
"275.467 51.936 OFFCURVE",
"277 52 CURVE SMOOTH"
);
},
{
closed = 1;
nodes = (
"337 724 LINE",
"389 679 LINE",
"227 567 LINE",
"187 602 LINE"
);
}
);
userData = {
com.fontlab.hintData = {
hhints = (
{
position = 0;
width = 52;
},
{
position = 450;
width = 52;
}
);
vhints = (
{
position = 51;
width = 53;
}
);
};
};
width = 507;
}
);
unicode = 0107;
},
{
glyphname = ccaron;
layers = (
{
layerId = master01;
paths = (
{
closed = 1;
nodes = (
"339 55 OFFCURVE",
"391 88 OFFCURVE",
"417 137 CURVE",
"457 97 LINE",
"420 41 OFFCURVE",
"355 3 OFFCURVE",
"279 0 CURVE SMOOTH",
"275.529 -0.175 OFFCURVE",
"272.067 -0.262 OFFCURVE",
"268.616 -0.262 CURVE SMOOTH",
"153.735 -0.262 OFFCURVE",
"51 95.617 OFFCURVE",
"51 216 CURVE SMOOTH",
"51 329 OFFCURVE",
"138 502 OFFCURVE",
"274 502 CURVE SMOOTH",
"338 502 OFFCURVE",
"391 477 OFFCURVE",
"426 430 CURVE",
"386 391 LINE",
"363 429 OFFCURVE",
"322 450 OFFCURVE",
"276 450 CURVE SMOOTH",
"177 450 OFFCURVE",
"104 309 OFFCURVE",
"104 218 CURVE SMOOTH",
"104 82.472 OFFCURVE",
"221.143 51.903 OFFCURVE",
"272.172 51.903 CURVE SMOOTH",
"273.855 51.903 OFFCURVE",
"275.467 51.936 OFFCURVE",
"277 52 CURVE SMOOTH"
);
},
{
closed = 1;
nodes = (
"430 669 LINE",
"280 549 LINE",
"151 671 LINE",
"187 711 LINE",
"283 623 LINE",
"397 712 LINE"
);
}
);
userData = {
com.fontlab.hintData = {
hhints = (
{
position = 0;
width = 52;
},
{
position = 450;
width = 52;
}
);
vhints = (
{
position = 51;
width = 53;
}
);
};
};
width = 507;
}
);
unicode = 010D;
},
{
glyphname = ccedilla;
layers = (
{
layerId = master01;
paths = (
{
closed = 1;
nodes = (
"295 -159 OFFCURVE",
"317 -137 OFFCURVE",
"317 -110 CURVE SMOOTH",
"317 -83 OFFCURVE",
"295 -61 OFFCURVE",
"268 -61 CURVE SMOOTH",
"255 -61 OFFCURVE",
"241 -67 OFFCURVE",
"236 -72 CURVE",
"207 -42 LINE",
"224 5 LINE",
"128 26 OFFCURVE",
"51 111 OFFCURVE",
"51 216 CURVE SMOOTH",
"51 329 OFFCURVE",
"138 502 OFFCURVE",
"274 502 CURVE SMOOTH",
"338 502 OFFCURVE",
"391 477 OFFCURVE",
"426 430 CURVE",
"386 391 LINE",
"363 429 OFFCURVE",
"322 450 OFFCURVE",
"276 450 CURVE SMOOTH",
"177 450 OFFCURVE",
"104 309 OFFCURVE",
"104 218 CURVE SMOOTH",
"104 82.472 OFFCURVE",
"221.143 51.903 OFFCURVE",
"272.172 51.903 CURVE SMOOTH",
"273.855 51.903 OFFCURVE",
"275.467 51.936 OFFCURVE",
"277 52 CURVE SMOOTH",
"339 55 OFFCURVE",
"391 88 OFFCURVE",
"417 137 CURVE",
"457 97 LINE",
"420 41 OFFCURVE",
"355 3 OFFCURVE",
"279 0 CURVE",
"258 0 LINE",
"257 -19 LINE",
"261 -19 LINE SMOOTH",
"317 -19 OFFCURVE",
"359 -55 OFFCURVE",
"359 -110 CURVE SMOOTH",
"359 -160 OFFCURVE",
"318 -201 OFFCURVE",
"268 -201 CURVE SMOOTH",
"239 -201 OFFCURVE",
"213 -188 OFFCURVE",
"196 -166 CURVE",
"226 -136 LINE",
"231 -149 OFFCURVE",
"252 -159 OFFCURVE",
"268 -159 CURVE SMOOTH"
);
}
);
userData = {
com.fontlab.hintData = {
hhints = (
{
position = -201;
width = 42;
},
{
position = -61;
width = 42;
},
{
position = 0;
width = 52;
},
{
position = 450;
width = 52;
}
);
vhints = (
{
position = 51;
width = 53;
},
{
position = 317;
width = 42;
}
);
};
};
width = 507;
}
);
unicode = 00E7;
},
{
glyphname = ccircumflex;
layers = (
{
layerId = master01;
paths = (
{
closed = 1;
nodes = (
"339 55 OFFCURVE",
"391 88 OFFCURVE",
"417 137 CURVE",
"457 97 LINE",
"420 41 OFFCURVE",
"355 3 OFFCURVE",
"279 0 CURVE SMOOTH",
"275.529 -0.175 OFFCURVE",
"272.067 -0.262 OFFCURVE",
"268.616 -0.262 CURVE SMOOTH",
"153.735 -0.262 OFFCURVE",
"51 95.617 OFFCURVE",
"51 216 CURVE SMOOTH",
"51 329 OFFCURVE",
"138 502 OFFCURVE",
"274 502 CURVE SMOOTH",
"338 502 OFFCURVE",
"391 477 OFFCURVE",
"426 430 CURVE",
"386 391 LINE",
"363 429 OFFCURVE",
"322 450 OFFCURVE",
"276 450 CURVE SMOOTH",
"177 450 OFFCURVE",
"104 309 OFFCURVE",
"104 218 CURVE SMOOTH",
"104 82.472 OFFCURVE",
"221.143 51.903 OFFCURVE",
"272.172 51.903 CURVE SMOOTH",
"273.855 51.903 OFFCURVE",
"275.467 51.936 OFFCURVE",
"277 52 CURVE SMOOTH"
);
},
{
closed = 1;
nodes = (
"141 591 LINE",
"292 712 LINE",
"421 590 LINE",
"385 550 LINE",
"289 637 LINE",
"174 549 LINE"
);
}
);
userData = {
com.fontlab.hintData = {
hhints = (
{
position = 0;
width = 52;
},
{
position = 450;
width = 52;
}
);
vhints = (
{
position = 51;
width = 53;
}
);
};
};
width = 507;
}
);
unicode = 0109;
},
{
glyphname = d;
layers = (
{
layerId = master01;
paths = (
{
closed = 1;
nodes = (
"461 697 LINE",
"445 10 LINE",
"389 0 LINE",
"391 80 LINE",
"356 48 OFFCURVE",
"300 6 OFFCURVE",
"221 6 CURVE SMOOTH",
"104 6 OFFCURVE",
"51 117 OFFCURVE",
"51 226 CURVE SMOOTH",
"51 315 OFFCURVE",
"78 495 OFFCURVE",
"270 495 CURVE SMOOTH",
"325 495 OFFCURVE",
"367 479 OFFCURVE",
"399 464 CURVE",
"404 687 LINE"
);
},
{
closed = 1;
nodes = (
"398 404 LINE",
"380 414 OFFCURVE",
"323 442 OFFCURVE",
"264 442 CURVE SMOOTH",
"130 442 OFFCURVE",
"106 314 OFFCURVE",
"106 229 CURVE SMOOTH",
"106 163 OFFCURVE",
"126 55 OFFCURVE",
"221 55 CURVE SMOOTH",
"323 55 OFFCURVE",
"392 131 OFFCURVE",
"393 162 CURVE SMOOTH"
);
}
);
userData = {
com.fontlab.hintData = {
hhints = (
{
position = 0;
width = 21;
},
{
position = 6;
width = 49;
},
{
position = 442;
width = 53;
}
);
vhints = (
{
position = 51;
width = 55;
},
{
position = 391;
width = 54;
},
{
position = 398;
width = 63;
}
);
};
};
width = 526;
}
);
unicode = 0064;
},
{
glyphname = eth;
layers = (
{
layerId = master01;
paths = (
{
closed = 1;
nodes = (
"356 497 OFFCURVE",
"432 381 OFFCURVE",
"432 255 CURVE SMOOTH",
"432 128 OFFCURVE",
"350 0 OFFCURVE",
"215 0 CURVE SMOOTH",
"122 0 OFFCURVE",
"50 72 OFFCURVE",
"50 177 CURVE SMOOTH",
"50 328 OFFCURVE",
"161 429 OFFCURVE",
"323 435 CURVE",
"295 482 OFFCURVE",
"260 524 OFFCURVE",
"230 557 CURVE",
"179 529 OFFCURVE",
"122 492 OFFCURVE",
"112 484 CURVE",
"93 520 LINE",
"125 541 OFFCURVE",
"169 568 OFFCURVE",
"201 587 CURVE",
"179 608 OFFCURVE",
"158 627 OFFCURVE",
"154 630 CURVE",
"187 668 LINE",
"198 660 OFFCURVE",
"225 635 OFFCURVE",
"247 613 CURVE",
"283 633 OFFCURVE",
"333 659 OFFCURVE",
"371 674 CURVE",
"385 638 LINE",
"357 626 OFFCURVE",
"309 602 OFFCURVE",
"275 583 CURVE"
);
},
{
closed = 1;
nodes = (
"320 51 OFFCURVE",
"381 158 OFFCURVE",
"381 258 CURVE SMOOTH",
"381 301 OFFCURVE",
"369 345 OFFCURVE",
"350 385 CURVE",
"209 385 OFFCURVE",
"101 323 OFFCURVE",
"101 176 CURVE SMOOTH",
"101 99 OFFCURVE",
"150 51 OFFCURVE",
"215 51 CURVE SMOOTH"
);
}
);
userData = {
com.fontlab.hintData = {
hhints = (
{
position = 0;
width = 51;
},
{
position = 385;
width = 50;
}
);
vhints = (
{
position = 50;
width = 51;
},
{
position = 381;
width = 51;
}
);
};
};
width = 482;
}
);
unicode = 00F0;
},
{
glyphname = dcaron;
layers = (
{
layerId = master01;
paths = (
{
closed = 1;
nodes = (
"634 652 LINE",
"541 486 LINE",
"492 514 LINE",
"546 610 LINE",
"507 632 LINE",
"564 691 LINE"
);
},
{
closed = 1;
nodes = (
"461 697 LINE",
"445 10 LINE",
"389 0 LINE",
"391 80 LINE",
"356 48 OFFCURVE",
"300 6 OFFCURVE",
"221 6 CURVE SMOOTH",
"104 6 OFFCURVE",
"51 117 OFFCURVE",
"51 226 CURVE SMOOTH",
"51 315 OFFCURVE",
"78 495 OFFCURVE",
"270 495 CURVE SMOOTH",
"325 495 OFFCURVE",
"367 479 OFFCURVE",
"399 464 CURVE",
"404 687 LINE"
);
},
{
closed = 1;
nodes = (
"398 404 LINE",
"380 414 OFFCURVE",
"323 442 OFFCURVE",
"264 442 CURVE SMOOTH",
"130 442 OFFCURVE",
"106 314 OFFCURVE",
"106 229 CURVE SMOOTH",
"106 163 OFFCURVE",
"126 55 OFFCURVE",
"221 55 CURVE SMOOTH",
"323 55 OFFCURVE",
"392 131 OFFCURVE",
"393 162 CURVE SMOOTH"
);
}
);
userData = {
com.fontlab.hintData = {
hhints = (
{
position = 0;
width = 21;
},
{
position = 6;
width = 49;
},
{
position = 442;
width = 53;
}
);
vhints = (
{
position = 51;
width = 55;
},
{
position = 391;
width = 54;
},
{
position = 398;
width = 63;
}
);
};
};
width = 609;
}
);
unicode = 010F;
},
{
glyphname = dcroat;
layers = (
{
layerId = master01;
paths = (
{
closed = 1;
nodes = (
"461 697 LINE",
"459 605 LINE",
"559 605 LINE",
"549 553 LINE",
"457 553 LINE",
"445 10 LINE",
"389 0 LINE",
"391 80 LINE",
"356 48 OFFCURVE",
"300 6 OFFCURVE",
"221 6 CURVE SMOOTH",
"104 6 OFFCURVE",
"51 117 OFFCURVE",
"51 226 CURVE SMOOTH",
"51 315 OFFCURVE",
"78 495 OFFCURVE",
"270 495 CURVE SMOOTH",
"325 495 OFFCURVE",
"367 479 OFFCURVE",
"399 464 CURVE",
"401 553 LINE",
"303 553 LINE",
"313 605 LINE",
"402 605 LINE",
"404 687 LINE"
);
},
{
closed = 1;
nodes = (
"398 404 LINE",
"380 414 OFFCURVE",
"323 442 OFFCURVE",
"264 442 CURVE SMOOTH",
"130 442 OFFCURVE",
"106 314 OFFCURVE",
"106 229 CURVE SMOOTH",
"106 163 OFFCURVE",
"126 55 OFFCURVE",
"221 55 CURVE SMOOTH",
"323 55 OFFCURVE",
"392 131 OFFCURVE",
"393 162 CURVE SMOOTH"
);
}
);
userData = {
com.fontlab.hintData = {
hhints = (
{
position = 0;
width = 21;
},
{
position = 6;
width = 49;
},
{
position = 442;
width = 53;
},
{
position = 553;
width = 52;
}
);
vhints = (
{
position = 51;
width = 55;
},
{
position = 391;
width = 54;
},
{
position = 401;
width = 56;
}
);
};
};
width = 550;
}
);
unicode = 0111;
},
{
glyphname = e;
layers = (
{
layerId = master01;
paths = (
{
closed = 1;
nodes = (
"158 0 OFFCURVE",
"50 113 OFFCURVE",
"50 251 CURVE SMOOTH",
"50 388 OFFCURVE",
"157 502 OFFCURVE",
"292 502 CURVE SMOOTH",
"381 502 OFFCURVE",
"454 435 OFFCURVE",
"477 355 CURVE",
"123 159 LINE",
"154 95 OFFCURVE",
"218 51 OFFCURVE",
"292 51 CURVE SMOOTH",
"343 51 OFFCURVE",
"391 72 OFFCURVE",
"428 111 CURVE",
"465 76 LINE",
"419 27 OFFCURVE",
"357 0 OFFCURVE",
"292 0 CURVE SMOOTH"
);
},
{
closed = 1;
nodes = (
"183 451 OFFCURVE",
"101 357 OFFCURVE",
"101 251 CURVE SMOOTH",
"101 236 OFFCURVE",
"103 222 OFFCURVE",
"106 208 CURVE",
"410 378 LINE",
"384 424 OFFCURVE",
"339 451 OFFCURVE",
"292 451 CURVE SMOOTH"
);
}
);
userData = {
com.fontlab.hintData = {
hhints = (
{
position = 0;
width = 51;
},
{
position = 451;
width = 51;
}
);
vhints = (
{
position = 50;
width = 51;
}
);
};
};
width = 527;
}
);
unicode = 0065;
},
{
glyphname = eacute;
layers = (
{
layerId = master01;
paths = (
{
closed = 1;
nodes = (
"158 0 OFFCURVE",
"50 113 OFFCURVE",
"50 251 CURVE SMOOTH",
"50 388 OFFCURVE",
"157 502 OFFCURVE",
"292 502 CURVE SMOOTH",
"381 502 OFFCURVE",
"454 435 OFFCURVE",
"477 355 CURVE",
"123 159 LINE",
"154 95 OFFCURVE",
"218 51 OFFCURVE",
"292 51 CURVE SMOOTH",
"343 51 OFFCURVE",
"391 72 OFFCURVE",
"428 111 CURVE",
"465 76 LINE",
"419 27 OFFCURVE",
"357 0 OFFCURVE",
"292 0 CURVE SMOOTH"
);
},
{
closed = 1;
nodes = (
"183 451 OFFCURVE",
"101 357 OFFCURVE",
"101 251 CURVE SMOOTH",
"101 236 OFFCURVE",
"103 222 OFFCURVE",
"106 208 CURVE",
"410 378 LINE",
"384 424 OFFCURVE",
"339 451 OFFCURVE",
"292 451 CURVE SMOOTH"
);
},
{
closed = 1;
nodes = (
"318 724 LINE",
"370 679 LINE",
"208 567 LINE",
"168 602 LINE"
);
}
);
userData = {
com.fontlab.hintData = {
hhints = (
{
position = 0;
width = 51;
},
{
position = 451;
width = 51;
}
);
vhints = (
{
position = 50;
width = 51;
}
);
};
};
width = 527;
}
);
unicode = 00E9;
},
{
glyphname = ecaron;
layers = (
{
layerId = master01;
paths = (
{
closed = 1;
nodes = (
"158 0 OFFCURVE",
"50 113 OFFCURVE",
"50 251 CURVE SMOOTH",
"50 388 OFFCURVE",
"157 502 OFFCURVE",
"292 502 CURVE SMOOTH",
"381 502 OFFCURVE",
"454 435 OFFCURVE",
"477 355 CURVE",
"123 159 LINE",
"154 95 OFFCURVE",
"218 51 OFFCURVE",
"292 51 CURVE SMOOTH",
"343 51 OFFCURVE",
"391 72 OFFCURVE",
"428 111 CURVE",
"465 76 LINE",
"419 27 OFFCURVE",
"357 0 OFFCURVE",
"292 0 CURVE SMOOTH"
);
},
{
closed = 1;
nodes = (
"183 451 OFFCURVE",
"101 357 OFFCURVE",
"101 251 CURVE SMOOTH",
"101 236 OFFCURVE",
"103 222 OFFCURVE",
"106 208 CURVE",
"410 378 LINE",
"384 424 OFFCURVE",
"339 451 OFFCURVE",
"292 451 CURVE SMOOTH"
);
},
{
closed = 1;
nodes = (
"426 669 LINE",
"275 549 LINE",
"146 671 LINE",
"182 711 LINE",
"278 623 LINE",
"393 712 LINE"
);
}
);
userData = {
com.fontlab.hintData = {
hhints = (
{
position = 0;
width = 51;
},
{
position = 451;
width = 51;
}
);
vhints = (
{
position = 50;
width = 51;
}
);
};
};
width = 527;
}
);
unicode = 011B;
},
{
glyphname = ecircumflex;
layers = (
{
layerId = master01;
paths = (
{
closed = 1;
nodes = (
"158 0 OFFCURVE",
"50 113 OFFCURVE",
"50 251 CURVE SMOOTH",
"50 388 OFFCURVE",
"157 502 OFFCURVE",
"292 502 CURVE SMOOTH",
"381 502 OFFCURVE",
"454 435 OFFCURVE",
"477 355 CURVE",
"123 159 LINE",
"154 95 OFFCURVE",
"218 51 OFFCURVE",
"292 51 CURVE SMOOTH",
"343 51 OFFCURVE",
"391 72 OFFCURVE",
"428 111 CURVE",
"465 76 LINE",
"419 27 OFFCURVE",
"357 0 OFFCURVE",
"292 0 CURVE SMOOTH"
);
},
{
closed = 1;
nodes = (
"183 451 OFFCURVE",
"101 357 OFFCURVE",
"101 251 CURVE SMOOTH",
"101 236 OFFCURVE",
"103 222 OFFCURVE",
"106 208 CURVE",
"410 378 LINE",
"384 424 OFFCURVE",
"339 451 OFFCURVE",
"292 451 CURVE SMOOTH"
);
},
{
closed = 1;
nodes = (
"125 591 LINE",
"275 712 LINE",
"404 590 LINE",
"368 550 LINE",
"272 637 LINE",
"158 549 LINE"
);
}
);
userData = {
com.fontlab.hintData = {
hhints = (
{
position = 0;
width = 51;
},
{
position = 451;
width = 51;
}
);
vhints = (
{
position = 50;
width = 51;
}
);
};
};
width = 527;
}
);
unicode = 00EA;
},
{
glyphname = edieresis;
layers = (
{
layerId = master01;
paths = (
{
closed = 1;
nodes = (
"158 0 OFFCURVE",
"50 113 OFFCURVE",
"50 251 CURVE SMOOTH",
"50 388 OFFCURVE",
"157 502 OFFCURVE",
"292 502 CURVE SMOOTH",
"381 502 OFFCURVE",
"454 435 OFFCURVE",
"477 355 CURVE",
"123 159 LINE",
"154 95 OFFCURVE",
"218 51 OFFCURVE",
"292 51 CURVE SMOOTH",
"343 51 OFFCURVE",
"391 72 OFFCURVE",
"428 111 CURVE",
"465 76 LINE",
"419 27 OFFCURVE",
"357 0 OFFCURVE",
"292 0 CURVE SMOOTH"
);
},
{
closed = 1;
nodes = (
"183 451 OFFCURVE",
"101 357 OFFCURVE",
"101 251 CURVE SMOOTH",
"101 236 OFFCURVE",
"103 222 OFFCURVE",
"106 208 CURVE",
"410 378 LINE",
"384 424 OFFCURVE",
"339 451 OFFCURVE",
"292 451 CURVE SMOOTH"
);
},
{
closed = 1;
nodes = (
"232 581 LINE",
"158 571 LINE",
"167 653 LINE",
"240 663 LINE"
);
},
{
closed = 1;
nodes = (
"392 581 LINE",
"318 571 LINE",
"327 653 LINE",
"400 663 LINE"
);
}
);
userData = {
com.fontlab.hintData = {
hhints = (
{
position = 0;
width = 51;
},
{
position = 451;
width = 51;
}
);
vhints = (
{
position = 50;
width = 51;
}
);
};
};
width = 527;
}
);
unicode = 00EB;
},
{
glyphname = egrave;
layers = (
{
layerId = master01;
paths = (
{
closed = 1;
nodes = (
"305 557 LINE",
"165 697 LINE",
"225 731 LINE",
"351 585 LINE"
);
},
{
closed = 1;
nodes = (
"158 0 OFFCURVE",
"50 113 OFFCURVE",
"50 251 CURVE SMOOTH",
"50 388 OFFCURVE",
"157 502 OFFCURVE",
"292 502 CURVE SMOOTH",
"381 502 OFFCURVE",
"454 435 OFFCURVE",
"477 355 CURVE",
"123 159 LINE",
"154 95 OFFCURVE",
"218 51 OFFCURVE",
"292 51 CURVE SMOOTH",
"343 51 OFFCURVE",
"391 72 OFFCURVE",
"428 111 CURVE",
"465 76 LINE",
"419 27 OFFCURVE",
"357 0 OFFCURVE",
"292 0 CURVE SMOOTH"
);
},
{
closed = 1;
nodes = (
"183 451 OFFCURVE",
"101 357 OFFCURVE",
"101 251 CURVE SMOOTH",
"101 236 OFFCURVE",
"103 222 OFFCURVE",
"106 208 CURVE",
"410 378 LINE",
"384 424 OFFCURVE",
"339 451 OFFCURVE",
"292 451 CURVE SMOOTH"
);
}
);
userData = {
com.fontlab.hintData = {
hhints = (
{
position = 0;
width = 51;
},
{
position = 451;
width = 51;
}
);
vhints = (
{
position = 50;
width = 51;
}
);
};
};
width = 527;
}
);
unicode = 00E8;
},
{
glyphname = eogonek;
layers = (
{
layerId = master01;
paths = (
{
closed = 1;
nodes = (
"420 -159 LINE",
"403 -180 OFFCURVE",
"363 -201 OFFCURVE",
"322 -201 CURVE SMOOTH",
"263 -201 OFFCURVE",
"219 -158 OFFCURVE",
"219 -100 CURVE SMOOTH",
"219 -60 OFFCURVE",
"242 -25 OFFCURVE",
"270 1 CURVE",
"146 12 OFFCURVE",
"50 120 OFFCURVE",
"50 251 CURVE SMOOTH",
"50 388 OFFCURVE",
"157 502 OFFCURVE",
"292 502 CURVE SMOOTH",
"381 502 OFFCURVE",
"454 435 OFFCURVE",
"477 355 CURVE",
"123 159 LINE",
"154 95 OFFCURVE",
"218 51 OFFCURVE",
"292 51 CURVE SMOOTH",
"343 51 OFFCURVE",
"391 72 OFFCURVE",
"428 111 CURVE",
"465 76 LINE",
"447 54 OFFCURVE",
"418 37 OFFCURVE",
"387 21 CURVE SMOOTH",
"327 -10 OFFCURVE",
"261 -39 OFFCURVE",
"261 -101 CURVE SMOOTH",
"261 -135 OFFCURVE",
"288 -158 OFFCURVE",
"322 -158 CURVE SMOOTH",
"354 -158 OFFCURVE",
"373 -145 OFFCURVE",
"396 -127 CURVE"
);
},
{
closed = 1;
nodes = (
"183 451 OFFCURVE",
"101 357 OFFCURVE",
"101 251 CURVE SMOOTH",
"101 236 OFFCURVE",
"103 222 OFFCURVE",
"106 208 CURVE",
"410 378 LINE",
"384 424 OFFCURVE",
"339 451 OFFCURVE",
"292 451 CURVE SMOOTH"
);
}
);
userData = {
com.fontlab.hintData = {
hhints = (
{
position = -201;
width = 43;
},
{
position = 451;
width = 51;
}
);
vhints = (
{
position = 50;
width = 51;
},
{
position = 219;
width = 42;
}
);
};
};
width = 527;
}
);
unicode = 0119;
},
{
glyphname = f;
layers = (
{
layerId = master01;
paths = (
{
closed = 1;
nodes = (
"299 640 LINE",
"294.787 640.106 OFFCURVE",
"290.694 640.16 OFFCURVE",
"286.716 640.16 CURVE SMOOTH",
"178.331 640.16 OFFCURVE",
"156 600.389 OFFCURVE",
"156 502 CURVE",
"287 502 LINE",
"275 451 LINE",
"151 451 LINE",
"151 10 LINE",
"95 0 LINE",
"95 451 LINE",
"10 451 LINE",
"19 502 LINE",
"95 502 LINE",
"95 642.52 OFFCURVE",
"156.486 693.841 OFFCURVE",
"290.741 693.841 CURVE SMOOTH",
"300.754 693.841 OFFCURVE",
"311.173 693.555 OFFCURVE",
"322 693 CURVE"
);
}
);
userData = {
com.fontlab.hintData = {
hhints = (
{
position = 0;
width = 21;
},
{
position = 451;
width = 51;
},
{
position = 640;
width = 54;
}
);
vhints = (
{
position = 95;
width = 56;
}
);
};
};
width = 332;
}
);
unicode = 0066;
},
{
glyphname = g;
layers = (
{
layerId = master01;
paths = (
{
closed = 1;
nodes = (
"446 19 LINE SMOOTH",
"443 -112 OFFCURVE",
"369 -185 OFFCURVE",
"244 -185 CURVE SMOOTH",
"196 -185 OFFCURVE",
"148 -178 OFFCURVE",
"117 -171 CURVE",
"129 -116 LINE",
"157 -122 OFFCURVE",
"201 -129 OFFCURVE",
"244 -129 CURVE SMOOTH",
"375 -129 OFFCURVE",
"389 -25 OFFCURVE",
"390 18 CURVE SMOOTH",
"392 79 LINE",
"356 31 OFFCURVE",
"307 0 OFFCURVE",
"249 0 CURVE SMOOTH",
"135 0 OFFCURVE",
"51 100 OFFCURVE",
"51 237 CURVE SMOOTH",
"51 366 OFFCURVE",
"144 501 OFFCURVE",
"288 501 CURVE SMOOTH",
"335 501 OFFCURVE",
"374 484 OFFCURVE",
"400 469 CURVE",
"400 499 LINE",
"457 508 LINE"
);
},
{
closed = 1;
nodes = (
"372 431 OFFCURVE",
"333 446 OFFCURVE",
"293 446 CURVE SMOOTH",
"181 446 OFFCURVE",
"100 348 OFFCURVE",
"100 237 CURVE SMOOTH",
"100 167 OFFCURVE",
"142 53 OFFCURVE",
"244 53 CURVE",
"314 54 OFFCURVE",
"396 105 OFFCURVE",
"396 268 CURVE SMOOTH",
"396 413 LINE"
);
}
);
userData = {
com.fontlab.hintData = {
hhints = (
{
position = -185;
width = 56;
},
{
position = 0;
width = 53;
},
{
position = 446;
width = 55;
}
);
vhints = (
{
position = 51;
width = 49;
},
{
position = 396;
width = 61;
},
{
position = 396;
width = 50;
}
);
};
};
width = 522;
}
);
unicode = 0067;
},
{
glyphname = gcircumflex;
layers = (
{
layerId = master01;
paths = (
{
closed = 1;
nodes = (
"446 19 LINE SMOOTH",
"443 -112 OFFCURVE",
"369 -185 OFFCURVE",
"244 -185 CURVE SMOOTH",
"196 -185 OFFCURVE",
"148 -178 OFFCURVE",
"117 -171 CURVE",
"129 -116 LINE",
"157 -122 OFFCURVE",
"201 -129 OFFCURVE",
"244 -129 CURVE SMOOTH",
"375 -129 OFFCURVE",
"389 -25 OFFCURVE",
"390 18 CURVE SMOOTH",
"392 79 LINE",
"356 31 OFFCURVE",
"307 0 OFFCURVE",
"249 0 CURVE SMOOTH",
"135 0 OFFCURVE",
"51 100 OFFCURVE",
"51 237 CURVE SMOOTH",
"51 366 OFFCURVE",
"144 501 OFFCURVE",
"288 501 CURVE SMOOTH",
"335 501 OFFCURVE",
"374 484 OFFCURVE",
"400 469 CURVE",
"400 499 LINE",
"457 508 LINE"
);
},
{
closed = 1;
nodes = (
"372 431 OFFCURVE",
"333 446 OFFCURVE",
"293 446 CURVE SMOOTH",
"181 446 OFFCURVE",
"100 348 OFFCURVE",
"100 237 CURVE SMOOTH",
"100 167 OFFCURVE",
"142 53 OFFCURVE",
"244 53 CURVE SMOOTH",
"314 54 OFFCURVE",
"396 105 OFFCURVE",
"396 268 CURVE SMOOTH",
"396 413 LINE"
);
},
{
closed = 1;
nodes = (
"141 591 LINE",
"292 712 LINE",
"421 590 LINE",
"385 550 LINE",
"289 637 LINE",
"174 549 LINE"
);
}
);
userData = {
com.fontlab.hintData = {
hhints = (
{
position = -185;
width = 56;
},
{
position = 0;
width = 53;
},
{
position = 446;
width = 55;
}
);
vhints = (
{
position = 51;
width = 49;
},
{
position = 396;
width = 61;
},
{
position = 396;
width = 50;
}
);
};
};
width = 522;
}
);
unicode = 011D;
},
{
glyphname = h;
layers = (
{
layerId = master01;
paths = (
{
closed = 1;
nodes = (
"121 10 LINE",
"65 0 LINE",
"65 681 LINE",
"121 692 LINE",
"121 336 LINE",
"157 416 OFFCURVE",
"235 505 OFFCURVE",
"319 505 CURVE SMOOTH",
"424 505 OFFCURVE",
"453 382 OFFCURVE",
"453 142 CURVE SMOOTH",
"453 78 OFFCURVE",
"452 28 OFFCURVE",
"451 10 CURVE",
"397 0 LINE",
"398 14 OFFCURVE",
"399 69 OFFCURVE",
"399 136 CURVE SMOOTH",
"399 337 OFFCURVE",
"382 451 OFFCURVE",
"319 451 CURVE SMOOTH",
"233 451 OFFCURVE",
"152 319 OFFCURVE",
"136 285 CURVE SMOOTH",
"124 260 OFFCURVE",
"121 230 OFFCURVE",
"121 196 CURVE SMOOTH"
);
}
);
userData = {
com.fontlab.hintData = {
hhints = (
{
position = 0;
width = 21;
},
{
position = 451;
width = 54;
}
);
vhints = (
{
position = 65;
width = 56;
},
{
position = 399;
width = 54;
}
);
};
};
width = 504;
}
);
unicode = 0068;
},
{
glyphname = hcircumflex;
layers = (
{
layerId = master01;
paths = (
{
closed = 1;
nodes = (
"121 10 LINE",
"65 0 LINE",
"65 681 LINE",
"121 692 LINE",
"121 336 LINE",
"157 416 OFFCURVE",
"235 505 OFFCURVE",
"319 505 CURVE SMOOTH",
"424 505 OFFCURVE",
"453 382 OFFCURVE",
"453 142 CURVE SMOOTH",
"453 78 OFFCURVE",
"452 28 OFFCURVE",
"451 10 CURVE",
"397 0 LINE",
"398 14 OFFCURVE",
"399 69 OFFCURVE",
"399 136 CURVE SMOOTH",
"399 337 OFFCURVE",
"382 451 OFFCURVE",
"319 451 CURVE SMOOTH",
"233 451 OFFCURVE",
"152 319 OFFCURVE",
"136 285 CURVE SMOOTH",
"124 260 OFFCURVE",
"121 230 OFFCURVE",
"121 196 CURVE SMOOTH"
);
},
{
closed = 1;
nodes = (
"115 760 LINE",
"265 881 LINE",
"394 759 LINE",
"358 719 LINE",
"262 806 LINE",
"148 718 LINE"
);
}
);
userData = {
com.fontlab.hintData = {
hhints = (
{
position = 0;
width = 21;
},
{
position = 451;
width = 54;
}
);
vhints = (
{
position = 65;
width = 56;
},
{
position = 399;
width = 54;
}
);
};
};
width = 504;
}
);
unicode = 0125;
},
{
glyphname = i;
layers = (
{
layerId = master01;
paths = (
{
closed = 1;
nodes = (
"124 500 LINE",
"124 10 LINE",
"65 0 LINE",
"65 491 LINE"
);
},
{
closed = 1;
nodes = (
"122 607 LINE",
"65 597 LINE",
"72 679 LINE",
"128 689 LINE"
);
}
);
userData = {
com.fontlab.hintData = {
hhints = (
{
position = 0;
width = 21;
}
);
vhints = (
{
position = 65;
width = 59;
}
);
};
};
width = 193;
}
);
unicode = 0069;
},
{
glyphname = iacute;
layers = (
{
layerId = master01;
paths = (
{
closed = 1;
nodes = (
"124 500 LINE",
"124 10 LINE",
"65 0 LINE",
"65 491 LINE"
);
},
{
closed = 1;
nodes = (
"174 724 LINE",
"226 679 LINE",
"64 567 LINE",
"24 602 LINE"
);
}
);
userData = {
com.fontlab.hintData = {
hhints = (
{
position = 0;
width = 21;
}
);
vhints = (
{
position = 65;
width = 59;
}
);
};
};
width = 205;
}
);
unicode = 00ED;
},
{
glyphname = icircumflex;
layers = (
{
layerId = master01;
paths = (
{
closed = 1;
nodes = (
"157 500 LINE",
"157 10 LINE",
"98 0 LINE",
"98 491 LINE"
);
},
{
closed = 1;
nodes = (
"-6 591 LINE",
"144 712 LINE",
"273 590 LINE",
"237 550 LINE",
"141 637 LINE",
"27 549 LINE"
);
}
);
userData = {
com.fontlab.hintData = {
hhints = (
{
position = 0;
width = 21;
}
);
vhints = (
{
position = 98;
width = 59;
}
);
};
};
width = 246;
}
);
unicode = 00EE;
},
{
glyphname = idieresis;
layers = (
{
layerId = master01;
paths = (
{
closed = 1;
nodes = (
"152 500 LINE",
"152 10 LINE",
"93 0 LINE",
"93 491 LINE"
);
},
{
closed = 1;
nodes = (
"87 581 LINE",
"13 571 LINE",
"22 653 LINE",
"95 663 LINE"
);
},
{
closed = 1;
nodes = (
"247 581 LINE",
"173 571 LINE",
"182 653 LINE",
"255 663 LINE"
);
}
);
userData = {
com.fontlab.hintData = {
hhints = (
{
position = 0;
width = 21;
}
);
vhints = (
{
position = 93;
width = 59;
}
);
};
};
width = 246;
}
);
unicode = 00EF;
},
{
glyphname = igrave;
layers = (
{
layerId = master01;
paths = (
{
closed = 1;
nodes = (
"141 557 LINE",
"1 697 LINE",
"61 731 LINE",
"187 585 LINE"
);
},
{
closed = 1;
nodes = (
"136 500 LINE",
"136 10 LINE",
"77 0 LINE",
"77 491 LINE"
);
}
);
userData = {
com.fontlab.hintData = {
hhints = (
{
position = 0;
width = 21;
}
);
vhints = (
{
position = 77;
width = 59;
}
);
};
};
width = 217;
}
);
unicode = 00EC;
},
{
glyphname = j;
layers = (
{
layerId = master01;
paths = (
{
closed = 1;
nodes = (
"240 615 LINE",
"184 605 LINE",
"190 687 LINE",
"247 697 LINE"
);
},
{
closed = 1;
nodes = (
"16 2 LINE",
"33 -38 OFFCURVE",
"78 -129 OFFCURVE",
"126 -129 CURVE SMOOTH",
"171 -129 OFFCURVE",
"191 -73 OFFCURVE",
"191 -5 CURVE SMOOTH",
"191 12 OFFCURVE",
"188 239 OFFCURVE",
"184 502 CURVE",
"241 513 LINE",
"245 247 OFFCURVE",
"248 17 OFFCURVE",
"248 0 CURVE SMOOTH",
"248 -72 OFFCURVE",
"220 -180 OFFCURVE",
"126 -180 CURVE SMOOTH",
"27 -180 OFFCURVE",
"-33 -27 OFFCURVE",
"-40 -10 CURVE"
);
}
);
userData = {
com.fontlab.hintData = {
hhints = (
{
position = -180;
width = 51;
}
);
vhints = (
{
position = 184;
width = 57;
},
{
position = 191;
width = 57;
}
);
};
};
width = 313;
}
);
unicode = 006A;
},
{
glyphname = jcircumflex;
layers = (
{
layerId = master01;
paths = (
{
closed = 1;
nodes = (
"16 2 LINE",
"33 -38 OFFCURVE",
"78 -129 OFFCURVE",
"126 -129 CURVE SMOOTH",
"171 -129 OFFCURVE",
"191 -73 OFFCURVE",
"191 -5 CURVE SMOOTH",
"191 12 OFFCURVE",
"188 239 OFFCURVE",
"184 502 CURVE",
"241 513 LINE",
"245 247 OFFCURVE",
"248 17 OFFCURVE",
"248 0 CURVE SMOOTH",
"248 -72 OFFCURVE",
"220 -180 OFFCURVE",
"126 -180 CURVE SMOOTH",
"27 -180 OFFCURVE",
"-33 -27 OFFCURVE",
"-40 -10 CURVE"
);
},
{
closed = 1;
nodes = (
"61 591 LINE",
"212 712 LINE",
"341 590 LINE",
"305 550 LINE",
"209 637 LINE",
"94 549 LINE"
);
}
);
userData = {
com.fontlab.hintData = {
hhints = (
{
position = -180;
width = 51;
}
);
vhints = (
{
position = 184;
width = 57;
},
{
position = 191;
width = 57;
}
);
};
};
width = 313;
}
);
unicode = 0135;
},
{
glyphname = k;
layers = (
{
layerId = master01;
paths = (
{
closed = 1;
nodes = (
"266 290 OFFCURVE",
"359 173 OFFCURVE",
"464 37 CURVE",
"421 0 LINE",
"351 107 OFFCURVE",
"262 214 OFFCURVE",
"216 264 CURVE",
"177 235 OFFCURVE",
"146 214 OFFCURVE",
"123 201 CURVE",
"124 10 LINE",
"67 0 LINE",
"65 681 LINE",
"122 692 LINE",
"123 254 LINE",
"180 291 OFFCURVE",
"326 432 OFFCURVE",
"404 534 CURVE",
"448 502 LINE",
"404 445 OFFCURVE",
"303 334 OFFCURVE",
"258 298 CURVE"
);
}
);
userData = {
com.fontlab.hintData = {
hhints = (
{
position = 0;
width = 21;
}
);
vhints = (
{
position = 67;
width = 56;
}
);
};
};
width = 494;
}
);
unicode = 006B;
},
{
glyphname = l;
layers = (
{
layerId = master01;
paths = (
{
closed = 1;
nodes = (
"141 692 LINE",
"141 10 LINE",
"85 0 LINE",
"85 681 LINE"
);
}
);
userData = {
com.fontlab.hintData = {
hhints = (
{
position = 0;
width = 21;
}
);
vhints = (
{
position = 85;
width = 56;
}
);
};
};
width = 226;
}
);
unicode = 006C;
},
{
glyphname = lacute;
layers = (
{
layerId = master01;
paths = (
{
closed = 1;
nodes = (
"141 692 LINE",
"141 10 LINE",
"85 0 LINE",
"85 681 LINE"
);
},
{
closed = 1;
nodes = (
"190 893 LINE",
"242 848 LINE",
"80 736 LINE",
"40 771 LINE"
);
}
);
userData = {
com.fontlab.hintData = {
hhints = (
{
position = 0;
width = 21;
}
);
vhints = (
{
position = 85;
width = 56;
}
);
};
};
width = 226;
}
);
unicode = 013A;
},
{
glyphname = lcaron;
layers = (
{
layerId = master01;
paths = (
{
closed = 1;
nodes = (
"141 692 LINE",
"141 10 LINE",
"85 0 LINE",
"85 681 LINE"
);
},
{
closed = 1;
nodes = (
"315 655 LINE",
"222 489 LINE",
"173 517 LINE",
"227 613 LINE",
"188 635 LINE",
"245 694 LINE"
);
}
);
userData = {
com.fontlab.hintData = {
hhints = (
{
position = 0;
width = 21;
}
);
vhints = (
{
position = 85;
width = 56;
}
);
};
};
width = 290;
}
);
unicode = 013E;
},
{
glyphname = lslash;
layers = (
{
layerId = master01;
paths = (
{
closed = 1;
nodes = (
"161 330 LINE",
"161 10 LINE",
"105 0 LINE",
"105 294 LINE",
"52 261 LINE",
"20 308 LINE",
"105 362 LINE",
"105 681 LINE",
"161 692 LINE",
"161 397 LINE",
"215 432 LINE",
"246 384 LINE"
);
}
);
userData = {
com.fontlab.hintData = {
hhints = (
{
position = 0;
width = 21;
}
);
vhints = (
{
position = 105;
width = 56;
}
);
};
};
width = 266;
}
);
unicode = 0142;
},
{
glyphname = m;
layers = (
{
layerId = master01;
paths = (
{
closed = 1;
nodes = (
"122 288 OFFCURVE",
"121 264 OFFCURVE",
"121 264 CURVE",
"121 10 LINE",
"65 0 LINE",
"65 482 LINE",
"121 492 LINE",
"121 362 LINE",
"174 435 OFFCURVE",
"245 511 OFFCURVE",
"313 511 CURVE SMOOTH",
"363 511 OFFCURVE",
"422 490 OFFCURVE",
"442 400 CURVE",
"489 467 OFFCURVE",
"561 511 OFFCURVE",
"615 511 CURVE SMOOTH",
"677 511 OFFCURVE",
"752 479 OFFCURVE",
"752 326 CURVE SMOOTH",
"752 10 LINE",
"695 0 LINE",
"695 333 LINE SMOOTH",
"695 449 OFFCURVE",
"649 462 OFFCURVE",
"615 462 CURVE SMOOTH",
"560 462 OFFCURVE",
"449 396 OFFCURVE",
"449 282 CURVE SMOOTH",
"449 10 LINE",
"393 0 LINE",
"393 333 LINE SMOOTH",
"393 449 OFFCURVE",
"347 462 OFFCURVE",
"313 462 CURVE SMOOTH",
"271 462 OFFCURVE",
"200 415 OFFCURVE",
"133 306 CURVE SMOOTH"
);
}
);
userData = {
com.fontlab.hintData = {
hhints = (
{
position = 0;
width = 21;
},
{
position = 462;
width = 49;
}
);
vhints = (
{
position = 65;
width = 56;
},
{
position = 393;
width = 56;
},
{
position = 695;
width = 57;
}
);
};
};
width = 817;
}
);
unicode = 006D;
},
{
glyphname = n;
layers = (
{
layerId = master01;
paths = (
{
closed = 1;
nodes = (
"121 297 LINE",
"142 411 OFFCURVE",
"225 501 OFFCURVE",
"326 501 CURVE SMOOTH",
"394 501 OFFCURVE",
"436 465 OFFCURVE",
"454 393 CURVE SMOOTH",
"469 332 OFFCURVE",
"469 248 OFFCURVE",
"470 115 CURVE SMOOTH",
"471 12 LINE",
"417 0 LINE",
"416 114 LINE SMOOTH",
"415 226 OFFCURVE",
"416 322 OFFCURVE",
"401 379 CURVE SMOOTH",
"389 428 OFFCURVE",
"369 446 OFFCURVE",
"326 446 CURVE SMOOTH",
"282 446 OFFCURVE",
"229 426 OFFCURVE",
"176 327 CURVE SMOOTH",
"143 265 OFFCURVE",
"121 182 OFFCURVE",
"121 112 CURVE SMOOTH",
"120 11 LINE",
"65 0 LINE",
"65 492 LINE",
"121 502 LINE"
);
}
);
userData = {
com.fontlab.hintData = {
hhints = (
{
position = 0;
width = 21;
},
{
position = 446;
width = 55;
}
);
vhints = (
{
position = 65;
width = 56;
},
{
position = 417;
width = 54;
}
);
};
};
width = 536;
}
);
unicode = 006E;
},
{
glyphname = nacute;
layers = (
{
layerId = master01;
paths = (
{
closed = 1;
nodes = (
"121 297 LINE",
"142 411 OFFCURVE",
"225 501 OFFCURVE",
"326 501 CURVE SMOOTH",
"394 501 OFFCURVE",
"436 465 OFFCURVE",
"454 393 CURVE SMOOTH",
"469 332 OFFCURVE",
"469 248 OFFCURVE",
"470 115 CURVE SMOOTH",
"471 12 LINE",
"417 0 LINE",
"416 114 LINE SMOOTH",
"415 226 OFFCURVE",
"416 322 OFFCURVE",
"401 379 CURVE SMOOTH",
"389 428 OFFCURVE",
"369 446 OFFCURVE",
"326 446 CURVE SMOOTH",
"282 446 OFFCURVE",
"229 426 OFFCURVE",
"176 327 CURVE SMOOTH",
"143 265 OFFCURVE",
"121 182 OFFCURVE",
"121 112 CURVE SMOOTH",
"120 11 LINE",
"65 0 LINE",
"65 492 LINE",
"121 502 LINE"
);
},
{
closed = 1;
nodes = (
"352 724 LINE",
"404 679 LINE",
"242 567 LINE",
"202 602 LINE"
);
}
);
userData = {
com.fontlab.hintData = {
hhints = (
{
position = 0;
width = 21;
},
{
position = 446;
width = 55;
}
);
vhints = (
{
position = 65;
width = 56;
},
{
position = 417;
width = 54;
}
);
};
};
width = 536;
}
);
unicode = 0144;
},
{
glyphname = ncaron;
layers = (
{
layerId = master01;
paths = (
{
closed = 1;
nodes = (
"121 297 LINE",
"142 411 OFFCURVE",
"225 501 OFFCURVE",
"326 501 CURVE SMOOTH",
"394 501 OFFCURVE",
"436 465 OFFCURVE",
"454 393 CURVE SMOOTH",
"469 332 OFFCURVE",
"469 248 OFFCURVE",
"470 115 CURVE SMOOTH",
"471 12 LINE",
"417 0 LINE",
"416 114 LINE SMOOTH",
"415 226 OFFCURVE",
"416 322 OFFCURVE",
"401 379 CURVE SMOOTH",
"389 428 OFFCURVE",
"369 446 OFFCURVE",
"326 446 CURVE SMOOTH",
"282 446 OFFCURVE",
"229 426 OFFCURVE",
"176 327 CURVE SMOOTH",
"143 265 OFFCURVE",
"121 182 OFFCURVE",
"121 112 CURVE SMOOTH",
"120 11 LINE",
"65 0 LINE",
"65 492 LINE",
"121 502 LINE"
);
},
{
closed = 1;
nodes = (
"436 669 LINE",
"285 549 LINE",
"156 671 LINE",
"192 711 LINE",
"288 623 LINE",
"403 712 LINE"
);
}
);
userData = {
com.fontlab.hintData = {
hhints = (
{
position = 0;
width = 21;
},
{
position = 446;
width = 55;
}
);
vhints = (
{
position = 65;
width = 56;
},
{
position = 417;
width = 54;
}
);
};
};
width = 536;
}
);
unicode = 0148;
},
{
glyphname = ntilde;
layers = (
{
layerId = master01;
paths = (
{
closed = 1;
nodes = (
"121 297 LINE",
"142 411 OFFCURVE",
"225 501 OFFCURVE",
"326 501 CURVE SMOOTH",
"394 501 OFFCURVE",
"436 465 OFFCURVE",
"454 393 CURVE SMOOTH",
"469 332 OFFCURVE",
"469 248 OFFCURVE",
"470 115 CURVE SMOOTH",
"471 12 LINE",
"417 0 LINE",
"416 114 LINE SMOOTH",
"415 226 OFFCURVE",
"416 322 OFFCURVE",
"401 379 CURVE SMOOTH",
"389 428 OFFCURVE",
"369 446 OFFCURVE",
"326 446 CURVE SMOOTH",
"282 446 OFFCURVE",
"229 426 OFFCURVE",
"176 327 CURVE SMOOTH",
"143 265 OFFCURVE",
"121 182 OFFCURVE",
"121 112 CURVE SMOOTH",
"120 11 LINE",
"65 0 LINE",
"65 492 LINE",
"121 502 LINE"
);
},
{
closed = 1;
nodes = (
"391 597 OFFCURVE",
"413 659 OFFCURVE",
"422 688 CURVE",
"471 672 LINE",
"456 607 OFFCURVE",
"409 556 OFFCURVE",
"358 556 CURVE SMOOTH",
"313 556 OFFCURVE",
"289 588 OFFCURVE",
"269 616 CURVE SMOOTH",
"250 642 OFFCURVE",
"239 664 OFFCURVE",
"222 664 CURVE SMOOTH",
"191 664 OFFCURVE",
"167 605 OFFCURVE",
"161 580 CURVE",
"112 598 LINE",
"128 648 OFFCURVE",
"161 705 OFFCURVE",
"222 705 CURVE SMOOTH",
"268 705 OFFCURVE",
"292 672 OFFCURVE",
"311 646 CURVE SMOOTH",
"330 620 OFFCURVE",
"341 597 OFFCURVE",
"358 597 CURVE SMOOTH"
);
}
);
userData = {
com.fontlab.hintData = {
hhints = (
{
position = 0;
width = 21;
},
{
position = 446;
width = 55;
},
{
position = 556;
width = 41;
},
{
position = 664;
width = 41;
}
);
vhints = (
{
position = 65;
width = 56;
},
{
position = 112;
width = 49;
},
{
position = 417;
width = 54;
}
);
};
};
width = 536;
}
);
unicode = 00F1;
},
{
glyphname = o;
layers = (
{
layerId = master01;
paths = (
{
closed = 1;
nodes = (
"137 0 OFFCURVE",
"50 104 OFFCURVE",
"50 230 CURVE SMOOTH",
"50 376 OFFCURVE",
"157 500 OFFCURVE",
"283 500 CURVE SMOOTH",
"397 500 OFFCURVE",
"485 394 OFFCURVE",
"485 270 CURVE SMOOTH",
"485 123 OFFCURVE",
"378 0 OFFCURVE",
"252 0 CURVE SMOOTH"
);
},
{
closed = 1;
nodes = (
"185 452 OFFCURVE",
"107 349 OFFCURVE",
"107 232 CURVE SMOOTH",
"107 133 OFFCURVE",
"165 48 OFFCURVE",
"252 48 CURVE SMOOTH",
"343 48 OFFCURVE",
"427 149 OFFCURVE",
"427 265 CURVE SMOOTH",
"427 365 OFFCURVE",
"361 452 OFFCURVE",
"278 452 CURVE SMOOTH"
);
}
);
userData = {
com.fontlab.hintData = {
hhints = (
{
position = 0;
width = 48;
},
{
position = 452;
width = 48;
}
);
vhints = (
{
position = 50;
width = 57;
},
{
position = 427;
width = 58;
}
);
};
};
width = 535;
}
);
unicode = 006F;
},
{
glyphname = oacute;
layers = (
{
layerId = master01;
paths = (
{
closed = 1;
nodes = (
"363 724 LINE",
"415 679 LINE",
"253 567 LINE",
"213 602 LINE"
);
},
{
closed = 1;
nodes = (
"137 0 OFFCURVE",
"50 104 OFFCURVE",
"50 230 CURVE SMOOTH",
"50 376 OFFCURVE",
"157 500 OFFCURVE",
"283 500 CURVE SMOOTH",
"397 500 OFFCURVE",
"485 394 OFFCURVE",
"485 270 CURVE SMOOTH",
"485 123 OFFCURVE",
"378 0 OFFCURVE",
"252 0 CURVE SMOOTH"
);
},
{
closed = 1;
nodes = (
"185 452 OFFCURVE",
"107 349 OFFCURVE",
"107 232 CURVE SMOOTH",
"107 133 OFFCURVE",
"165 48 OFFCURVE",
"252 48 CURVE SMOOTH",
"343 48 OFFCURVE",
"427 149 OFFCURVE",
"427 265 CURVE SMOOTH",
"427 365 OFFCURVE",
"361 452 OFFCURVE",
"278 452 CURVE SMOOTH"
);
}
);
userData = {
com.fontlab.hintData = {
hhints = (
{
position = 0;
width = 48;
},
{
position = 452;
width = 48;
}
);
vhints = (
{
position = 50;
width = 57;
},
{
position = 427;
width = 58;
}
);
};
};
width = 535;
}
);
unicode = 00F3;
},
{
glyphname = ocircumflex;
layers = (
{
layerId = master01;
paths = (
{
closed = 1;
nodes = (
"149 591 LINE",
"299 712 LINE",
"428 590 LINE",
"392 550 LINE",
"296 637 LINE",
"182 549 LINE"
);
},
{
closed = 1;
nodes = (
"137 0 OFFCURVE",
"50 104 OFFCURVE",
"50 230 CURVE SMOOTH",
"50 376 OFFCURVE",
"157 500 OFFCURVE",
"283 500 CURVE SMOOTH",
"397 500 OFFCURVE",
"485 394 OFFCURVE",
"485 270 CURVE SMOOTH",
"485 123 OFFCURVE",
"378 0 OFFCURVE",
"252 0 CURVE SMOOTH"
);
},
{
closed = 1;
nodes = (
"185 452 OFFCURVE",
"107 349 OFFCURVE",
"107 232 CURVE SMOOTH",
"107 133 OFFCURVE",
"165 48 OFFCURVE",
"252 48 CURVE SMOOTH",
"343 48 OFFCURVE",
"427 149 OFFCURVE",
"427 265 CURVE SMOOTH",
"427 365 OFFCURVE",
"361 452 OFFCURVE",
"278 452 CURVE SMOOTH"
);
}
);
userData = {
com.fontlab.hintData = {
hhints = (
{
position = 0;
width = 48;
},
{
position = 452;
width = 48;
}
);
vhints = (
{
position = 50;
width = 57;
},
{
position = 427;
width = 58;
}
);
};
};
width = 535;
}
);
unicode = 00F4;
},
{
glyphname = odieresis;
layers = (
{
layerId = master01;
paths = (
{
closed = 1;
nodes = (
"247 581 LINE",
"173 571 LINE",
"182 653 LINE",
"255 663 LINE"
);
},
{
closed = 1;
nodes = (
"407 581 LINE",
"333 571 LINE",
"342 653 LINE",
"415 663 LINE"
);
},
{
closed = 1;
nodes = (
"137 0 OFFCURVE",
"50 104 OFFCURVE",
"50 230 CURVE SMOOTH",
"50 376 OFFCURVE",
"157 500 OFFCURVE",
"283 500 CURVE SMOOTH",
"397 500 OFFCURVE",
"485 394 OFFCURVE",
"485 270 CURVE SMOOTH",
"485 123 OFFCURVE",
"378 0 OFFCURVE",
"252 0 CURVE SMOOTH"
);
},
{
closed = 1;
nodes = (
"185 452 OFFCURVE",
"107 349 OFFCURVE",
"107 232 CURVE SMOOTH",
"107 133 OFFCURVE",
"165 48 OFFCURVE",
"252 48 CURVE SMOOTH",
"343 48 OFFCURVE",
"427 149 OFFCURVE",
"427 265 CURVE SMOOTH",
"427 365 OFFCURVE",
"361 452 OFFCURVE",
"278 452 CURVE SMOOTH"
);
}
);
userData = {
com.fontlab.hintData = {
hhints = (
{
position = 0;
width = 48;
},
{
position = 452;
width = 48;
}
);
vhints = (
{
position = 50;
width = 57;
},
{
position = 427;
width = 58;
}
);
};
};
width = 535;
}
);
unicode = 00F6;
},
{
glyphname = ograve;
layers = (
{
layerId = master01;
paths = (
{
closed = 1;
nodes = (
"323 557 LINE",
"183 697 LINE",
"243 731 LINE",
"369 585 LINE"
);
},
{
closed = 1;
nodes = (
"137 0 OFFCURVE",
"50 104 OFFCURVE",
"50 230 CURVE SMOOTH",
"50 376 OFFCURVE",
"157 500 OFFCURVE",
"283 500 CURVE SMOOTH",
"397 500 OFFCURVE",
"485 394 OFFCURVE",
"485 270 CURVE SMOOTH",
"485 123 OFFCURVE",
"378 0 OFFCURVE",
"252 0 CURVE SMOOTH"
);
},
{
closed = 1;
nodes = (
"185 452 OFFCURVE",
"107 349 OFFCURVE",
"107 232 CURVE SMOOTH",
"107 133 OFFCURVE",
"165 48 OFFCURVE",
"252 48 CURVE SMOOTH",
"343 48 OFFCURVE",
"427 149 OFFCURVE",
"427 265 CURVE SMOOTH",
"427 365 OFFCURVE",
"361 452 OFFCURVE",
"278 452 CURVE SMOOTH"
);
}
);
userData = {
com.fontlab.hintData = {
hhints = (
{
position = 0;
width = 48;
},
{
position = 452;
width = 48;
}
);
vhints = (
{
position = 50;
width = 57;
},
{
position = 427;
width = 58;
}
);
};
};
width = 535;
}
);
unicode = 00F2;
},
{
glyphname = ohungarumlaut;
layers = (
{
layerId = master01;
paths = (
{
closed = 1;
nodes = (
"292 724 LINE",
"344 679 LINE",
"182 567 LINE",
"142 602 LINE"
);
},
{
closed = 1;
nodes = (
"452 724 LINE",
"505 679 LINE",
"343 567 LINE",
"302 602 LINE"
);
},
{
closed = 1;
nodes = (
"137 0 OFFCURVE",
"50 104 OFFCURVE",
"50 230 CURVE SMOOTH",
"50 376 OFFCURVE",
"157 500 OFFCURVE",
"283 500 CURVE SMOOTH",
"397 500 OFFCURVE",
"485 394 OFFCURVE",
"485 270 CURVE SMOOTH",
"485 123 OFFCURVE",
"378 0 OFFCURVE",
"252 0 CURVE SMOOTH"
);
},
{
closed = 1;
nodes = (
"185 452 OFFCURVE",
"107 349 OFFCURVE",
"107 232 CURVE SMOOTH",
"107 133 OFFCURVE",
"165 48 OFFCURVE",
"252 48 CURVE SMOOTH",
"343 48 OFFCURVE",
"427 149 OFFCURVE",
"427 265 CURVE SMOOTH",
"427 365 OFFCURVE",
"361 452 OFFCURVE",
"278 452 CURVE SMOOTH"
);
}
);
userData = {
com.fontlab.hintData = {
hhints = (
{
position = 0;
width = 48;
},
{
position = 452;
width = 48;
}
);
vhints = (
{
position = 50;
width = 57;
},
{
position = 427;
width = 58;
}
);
};
};
width = 555;
}
);
unicode = 0151;
},
{
glyphname = oslash;
layers = (
{
layerId = master01;
paths = (
{
closed = 1;
nodes = (
"459 409 OFFCURVE",
"485 338 OFFCURVE",
"485 270 CURVE SMOOTH",
"485 123 OFFCURVE",
"378 0 OFFCURVE",
"252 0 CURVE SMOOTH",
"219 0 OFFCURVE",
"187 9 OFFCURVE",
"158 25 CURVE",
"123 -35 LINE",
"79 -9 LINE",
"118 56 LINE",
"75 99 OFFCURVE",
"50 161 OFFCURVE",
"50 229 CURVE SMOOTH",
"50 375 OFFCURVE",
"156 500 OFFCURVE",
"283 500 CURVE SMOOTH",
"312 500 OFFCURVE",
"340 493 OFFCURVE",
"366 480 CURVE",
"403 545 LINE",
"447 519 LINE",
"408 451 LINE"
);
},
{
closed = 1;
nodes = (
"340 436 LINE",
"320 446 OFFCURVE",
"299 452 OFFCURVE",
"278 452 CURVE SMOOTH",
"184 452 OFFCURVE",
"107 348 OFFCURVE",
"107 230 CURVE SMOOTH",
"107 184 OFFCURVE",
"121 138 OFFCURVE",
"145 104 CURVE"
);
},
{
closed = 1;
nodes = (
"351 48 OFFCURVE",
"427 160 OFFCURVE",
"427 263 CURVE SMOOTH",
"427 315 OFFCURVE",
"409 367 OFFCURVE",
"379 402 CURVE",
"183 68 LINE",
"204 55 OFFCURVE",
"227 48 OFFCURVE",
"252 48 CURVE SMOOTH"
);
}
);
userData = {
com.fontlab.hintData = {
hhints = (
{
position = 0;
width = 48;
},
{
position = 452;
width = 48;
}
);
vhints = (
{
position = 50;
width = 57;
},
{
position = 427;
width = 58;
}
);
};
};
width = 535;
}
);
unicode = 00F8;
},
{
glyphname = otilde;
layers = (
{
layerId = master01;
paths = (
{
closed = 1;
nodes = (
"388 597 OFFCURVE",
"410 659 OFFCURVE",
"419 688 CURVE",
"468 672 LINE",
"453 607 OFFCURVE",
"406 556 OFFCURVE",
"355 556 CURVE SMOOTH",
"310 556 OFFCURVE",
"286 588 OFFCURVE",
"266 616 CURVE SMOOTH",
"247 642 OFFCURVE",
"236 664 OFFCURVE",
"219 664 CURVE SMOOTH",
"188 664 OFFCURVE",
"164 605 OFFCURVE",
"158 580 CURVE",
"109 598 LINE",
"125 648 OFFCURVE",
"158 705 OFFCURVE",
"219 705 CURVE SMOOTH",
"265 705 OFFCURVE",
"289 672 OFFCURVE",
"308 646 CURVE SMOOTH",
"327 620 OFFCURVE",
"338 597 OFFCURVE",
"355 597 CURVE SMOOTH"
);
},
{
closed = 1;
nodes = (
"137 0 OFFCURVE",
"50 104 OFFCURVE",
"50 230 CURVE SMOOTH",
"50 376 OFFCURVE",
"157 500 OFFCURVE",
"283 500 CURVE SMOOTH",
"397 500 OFFCURVE",
"485 394 OFFCURVE",
"485 270 CURVE SMOOTH",
"485 123 OFFCURVE",
"378 0 OFFCURVE",
"252 0 CURVE SMOOTH"
);
},
{
closed = 1;
nodes = (
"185 452 OFFCURVE",
"107 349 OFFCURVE",
"107 232 CURVE SMOOTH",
"107 133 OFFCURVE",
"165 48 OFFCURVE",
"252 48 CURVE SMOOTH",
"343 48 OFFCURVE",
"427 149 OFFCURVE",
"427 265 CURVE SMOOTH",
"427 365 OFFCURVE",
"361 452 OFFCURVE",
"278 452 CURVE SMOOTH"
);
}
);
userData = {
com.fontlab.hintData = {
hhints = (
{
position = 0;
width = 48;
},
{
position = 452;
width = 48;
},
{
position = 556;
width = 41;
},
{
position = 664;
width = 41;
}
);
vhints = (
{
position = 50;
width = 57;
},
{
position = 109;
width = 49;
},
{
position = 419;
width = 49;
},
{
position = 427;
width = 58;
}
);
};
};
width = 535;
}
);
unicode = 00F5;
},
{
glyphname = oe;
layers = (
{
layerId = master01;
paths = (
{
closed = 1;
nodes = (
"727 51 OFFCURVE",
"775 72 OFFCURVE",
"812 111 CURVE",
"849 76 LINE",
"803 27 OFFCURVE",
"741 0 OFFCURVE",
"676 0 CURVE SMOOTH",
"579 0 OFFCURVE",
"496 59 OFFCURVE",
"457 144 CURVE",
"417 59 OFFCURVE",
"339 0 OFFCURVE",
"252 0 CURVE SMOOTH",
"137 0 OFFCURVE",
"50 104 OFFCURVE",
"50 230 CURVE SMOOTH",
"50 376 OFFCURVE",
"157 500 OFFCURVE",
"283 500 CURVE SMOOTH",
"360 500 OFFCURVE",
"430 451 OFFCURVE",
"464 372 CURVE",
"505 448 OFFCURVE",
"584 502 OFFCURVE",
"676 502 CURVE SMOOTH",
"758 502 OFFCURVE",
"838 435 OFFCURVE",
"861 355 CURVE",
"861 355 OFFCURVE",
"613 218 OFFCURVE",
"507 159 CURVE",
"538 95 OFFCURVE",
"602 51 OFFCURVE",
"676 51 CURVE SMOOTH"
);
},
{
closed = 1;
nodes = (
"427 365 OFFCURVE",
"361 452 OFFCURVE",
"278 452 CURVE SMOOTH",
"185 452 OFFCURVE",
"107 349 OFFCURVE",
"107 232 CURVE SMOOTH",
"107 133 OFFCURVE",
"165 48 OFFCURVE",
"252 48 CURVE SMOOTH",
"341 48 OFFCURVE",
"427 150 OFFCURVE",
"427 265 CURVE SMOOTH"
);
},
{
closed = 1;
nodes = (
"485 236 OFFCURVE",
"487 222 OFFCURVE",
"490 208 CURVE",
"794 378 LINE",
"768 424 OFFCURVE",
"723 451 OFFCURVE",
"676 451 CURVE SMOOTH",
"570 451 OFFCURVE",
"485 361 OFFCURVE",
"485 251 CURVE SMOOTH"
);
}
);
userData = {
com.fontlab.hintData = {
hhints = (
{
position = 0;
width = 51;
},
{
position = 452;
width = 48;
}
);
vhints = (
{
position = 50;
width = 57;
},
{
position = 427;
width = 58;
}
);
};
};
width = 911;
}
);
unicode = 0153;
},
{
glyphname = p;
layers = (
{
layerId = master01;
paths = (
{
closed = 1;
nodes = (
"418 492 OFFCURVE",
"468 374 OFFCURVE",
"468 270 CURVE SMOOTH",
"468 138 OFFCURVE",
"410 7 OFFCURVE",
"253 7 CURVE SMOOTH",
"201 7 OFFCURVE",
"152 22 OFFCURVE",
"121 35 CURVE",
"121 -183 LINE",
"65 -193 LINE",
"65 488 LINE",
"121 499 LINE",
"121 428 LINE",
"162 465 OFFCURVE",
"220 496 OFFCURVE",
"308 496 CURVE"
);
},
{
closed = 1;
nodes = (
"375 63 OFFCURVE",
"419 159 OFFCURVE",
"419 270 CURVE SMOOTH",
"419 340 OFFCURVE",
"394 447 OFFCURVE",
"298 447 CURVE SMOOTH",
"195 447 OFFCURVE",
"138 385 OFFCURVE",
"121 360 CURVE",
"121 97 LINE",
"140 88 OFFCURVE",
"197 63 OFFCURVE",
"256 63 CURVE SMOOTH"
);
}
);
userData = {
com.fontlab.hintData = {
hhints = (
{
position = 7;
width = 56;
},
{
position = 447;
width = 49;
}
);
vhints = (
{
position = 65;
width = 56;
},
{
position = 419;
width = 49;
}
);
};
};
width = 518;
}
);
unicode = 0070;
},
{
glyphname = thorn;
layers = (
{
layerId = master01;
paths = (
{
closed = 1;
nodes = (
"436 489 OFFCURVE",
"478 371 OFFCURVE",
"478 267 CURVE SMOOTH",
"478 214 OFFCURVE",
"471 0 OFFCURVE",
"259 0 CURVE SMOOTH",
"207 0 OFFCURVE",
"152 15 OFFCURVE",
"121 28 CURVE",
"121 -185 LINE",
"65 -175 LINE",
"65 680 LINE",
"121 691 LINE",
"121 408 LINE",
"152 452 OFFCURVE",
"222 489 OFFCURVE",
"303 489 CURVE SMOOTH"
);
},
{
closed = 1;
nodes = (
"377 54 OFFCURVE",
"425 140 OFFCURVE",
"425 267 CURVE SMOOTH",
"425 328 OFFCURVE",
"401 433 OFFCURVE",
"307 433 CURVE SMOOTH",
"200 433 OFFCURVE",
"121 369 OFFCURVE",
"121 290 CURVE SMOOTH",
"121 81 LINE",
"139 72 OFFCURVE",
"194 54 OFFCURVE",
"251 54 CURVE SMOOTH"
);
}
);
userData = {
com.fontlab.hintData = {
hhints = (
{
position = 0;
width = 54;
},
{
position = 433;
width = 56;
}
);
vhints = (
{
position = 65;
width = 56;
},
{
position = 425;
width = 53;
}
);
};
};
width = 528;
}
);
unicode = 00FE;
},
{
glyphname = q;
layers = (
{
layerId = master01;
paths = (
{
closed = 1;
nodes = (
"403 510 LINE",
"458 508 LINE",
"434 -186 LINE",
"378 -196 LINE",
"387 59 LINE",
"360 12 OFFCURVE",
"328 -10 OFFCURVE",
"257 -10 CURVE SMOOTH",
"138 -10 OFFCURVE",
"50 87 OFFCURVE",
"50 210 CURVE SMOOTH",
"50 392 OFFCURVE",
"168 496 OFFCURVE",
"327 496 CURVE SMOOTH",
"350 496 OFFCURVE",
"376 494 OFFCURVE",
"402 490 CURVE"
);
},
{
closed = 1;
nodes = (
"401 438 LINE",
"379 442 OFFCURVE",
"349 445 OFFCURVE",
"327 445 CURVE SMOOTH",
"194 445 OFFCURVE",
"101 362 OFFCURVE",
"101 208 CURVE SMOOTH",
"101 110 OFFCURVE",
"168 42 OFFCURVE",
"256 42 CURVE SMOOTH",
"336 42 OFFCURVE",
"389 85 OFFCURVE",
"392 163 CURVE SMOOTH"
);
}
);
userData = {
com.fontlab.hintData = {
hhints = (
{
position = -196;
width = 21;
},
{
position = -10;
width = 52;
},
{
position = 445;
width = 51;
}
);
vhints = (
{
position = 50;
width = 51;
},
{
position = 378;
width = 56;
},
{
position = 401;
width = 57;
}
);
};
};
width = 523;
}
);
unicode = 0071;
},
{
glyphname = r;
layers = (
{
layerId = master01;
paths = (
{
closed = 1;
nodes = (
"375 389 LINE",
"320 379 LINE",
"320 412 LINE SMOOTH",
"320 433 OFFCURVE",
"316 447 OFFCURVE",
"286 447 CURVE SMOOTH",
"215 447 OFFCURVE",
"121 348 OFFCURVE",
"121 252 CURVE SMOOTH",
"121 10 LINE",
"65 0 LINE",
"65 492 LINE",
"121 502 LINE",
"121 376 LINE",
"152 430 OFFCURVE",
"211 502 OFFCURVE",
"293 502 CURVE SMOOTH",
"340 502 OFFCURVE",
"375 470 OFFCURVE",
"375 431 CURVE SMOOTH"
);
}
);
userData = {
com.fontlab.hintData = {
hhints = (
{
position = 0;
width = 21;
},
{
position = 447;
width = 55;
}
);
vhints = (
{
position = 65;
width = 56;
},
{
position = 320;
width = 55;
}
);
};
};
width = 401;
}
);
unicode = 0072;
},
{
glyphname = racute;
layers = (
{
layerId = master01;
paths = (
{
closed = 1;
nodes = (
"375 389 LINE",
"320 379 LINE",
"320 412 LINE SMOOTH",
"320 433 OFFCURVE",
"316 447 OFFCURVE",
"286 447 CURVE SMOOTH",
"215 447 OFFCURVE",
"121 348 OFFCURVE",
"121 252 CURVE SMOOTH",
"121 10 LINE",
"65 0 LINE",
"65 492 LINE",
"121 502 LINE",
"121 376 LINE",
"152 430 OFFCURVE",
"211 502 OFFCURVE",
"293 502 CURVE SMOOTH",
"340 502 OFFCURVE",
"375 470 OFFCURVE",
"375 431 CURVE SMOOTH"
);
},
{
closed = 1;
nodes = (
"283 724 LINE",
"335 679 LINE",
"173 567 LINE",
"133 602 LINE"
);
}
);
userData = {
com.fontlab.hintData = {
hhints = (
{
position = 0;
width = 21;
},
{
position = 447;
width = 55;
}
);
vhints = (
{
position = 65;
width = 56;
},
{
position = 320;
width = 55;
}
);
};
};
width = 401;
}
);
unicode = 0155;
},
{
glyphname = rcaron;
layers = (
{
layerId = master01;
paths = (
{
closed = 1;
nodes = (
"375 389 LINE",
"320 379 LINE",
"320 412 LINE SMOOTH",
"320 433 OFFCURVE",
"316 447 OFFCURVE",
"286 447 CURVE SMOOTH",
"215 447 OFFCURVE",
"121 348 OFFCURVE",
"121 252 CURVE SMOOTH",
"121 10 LINE",
"65 0 LINE",
"65 492 LINE",
"121 502 LINE",
"121 376 LINE",
"152 430 OFFCURVE",
"211 502 OFFCURVE",
"293 502 CURVE SMOOTH",
"340 502 OFFCURVE",
"375 470 OFFCURVE",
"375 431 CURVE SMOOTH"
);
},
{
closed = 1;
nodes = (
"376 669 LINE",
"225 549 LINE",
"96 671 LINE",
"132 711 LINE",
"228 623 LINE",
"343 712 LINE"
);
}
);
userData = {
com.fontlab.hintData = {
hhints = (
{
position = 0;
width = 21;
},
{
position = 447;
width = 55;
}
);
vhints = (
{
position = 65;
width = 56;
},
{
position = 320;
width = 55;
}
);
};
};
width = 402;
}
);
unicode = 0159;
},
{
glyphname = s;
layers = (
{
layerId = master01;
paths = (
{
closed = 1;
nodes = (
"311 505 OFFCURVE",
"407 486 OFFCURVE",
"407 397 CURVE SMOOTH",
"407 391 OFFCURVE",
"407 385 OFFCURVE",
"406 379 CURVE",
"357 369 LINE",
"358 374 OFFCURVE",
"358 379 OFFCURVE",
"358 384 CURVE SMOOTH",
"358 440 OFFCURVE",
"300 458 OFFCURVE",
"254 458 CURVE SMOOTH",
"160 457 OFFCURVE",
"135 419 OFFCURVE",
"135 373 CURVE SMOOTH",
"135 339 OFFCURVE",
"172 312 OFFCURVE",
"247 292 CURVE SMOOTH",
"356 262 OFFCURVE",
"409 214 OFFCURVE",
"409 145 CURVE SMOOTH",
"409 31 OFFCURVE",
"291 0 OFFCURVE",
"234 0 CURVE SMOOTH",
"151 0 OFFCURVE",
"72 44 OFFCURVE",
"50 121 CURVE",
"105 130 LINE",
"121 77 OFFCURVE",
"178 50 OFFCURVE",
"234 50 CURVE SMOOTH",
"297 50 OFFCURVE",
"353 88 OFFCURVE",
"353 144 CURVE SMOOTH",
"353 197 OFFCURVE",
"300 222 OFFCURVE",
"234 240 CURVE SMOOTH",
"161 259 OFFCURVE",
"78 299 OFFCURVE",
"78 376 CURVE SMOOTH",
"78 483 OFFCURVE",
"180 505 OFFCURVE",
"254 505 CURVE SMOOTH"
);
}
);
userData = {
com.fontlab.hintData = {
hhints = (
{
position = 0;
width = 50;
},
{
position = 458;
width = 47;
}
);
vhints = (
{
position = 50;
width = 55;
},
{
position = 78;
width = 57;
},
{
position = 353;
width = 56;
}
);
};
};
width = 460;
}
);
unicode = 0073;
},
{
glyphname = sacute;
layers = (
{
layerId = master01;
paths = (
{
closed = 1;
nodes = (
"311 505 OFFCURVE",
"407 486 OFFCURVE",
"407 397 CURVE SMOOTH",
"407 391 OFFCURVE",
"407 385 OFFCURVE",
"406 379 CURVE",
"357 369 LINE",
"358 374 OFFCURVE",
"358 379 OFFCURVE",
"358 384 CURVE SMOOTH",
"358 440 OFFCURVE",
"300 458 OFFCURVE",
"254 458 CURVE SMOOTH",
"160 457 OFFCURVE",
"135 419 OFFCURVE",
"135 373 CURVE SMOOTH",
"135 339 OFFCURVE",
"172 312 OFFCURVE",
"247 292 CURVE SMOOTH",
"356 262 OFFCURVE",
"409 214 OFFCURVE",
"409 145 CURVE SMOOTH",
"409 31 OFFCURVE",
"291 0 OFFCURVE",
"234 0 CURVE SMOOTH",
"151 0 OFFCURVE",
"72 44 OFFCURVE",
"50 121 CURVE",
"105 130 LINE",
"121 77 OFFCURVE",
"178 50 OFFCURVE",
"234 50 CURVE SMOOTH",
"297 50 OFFCURVE",
"353 88 OFFCURVE",
"353 144 CURVE SMOOTH",
"353 197 OFFCURVE",
"300 222 OFFCURVE",
"234 240 CURVE SMOOTH",
"161 259 OFFCURVE",
"78 299 OFFCURVE",
"78 376 CURVE SMOOTH",
"78 483 OFFCURVE",
"180 505 OFFCURVE",
"254 505 CURVE SMOOTH"
);
},
{
closed = 1;
nodes = (
"306 724 LINE",
"359 679 LINE",
"197 567 LINE",
"156 602 LINE"
);
}
);
userData = {
com.fontlab.hintData = {
hhints = (
{
position = 0;
width = 50;
},
{
position = 458;
width = 47;
}
);
vhints = (
{
position = 50;
width = 55;
},
{
position = 78;
width = 57;
},
{
position = 353;
width = 56;
}
);
};
};
width = 460;
}
);
unicode = 015B;
},
{
glyphname = scaron;
layers = (
{
layerId = master01;
paths = (
{
closed = 1;
nodes = (
"311 505 OFFCURVE",
"407 486 OFFCURVE",
"407 397 CURVE SMOOTH",
"407 391 OFFCURVE",
"407 385 OFFCURVE",
"406 379 CURVE",
"357 369 LINE",
"358 374 OFFCURVE",
"358 379 OFFCURVE",
"358 384 CURVE SMOOTH",
"358 440 OFFCURVE",
"300 458 OFFCURVE",
"254 458 CURVE SMOOTH",
"160 457 OFFCURVE",
"135 419 OFFCURVE",
"135 373 CURVE SMOOTH",
"135 339 OFFCURVE",
"172 312 OFFCURVE",
"247 292 CURVE SMOOTH",
"356 262 OFFCURVE",
"409 214 OFFCURVE",
"409 145 CURVE SMOOTH",
"409 31 OFFCURVE",
"291 0 OFFCURVE",
"234 0 CURVE SMOOTH",
"151 0 OFFCURVE",
"72 44 OFFCURVE",
"50 121 CURVE",
"105 130 LINE",
"121 77 OFFCURVE",
"178 50 OFFCURVE",
"234 50 CURVE SMOOTH",
"297 50 OFFCURVE",
"353 88 OFFCURVE",
"353 144 CURVE SMOOTH",
"353 197 OFFCURVE",
"300 222 OFFCURVE",
"234 240 CURVE SMOOTH",
"161 259 OFFCURVE",
"78 299 OFFCURVE",
"78 376 CURVE SMOOTH",
"78 483 OFFCURVE",
"180 505 OFFCURVE",
"254 505 CURVE SMOOTH"
);
},
{
closed = 1;
nodes = (
"391 669 LINE",
"240 549 LINE",
"111 671 LINE",
"147 711 LINE",
"243 623 LINE",
"358 712 LINE"
);
}
);
userData = {
com.fontlab.hintData = {
hhints = (
{
position = 0;
width = 50;
},
{
position = 458;
width = 47;
}
);
vhints = (
{
position = 50;
width = 55;
},
{
position = 78;
width = 57;
},
{
position = 353;
width = 56;
}
);
};
};
width = 460;
}
);
unicode = 0161;
},
{
glyphname = scedilla;
layers = (
{
layerId = master01;
paths = (
{
closed = 1;
nodes = (
"268 -159 OFFCURVE",
"290 -137 OFFCURVE",
"290 -110 CURVE SMOOTH",
"290 -83 OFFCURVE",
"268 -61 OFFCURVE",
"241 -61 CURVE SMOOTH",
"228 -61 OFFCURVE",
"214 -67 OFFCURVE",
"209 -72 CURVE",
"180 -42 LINE",
"196 3 LINE",
"128 14 OFFCURVE",
"68 55 OFFCURVE",
"50 121 CURVE",
"105 130 LINE",
"121 77 OFFCURVE",
"178 50 OFFCURVE",
"234 50 CURVE SMOOTH",
"297 50 OFFCURVE",
"353 88 OFFCURVE",
"353 144 CURVE SMOOTH",
"353 197 OFFCURVE",
"300 222 OFFCURVE",
"234 240 CURVE SMOOTH",
"161 259 OFFCURVE",
"78 299 OFFCURVE",
"78 376 CURVE SMOOTH",
"78 483 OFFCURVE",
"180 505 OFFCURVE",
"254 505 CURVE SMOOTH",
"311 505 OFFCURVE",
"407 486 OFFCURVE",
"407 397 CURVE SMOOTH",
"407 391 OFFCURVE",
"407 385 OFFCURVE",
"406 379 CURVE",
"357 369 LINE",
"358 374 OFFCURVE",
"358 379 OFFCURVE",
"358 384 CURVE SMOOTH",
"358 440 OFFCURVE",
"300 458 OFFCURVE",
"254 458 CURVE SMOOTH",
"160 457 OFFCURVE",
"135 419 OFFCURVE",
"135 373 CURVE SMOOTH",
"135 339 OFFCURVE",
"172 312 OFFCURVE",
"247 292 CURVE SMOOTH",
"356 262 OFFCURVE",
"409 214 OFFCURVE",
"409 145 CURVE SMOOTH",
"409 31 OFFCURVE",
"291 0 OFFCURVE",
"234 0 CURVE SMOOTH",
"231 0 LINE",
"230 -19 LINE",
"234 -19 LINE SMOOTH",
"290 -19 OFFCURVE",
"332 -55 OFFCURVE",
"332 -110 CURVE SMOOTH",
"332 -160 OFFCURVE",
"291 -201 OFFCURVE",
"241 -201 CURVE SMOOTH",
"212 -201 OFFCURVE",
"186 -188 OFFCURVE",
"169 -166 CURVE",
"199 -136 LINE",
"204 -149 OFFCURVE",
"225 -159 OFFCURVE",
"241 -159 CURVE SMOOTH"
);
}
);
userData = {
com.fontlab.hintData = {
hhints = (
{
position = -201;
width = 42;
},
{
position = -61;
width = 42;
},
{
position = 0;
width = 50;
},
{
position = 458;
width = 47;
}
);
vhints = (
{
position = 50;
width = 55;
},
{
position = 78;
width = 57;
},
{
position = 290;
width = 42;
},
{
position = 353;
width = 56;
}
);
};
};
width = 460;
}
);
unicode = 015F;
},
{
glyphname = scircumflex;
layers = (
{
layerId = master01;
paths = (
{
closed = 1;
nodes = (
"311 505 OFFCURVE",
"407 486 OFFCURVE",
"407 397 CURVE SMOOTH",
"407 391 OFFCURVE",
"407 385 OFFCURVE",
"406 379 CURVE",
"357 369 LINE",
"358 374 OFFCURVE",
"358 379 OFFCURVE",
"358 384 CURVE SMOOTH",
"358 440 OFFCURVE",
"300 458 OFFCURVE",
"254 458 CURVE SMOOTH",
"160 457 OFFCURVE",
"135 419 OFFCURVE",
"135 373 CURVE SMOOTH",
"135 339 OFFCURVE",
"172 312 OFFCURVE",
"247 292 CURVE SMOOTH",
"356 262 OFFCURVE",
"409 214 OFFCURVE",
"409 145 CURVE SMOOTH",
"409 31 OFFCURVE",
"291 0 OFFCURVE",
"234 0 CURVE SMOOTH",
"151 0 OFFCURVE",
"72 44 OFFCURVE",
"50 121 CURVE",
"105 130 LINE",
"121 77 OFFCURVE",
"178 50 OFFCURVE",
"234 50 CURVE SMOOTH",
"297 50 OFFCURVE",
"353 88 OFFCURVE",
"353 144 CURVE SMOOTH",
"353 197 OFFCURVE",
"300 222 OFFCURVE",
"234 240 CURVE SMOOTH",
"161 259 OFFCURVE",
"78 299 OFFCURVE",
"78 376 CURVE SMOOTH",
"78 483 OFFCURVE",
"180 505 OFFCURVE",
"254 505 CURVE SMOOTH"
);
},
{
closed = 1;
nodes = (
"111 591 LINE",
"262 712 LINE",
"391 590 LINE",
"355 550 LINE",
"259 637 LINE",
"144 549 LINE"
);
}
);
userData = {
com.fontlab.hintData = {
hhints = (
{
position = 0;
width = 50;
},
{
position = 458;
width = 47;
}
);
vhints = (
{
position = 50;
width = 55;
},
{
position = 78;
width = 57;
},
{
position = 353;
width = 56;
}
);
};
};
width = 460;
}
);
unicode = 015D;
},
{
glyphname = germandbls;
layers = (
{
layerId = master01;
paths = (
{
closed = 1;
nodes = (
"419 335 OFFCURVE",
"475 263 OFFCURVE",
"475 175 CURVE SMOOTH",
"475 68 OFFCURVE",
"387 -24 OFFCURVE",
"278 -24 CURVE SMOOTH",
"245 -24 OFFCURVE",
"214 -16 OFFCURVE",
"166 10 CURVE",
"190 56 LINE",
"230 34 OFFCURVE",
"254 28 OFFCURVE",
"278 28 CURVE SMOOTH",
"356 28 OFFCURVE",
"423 94 OFFCURVE",
"423 174 CURVE SMOOTH",
"423 246 OFFCURVE",
"366 320 OFFCURVE",
"281 320 CURVE SMOOTH",
"273 320 OFFCURVE",
"265 319 OFFCURVE",
"204 310 CURVE",
"220 364 LINE",
"312 377 OFFCURVE",
"338 429 OFFCURVE",
"338 477 CURVE SMOOTH",
"338 538 OFFCURVE",
"289 588 OFFCURVE",
"228 588 CURVE SMOOTH",
"167 588 OFFCURVE",
"117 538 OFFCURVE",
"117 477 CURVE SMOOTH",
"117 26 LINE",
"65 0 LINE",
"65 477 LINE SMOOTH",
"65 567 OFFCURVE",
"138 640 OFFCURVE",
"228 640 CURVE SMOOTH",
"317 640 OFFCURVE",
"390 567 OFFCURVE",
"390 477 CURVE SMOOTH",
"390 433 OFFCURVE",
"371 392 OFFCURVE",
"341 361 CURVE"
);
}
);
userData = {
com.fontlab.hintData = {
hhints = (
{
position = -24;
width = 52;
},
{
position = 0;
width = 21;
},
{
position = 310;
width = 54;
},
{
position = 588;
width = 52;
}
);
vhints = (
{
position = 65;
width = 52;
},
{
position = 338;
width = 52;
},
{
position = 423;
width = 52;
}
);
};
};
width = 525;
}
);
unicode = 00DF;
},
{
glyphname = t;
layers = (
{
layerId = master01;
paths = (
{
closed = 1;
nodes = (
"353 446 LINE",
"215 446 LINE",
"215 10 LINE",
"158 0 LINE",
"158 446 LINE",
"20 446 LINE",
"20 502 LINE",
"158 502 LINE",
"158 661 LINE",
"215 671 LINE",
"215 502 LINE",
"353 502 LINE"
);
}
);
userData = {
com.fontlab.hintData = {
hhints = (
{
position = 0;
width = 21;
},
{
position = 446;
width = 56;
}
);
vhints = (
{
position = 158;
width = 57;
}
);
};
};
width = 373;
}
);
unicode = 0074;
},
{
glyphname = tcaron;
layers = (
{
layerId = master01;
paths = (
{
closed = 1;
nodes = (
"409 698 LINE",
"316 532 LINE",
"267 560 LINE",
"321 656 LINE",
"282 678 LINE",
"339 737 LINE"
);
},
{
closed = 1;
nodes = (
"353 446 LINE",
"215 446 LINE",
"215 10 LINE",
"158 0 LINE",
"158 446 LINE",
"20 446 LINE",
"20 502 LINE",
"158 502 LINE",
"158 661 LINE",
"215 671 LINE",
"215 502 LINE",
"353 502 LINE"
);
}
);
userData = {
com.fontlab.hintData = {
hhints = (
{
position = 0;
width = 21;
},
{
position = 446;
width = 56;
}
);
vhints = (
{
position = 158;
width = 57;
}
);
};
};
width = 429;
}
);
unicode = 0165;
},
{
glyphname = u;
layers = (
{
layerId = master01;
paths = (
{
closed = 1;
nodes = (
"121 168 OFFCURVE",
"117 43 OFFCURVE",
"219 43 CURVE SMOOTH",
"288 43 OFFCURVE",
"359 92 OFFCURVE",
"380 116 CURVE SMOOTH",
"387 124 OFFCURVE",
"393 138 OFFCURVE",
"393 159 CURVE SMOOTH",
"398 494 LINE",
"451 504 LINE",
"451 10 LINE",
"389 0 LINE",
"389 74 LINE",
"364 36 OFFCURVE",
"296 -6 OFFCURVE",
"218 -6 CURVE SMOOTH",
"66.974 -6 OFFCURVE",
"66 143.077 OFFCURVE",
"66 283.498 CURVE SMOOTH",
"66 285.334 OFFCURVE",
"66 287.168 OFFCURVE",
"66 289 CURVE SMOOTH",
"66 334 OFFCURVE",
"70 426 OFFCURVE",
"82 494 CURVE",
"137 504 LINE",
"134 488 OFFCURVE",
"120 374 OFFCURVE",
"120 289 CURVE SMOOTH"
);
}
);
userData = {
com.fontlab.hintData = {
hhints = (
{
position = -6;
width = 49;
},
{
position = 0;
width = 21;
},
{
position = 484;
width = 20;
}
);
vhints = (
{
position = 66;
width = 54;
},
{
position = 393;
width = 58;
}
);
};
};
width = 516;
}
);
unicode = 0075;
},
{
glyphname = uacute;
layers = (
{
layerId = master01;
paths = (
{
closed = 1;
nodes = (
"121 168 OFFCURVE",
"117 43 OFFCURVE",
"219 43 CURVE SMOOTH",
"288 43 OFFCURVE",
"359 92 OFFCURVE",
"380 116 CURVE SMOOTH",
"387 124 OFFCURVE",
"393 138 OFFCURVE",
"393 159 CURVE SMOOTH",
"398 494 LINE",
"451 504 LINE",
"451 10 LINE",
"389 0 LINE",
"389 74 LINE",
"364 36 OFFCURVE",
"296 -6 OFFCURVE",
"218 -6 CURVE SMOOTH",
"66.974 -6 OFFCURVE",
"66 143.077 OFFCURVE",
"66 283.498 CURVE SMOOTH",
"66 285.334 OFFCURVE",
"66 287.168 OFFCURVE",
"66 289 CURVE SMOOTH",
"66 334 OFFCURVE",
"70 426 OFFCURVE",
"82 494 CURVE",
"137 504 LINE",
"134 488 OFFCURVE",
"120 374 OFFCURVE",
"120 289 CURVE SMOOTH"
);
},
{
closed = 1;
nodes = (
"334 724 LINE",
"386 679 LINE",
"224 567 LINE",
"184 602 LINE"
);
}
);
userData = {
com.fontlab.hintData = {
hhints = (
{
position = -6;
width = 49;
},
{
position = 0;
width = 21;
},
{
position = 484;
width = 20;
}
);
vhints = (
{
position = 66;
width = 54;
},
{
position = 393;
width = 58;
}
);
};
};
width = 516;
}
);
unicode = 00FA;
},
{
glyphname = ubreve;
layers = (
{
layerId = master01;
paths = (
{
closed = 1;
nodes = (
"121 168 OFFCURVE",
"117 43 OFFCURVE",
"219 43 CURVE SMOOTH",
"288 43 OFFCURVE",
"359 92 OFFCURVE",
"380 116 CURVE SMOOTH",
"387 124 OFFCURVE",
"393 138 OFFCURVE",
"393 159 CURVE SMOOTH",
"398 494 LINE",
"451 504 LINE",
"451 10 LINE",
"389 0 LINE",
"389 74 LINE",
"364 36 OFFCURVE",
"296 -6 OFFCURVE",
"218 -6 CURVE SMOOTH",
"66.974 -6 OFFCURVE",
"66 143.077 OFFCURVE",
"66 283.498 CURVE SMOOTH",
"66 285.334 OFFCURVE",
"66 287.168 OFFCURVE",
"66 289 CURVE SMOOTH",
"66 334 OFFCURVE",
"70 426 OFFCURVE",
"82 494 CURVE",
"137 504 LINE",
"134 488 OFFCURVE",
"120 374 OFFCURVE",
"120 289 CURVE SMOOTH"
);
},
{
closed = 1;
nodes = (
"341 605 OFFCURVE",
"370 634 OFFCURVE",
"388 683 CURVE",
"419 652 LINE",
"400 597 OFFCURVE",
"340 559 OFFCURVE",
"277 559 CURVE SMOOTH",
"207 559 OFFCURVE",
"149 595 OFFCURVE",
"125 648 CURVE",
"155 678 LINE",
"189 617 OFFCURVE",
"241 605 OFFCURVE",
"278 605 CURVE SMOOTH"
);
}
);
userData = {
com.fontlab.hintData = {
hhints = (
{
position = -6;
width = 49;
},
{
position = 0;
width = 21;
},
{
position = 484;
width = 20;
},
{
position = 559;
width = 46;
},
{
position = 663;
width = 20;
}
);
vhints = (
{
position = 66;
width = 54;
},
{
position = 393;
width = 58;
}
);
};
};
width = 516;
}
);
unicode = 016D;
},
{
glyphname = ucircumflex;
layers = (
{
layerId = master01;
paths = (
{
closed = 1;
nodes = (
"121 168 OFFCURVE",
"117 43 OFFCURVE",
"219 43 CURVE SMOOTH",
"288 43 OFFCURVE",
"359 92 OFFCURVE",
"380 116 CURVE SMOOTH",
"387 124 OFFCURVE",
"393 138 OFFCURVE",
"393 159 CURVE SMOOTH",
"398 494 LINE",
"451 504 LINE",
"451 10 LINE",
"389 0 LINE",
"389 74 LINE",
"364 36 OFFCURVE",
"296 -6 OFFCURVE",
"218 -6 CURVE SMOOTH",
"66.974 -6 OFFCURVE",
"66 143.077 OFFCURVE",
"66 283.498 CURVE SMOOTH",
"66 285.334 OFFCURVE",
"66 287.168 OFFCURVE",
"66 289 CURVE SMOOTH",
"66 334 OFFCURVE",
"70 426 OFFCURVE",
"82 494 CURVE",
"137 504 LINE",
"134 488 OFFCURVE",
"120 374 OFFCURVE",
"120 289 CURVE SMOOTH"
);
},
{
closed = 1;
nodes = (
"133 591 LINE",
"284 712 LINE",
"413 590 LINE",
"377 550 LINE",
"281 637 LINE",
"166 549 LINE"
);
}
);
userData = {
com.fontlab.hintData = {
hhints = (
{
position = -6;
width = 49;
},
{
position = 0;
width = 21;
},
{
position = 484;
width = 20;
}
);
vhints = (
{
position = 66;
width = 54;
},
{
position = 393;
width = 58;
}
);
};
};
width = 516;
}
);
unicode = 00FB;
},
{
glyphname = udieresis;
layers = (
{
layerId = master01;
paths = (
{
closed = 1;
nodes = (
"121 168 OFFCURVE",
"117 43 OFFCURVE",
"219 43 CURVE SMOOTH",
"288 43 OFFCURVE",
"359 92 OFFCURVE",
"380 116 CURVE SMOOTH",
"387 124 OFFCURVE",
"393 138 OFFCURVE",
"393 159 CURVE SMOOTH",
"398 494 LINE",
"451 504 LINE",
"451 10 LINE",
"389 0 LINE",
"389 74 LINE",
"364 36 OFFCURVE",
"296 -6 OFFCURVE",
"218 -6 CURVE SMOOTH",
"66.974 -6 OFFCURVE",
"66 143.077 OFFCURVE",
"66 283.498 CURVE SMOOTH",
"66 285.334 OFFCURVE",
"66 287.168 OFFCURVE",
"66 289 CURVE SMOOTH",
"66 334 OFFCURVE",
"70 426 OFFCURVE",
"82 494 CURVE",
"137 504 LINE",
"134 488 OFFCURVE",
"120 374 OFFCURVE",
"120 289 CURVE SMOOTH"
);
},
{
closed = 1;
nodes = (
"225 581 LINE",
"151 571 LINE",
"160 653 LINE",
"233 663 LINE"
);
},
{
closed = 1;
nodes = (
"386 581 LINE",
"312 571 LINE",
"321 653 LINE",
"394 663 LINE"
);
}
);
userData = {
com.fontlab.hintData = {
hhints = (
{
position = -6;
width = 49;
},
{
position = 0;
width = 21;
},
{
position = 484;
width = 20;
}
);
vhints = (
{
position = 66;
width = 54;
},
{
position = 393;
width = 58;
}
);
};
};
width = 516;
}
);
unicode = 00FC;
},
{
glyphname = ugrave;
layers = (
{
layerId = master01;
paths = (
{
closed = 1;
nodes = (
"307 557 LINE",
"167 697 LINE",
"227 731 LINE",
"353 585 LINE"
);
},
{
closed = 1;
nodes = (
"121 168 OFFCURVE",
"117 43 OFFCURVE",
"219 43 CURVE SMOOTH",
"288 43 OFFCURVE",
"359 92 OFFCURVE",
"380 116 CURVE SMOOTH",
"387 124 OFFCURVE",
"393 138 OFFCURVE",
"393 159 CURVE SMOOTH",
"398 494 LINE",
"451 504 LINE",
"451 10 LINE",
"389 0 LINE",
"389 74 LINE",
"364 36 OFFCURVE",
"296 -6 OFFCURVE",
"218 -6 CURVE SMOOTH",
"66.974 -6 OFFCURVE",
"66 143.077 OFFCURVE",
"66 283.498 CURVE SMOOTH",
"66 285.334 OFFCURVE",
"66 287.168 OFFCURVE",
"66 289 CURVE SMOOTH",
"66 334 OFFCURVE",
"70 426 OFFCURVE",
"82 494 CURVE",
"137 504 LINE",
"134 488 OFFCURVE",
"120 374 OFFCURVE",
"120 289 CURVE SMOOTH"
);
}
);
userData = {
com.fontlab.hintData = {
hhints = (
{
position = -6;
width = 49;
},
{
position = 0;
width = 21;
},
{
position = 484;
width = 20;
}
);
vhints = (
{
position = 66;
width = 54;
},
{
position = 393;
width = 58;
}
);
};
};
width = 516;
}
);
unicode = 00F9;
},
{
glyphname = uhungarumlaut;
layers = (
{
layerId = master01;
paths = (
{
closed = 1;
nodes = (
"121 168 OFFCURVE",
"117 43 OFFCURVE",
"219 43 CURVE SMOOTH",
"288 43 OFFCURVE",
"359 92 OFFCURVE",
"380 116 CURVE SMOOTH",
"387 124 OFFCURVE",
"393 138 OFFCURVE",
"393 159 CURVE SMOOTH",
"398 494 LINE",
"451 504 LINE",
"451 10 LINE",
"389 0 LINE",
"389 74 LINE",
"364 36 OFFCURVE",
"296 -6 OFFCURVE",
"218 -6 CURVE SMOOTH",
"66.974 -6 OFFCURVE",
"66 143.077 OFFCURVE",
"66 283.498 CURVE SMOOTH",
"66 285.334 OFFCURVE",
"66 287.168 OFFCURVE",
"66 289 CURVE SMOOTH",
"66 334 OFFCURVE",
"70 426 OFFCURVE",
"82 494 CURVE",
"137 504 LINE",
"134 488 OFFCURVE",
"120 374 OFFCURVE",
"120 289 CURVE SMOOTH"
);
},
{
closed = 1;
nodes = (
"420 724 LINE",
"473 679 LINE",
"311 567 LINE",
"270 602 LINE"
);
},
{
closed = 1;
nodes = (
"260 724 LINE",
"312 679 LINE",
"150 567 LINE",
"110 602 LINE"
);
}
);
userData = {
com.fontlab.hintData = {
hhints = (
{
position = -6;
width = 49;
},
{
position = 0;
width = 21;
},
{
position = 484;
width = 20;
}
);
vhints = (
{
position = 66;
width = 54;
},
{
position = 393;
width = 58;
}
);
};
};
width = 538;
}
);
unicode = 0171;
},
{
glyphname = uni0163;
layers = (
{
layerId = master01;
paths = (
{
closed = 1;
nodes = (
"353 446 LINE",
"215 446 LINE",
"215 10 LINE",
"158 0 LINE",
"158 446 LINE",
"20 446 LINE",
"20 502 LINE",
"158 502 LINE",
"158 661 LINE",
"215 671 LINE",
"215 502 LINE",
"353 502 LINE"
);
},
{
closed = 1;
nodes = (
"259 -58 LINE",
"166 -224 LINE",
"117 -196 LINE",
"171 -100 LINE",
"132 -78 LINE",
"189 -19 LINE"
);
}
);
userData = {
com.fontlab.hintData = {
hhints = (
{
position = 0;
width = 21;
},
{
position = 446;
width = 56;
}
);
vhints = (
{
position = 158;
width = 57;
}
);
};
};
width = 373;
}
);
unicode = 0163;
},
{
glyphname = uring;
layers = (
{
layerId = master01;
paths = (
{
closed = 1;
nodes = (
"201 563 OFFCURVE",
"156 615 OFFCURVE",
"156 666 CURVE SMOOTH",
"156 729 OFFCURVE",
"218 778 OFFCURVE",
"279 782 CURVE",
"344 782 OFFCURVE",
"405 747 OFFCURVE",
"405 680 CURVE SMOOTH",
"405 610 OFFCURVE",
"337 563 OFFCURVE",
"270 563 CURVE SMOOTH"
);
},
{
closed = 1;
nodes = (
"237 736 OFFCURVE",
"198 697 OFFCURVE",
"198 666 CURVE SMOOTH",
"198 628 OFFCURVE",
"238 610 OFFCURVE",
"272 610 CURVE SMOOTH",
"307 610 OFFCURVE",
"363 632 OFFCURVE",
"363 677 CURVE SMOOTH",
"363 711 OFFCURVE",
"326 736 OFFCURVE",
"288 736 CURVE SMOOTH"
);
},
{
closed = 1;
nodes = (
"120 168 OFFCURVE",
"116 43 OFFCURVE",
"218 43 CURVE SMOOTH",
"287 43 OFFCURVE",
"358 92 OFFCURVE",
"379 116 CURVE SMOOTH",
"386 124 OFFCURVE",
"392 138 OFFCURVE",
"392 159 CURVE SMOOTH",
"397 494 LINE",
"450 504 LINE",
"450 10 LINE",
"388 0 LINE",
"388 74 LINE",
"363 36 OFFCURVE",
"295 -6 OFFCURVE",
"217 -6 CURVE SMOOTH",
"66 -6 OFFCURVE",
"65 143 OFFCURVE",
"65 283 CURVE SMOOTH",
"65 326 OFFCURVE",
"68 423 OFFCURVE",
"81 494 CURVE",
"136 504 LINE",
"133 488 OFFCURVE",
"119 374 OFFCURVE",
"119 289 CURVE SMOOTH"
);
}
);
userData = {
com.fontlab.hintData = {
hhints = (
{
position = -6;
width = 49;
},
{
position = 0;
width = 21;
},
{
position = 484;
width = 20;
},
{
position = 563;
width = 47;
},
{
position = 736;
width = 46;
}
);
vhints = (
{
position = 65;
width = 54;
},
{
position = 156;
width = 42;
},
{
position = 363;
width = 42;
},
{
position = 392;
width = 58;
}
);
};
};
width = 515;
}
);
unicode = 016F;
},
{
glyphname = v;
layers = (
{
layerId = master01;
paths = (
{
closed = 1;
nodes = (
"255 12 LINE",
"197 0 LINE",
"10 479 LINE",
"63 500 LINE",
"223 77 LINE",
"385 500 LINE",
"437 480 LINE"
);
}
);
userData = {
com.fontlab.hintData = {
hhints = (
{
position = 0;
width = 21;
}
);
};
};
width = 447;
}
);
unicode = 0076;
},
{
glyphname = w;
layers = (
{
layerId = master01;
paths = (
{
closed = 1;
nodes = (
"481 12 LINE",
"423 0 LINE",
"330 388 LINE",
"198 12 LINE",
"138 0 LINE",
"40 485 LINE",
"94 497 LINE",
"174 91 LINE",
"305 485 LINE",
"361 495 LINE",
"454 88 LINE",
"572 485 LINE",
"633 496 LINE"
);
}
);
userData = {
com.fontlab.hintData = {
hhints = (
{
position = 0;
width = 21;
}
);
};
};
width = 653;
}
);
unicode = 0077;
},
{
glyphname = x;
layers = (
{
layerId = master01;
paths = (
{
closed = 1;
nodes = (
"383 -4 LINE",
"231 213 LINE",
"51 -4 LINE",
"9 32 LINE",
"199 259 LINE",
"51 472 LINE",
"95 504 LINE",
"234 302 LINE",
"403 504 LINE",
"444 468 LINE",
"268 257 LINE",
"428 28 LINE"
);
}
);
userData = {
com.fontlab.hintData = {
hhints = (
{
position = 484;
width = 20;
}
);
};
};
width = 471;
}
);
unicode = 0078;
},
{
glyphname = y;
layers = (
{
layerId = master01;
paths = (
{
closed = 1;
nodes = (
"480 476 LINE",
"168 -197 LINE",
"117 -173 LINE",
"226 61 LINE",
"20 474 LINE",
"70 499 LINE",
"256 127 LINE",
"429 500 LINE"
);
}
);
userData = {
com.fontlab.hintData = {
hhints = (
{
position = -197;
width = 21;
}
);
};
};
width = 500;
}
);
unicode = 0079;
},
{
glyphname = yacute;
layers = (
{
layerId = master01;
paths = (
{
closed = 1;
nodes = (
"480 475 LINE",
"168 -198 LINE",
"117 -174 LINE",
"226 60 LINE",
"20 473 LINE",
"70 498 LINE",
"256 126 LINE",
"429 499 LINE"
);
},
{
closed = 1;
nodes = (
"310 724 LINE",
"363 679 LINE",
"201 567 LINE",
"160 602 LINE"
);
}
);
width = 500;
}
);
unicode = 00FD;
},
{
glyphname = ydieresis;
layers = (
{
layerId = master01;
paths = (
{
closed = 1;
nodes = (
"480 476 LINE",
"168 -197 LINE",
"117 -173 LINE",
"226 61 LINE",
"20 474 LINE",
"70 499 LINE",
"256 127 LINE",
"429 500 LINE"
);
},
{
closed = 1;
nodes = (
"209 581 LINE",
"135 571 LINE",
"144 653 LINE",
"217 663 LINE"
);
},
{
closed = 1;
nodes = (
"369 581 LINE",
"295 571 LINE",
"304 653 LINE",
"377 663 LINE"
);
}
);
userData = {
com.fontlab.hintData = {
hhints = (
{
position = -197;
width = 21;
}
);
};
};
width = 500;
}
);
unicode = 00FF;
},
{
glyphname = z;
layers = (
{
layerId = master01;
paths = (
{
closed = 1;
nodes = (
"52 0 LINE",
"30 46 LINE",
"348 446 LINE",
"52 446 LINE",
"62 502 LINE",
"401 502 LINE",
"423 457 LINE",
"105 56 LINE",
"416 56 LINE",
"406 0 LINE"
);
}
);
userData = {
com.fontlab.hintData = {
hhints = (
{
position = 0;
width = 56;
},
{
position = 446;
width = 56;
}
);
};
};
width = 453;
}
);
unicode = 007A;
},
{
glyphname = zacute;
layers = (
{
layerId = master01;
paths = (
{
closed = 1;
nodes = (
"52 0 LINE",
"30 46 LINE",
"348 446 LINE",
"52 446 LINE",
"62 502 LINE",
"401 502 LINE",
"423 457 LINE",
"105 56 LINE",
"416 56 LINE",
"406 0 LINE"
);
},
{
closed = 1;
nodes = (
"288 724 LINE",
"341 679 LINE",
"178 567 LINE",
"138 602 LINE"
);
}
);
userData = {
com.fontlab.hintData = {
hhints = (
{
position = 0;
width = 56;
},
{
position = 446;
width = 56;
}
);
};
};
width = 453;
}
);
unicode = 017A;
},
{
glyphname = zcaron;
layers = (
{
layerId = master01;
paths = (
{
closed = 1;
nodes = (
"52 0 LINE",
"30 46 LINE",
"348 446 LINE",
"52 446 LINE",
"62 502 LINE",
"401 502 LINE",
"423 457 LINE",
"105 56 LINE",
"416 56 LINE",
"406 0 LINE"
);
},
{
closed = 1;
nodes = (
"385 669 LINE",
"235 549 LINE",
"106 671 LINE",
"142 711 LINE",
"238 623 LINE",
"352 712 LINE"
);
}
);
userData = {
com.fontlab.hintData = {
hhints = (
{
position = 0;
width = 56;
},
{
position = 446;
width = 56;
}
);
};
};
width = 453;
}
);
unicode = 017E;
},
{
glyphname = zdotaccent;
layers = (
{
layerId = master01;
paths = (
{
closed = 1;
nodes = (
"52 0 LINE",
"30 46 LINE",
"348 446 LINE",
"52 446 LINE",
"62 502 LINE",
"401 502 LINE",
"423 457 LINE",
"105 56 LINE",
"416 56 LINE",
"406 0 LINE"
);
},
{
closed = 1;
nodes = (
"273 581 LINE",
"199 571 LINE",
"208 653 LINE",
"281 663 LINE"
);
}
);
userData = {
com.fontlab.hintData = {
hhints = (
{
position = 0;
width = 56;
},
{
position = 446;
width = 56;
}
);
};
};
width = 453;
}
);
unicode = 017C;
},
{
glyphname = ordfeminine;
layers = (
{
layerId = master01;
paths = (
{
closed = 1;
nodes = (
"249 362 LINE",
"199 352 LINE",
"199 380 LINE",
"171 365 OFFCURVE",
"145 358 OFFCURVE",
"121 358 CURVE SMOOTH",
"50 358 OFFCURVE",
"0 416 OFFCURVE",
"0 495 CURVE SMOOTH",
"0 590 OFFCURVE",
"60 677 OFFCURVE",
"150 677 CURVE SMOOTH",
"174 677 OFFCURVE",
"217 669 OFFCURVE",
"248 649 CURVE"
);
},
{
closed = 1;
nodes = (
"69 628 OFFCURVE",
"50 527 OFFCURVE",
"50 496 CURVE SMOOTH",
"50 442 OFFCURVE",
"78 407 OFFCURVE",
"119 407 CURVE SMOOTH",
"151 407 OFFCURVE",
"185 428 OFFCURVE",
"198 438 CURVE",
"201 618 LINE",
"181 624 OFFCURVE",
"172 628 OFFCURVE",
"150 628 CURVE SMOOTH"
);
}
);
userData = {
com.fontlab.hintData = {
hhints = (
{
position = 358;
width = 49;
},
{
position = 628;
width = 49;
}
);
vhints = (
{
position = 0;
width = 50;
},
{
position = 199;
width = 50;
}
);
};
};
width = 250;
}
);
unicode = 00AA;
},
{
glyphname = ordmasculine;
layers = (
{
layerId = master01;
paths = (
{
closed = 1;
nodes = (
"53 356 OFFCURVE",
"0 426 OFFCURVE",
"0 505 CURVE SMOOTH",
"0 601 OFFCURVE",
"68 681 OFFCURVE",
"152 681 CURVE SMOOTH",
"226 681 OFFCURVE",
"284 611 OFFCURVE",
"284 531 CURVE SMOOTH",
"284 437 OFFCURVE",
"215 356 OFFCURVE",
"133 356 CURVE SMOOTH"
);
},
{
closed = 1;
nodes = (
"97 634 OFFCURVE",
"52 575 OFFCURVE",
"52 505 CURVE SMOOTH",
"52 447 OFFCURVE",
"87 402 OFFCURVE",
"133 402 CURVE SMOOTH",
"184 402 OFFCURVE",
"232 460 OFFCURVE",
"232 527 CURVE SMOOTH",
"232 579 OFFCURVE",
"198 634 OFFCURVE",
"149 634 CURVE SMOOTH"
);
}
);
userData = {
com.fontlab.hintData = {
hhints = (
{
position = 356;
width = 46;
},
{
position = 634;
width = 47;
}
);
vhints = (
{
position = 0;
width = 52;
},
{
position = 232;
width = 52;
}
);
};
};
width = 285;
}
);
unicode = 00BA;
},
{
glyphname = zero;
layers = (
{
layerId = master01;
paths = (
{
closed = 1;
nodes = (
"164 -3 OFFCURVE",
"69 150 OFFCURVE",
"69 324 CURVE SMOOTH",
"69 515 OFFCURVE",
"179 686 OFFCURVE",
"319 686 CURVE SMOOTH",
"451 686 OFFCURVE",
"545 534 OFFCURVE",
"545 358 CURVE SMOOTH",
"545 164 OFFCURVE",
"433 -3 OFFCURVE",
"296 -3 CURVE SMOOTH"
);
},
{
closed = 1;
nodes = (
"214 631 OFFCURVE",
"123 493 OFFCURVE",
"123 326 CURVE SMOOTH",
"123 183 OFFCURVE",
"194 52 OFFCURVE",
"296 52 CURVE SMOOTH",
"400 52 OFFCURVE",
"492 190 OFFCURVE",
"492 356 CURVE SMOOTH",
"492 501 OFFCURVE",
"418 631 OFFCURVE",
"319 631 CURVE SMOOTH"
);
}
);
userData = {
com.fontlab.hintData = {
hhints = (
{
position = -3;
width = 55;
},
{
position = 631;
width = 55;
}
);
vhints = (
{
position = 69;
width = 54;
},
{
position = 492;
width = 53;
}
);
};
};
width = 614;
}
);
unicode = 0030;
},
{
glyphname = one;
layers = (
{
layerId = master01;
paths = (
{
closed = 1;
nodes = (
"348 54 LINE",
"338 0 LINE",
"75 0 LINE",
"85 54 LINE",
"196 54 LINE",
"205 559 LINE",
"97 462 LINE",
"61 502 LINE",
"260 681 LINE",
"250 54 LINE"
);
}
);
userData = {
com.fontlab.hintData = {
hhints = (
{
position = 0;
width = 54;
},
{
position = 661;
width = 20;
}
);
vhints = (
{
position = 196;
width = 54;
},
{
position = 205;
width = 55;
}
);
};
};
width = 414;
}
);
unicode = 0031;
},
{
glyphname = two;
layers = (
{
layerId = master01;
paths = (
{
closed = 1;
nodes = (
"463 54 LINE",
"453 0 LINE",
"65 0 LINE",
"65 27 LINE SMOOTH",
"65 182 OFFCURVE",
"125 241 OFFCURVE",
"237 317 CURVE SMOOTH",
"351 393 OFFCURVE",
"399 450 OFFCURVE",
"399 510 CURVE SMOOTH",
"399 591 OFFCURVE",
"319 620 OFFCURVE",
"265 620 CURVE SMOOTH",
"167 620 OFFCURVE",
"108 537 OFFCURVE",
"100 524 CURVE",
"63 566 LINE",
"88 599 OFFCURVE",
"156 674 OFFCURVE",
"265 674 CURVE SMOOTH",
"410 674 OFFCURVE",
"453 576 OFFCURVE",
"453 510 CURVE SMOOTH",
"453 410 OFFCURVE",
"359 333 OFFCURVE",
"267 272 CURVE SMOOTH",
"173 209 OFFCURVE",
"126 167 OFFCURVE",
"119 54 CURVE"
);
}
);
userData = {
com.fontlab.hintData = {
hhints = (
{
position = 0;
width = 54;
},
{
position = 620;
width = 54;
}
);
vhints = (
{
position = 399;
width = 54;
}
);
};
};
width = 524;
}
);
unicode = 0032;
},
{
glyphname = three;
layers = (
{
layerId = master01;
paths = (
{
closed = 1;
nodes = (
"431 355 OFFCURVE",
"480 296 OFFCURVE",
"480 203 CURVE SMOOTH",
"480 52 OFFCURVE",
"354 -4 OFFCURVE",
"274 -4 CURVE SMOOTH",
"188 -4 OFFCURVE",
"97 39 OFFCURVE",
"67 132 CURVE",
"119 154 LINE",
"137 88 OFFCURVE",
"201 50 OFFCURVE",
"274 50 CURVE SMOOTH",
"275 50 OFFCURVE",
"424 54 OFFCURVE",
"424 203 CURVE SMOOTH",
"424 317 OFFCURVE",
"329 352 OFFCURVE",
"223 352 CURVE",
"220 406 LINE",
"338 413 OFFCURVE",
"407 467 OFFCURVE",
"407 535 CURVE SMOOTH",
"407 580 OFFCURVE",
"354 629 OFFCURVE",
"268 629 CURVE SMOOTH",
"194 629 OFFCURVE",
"140 580 OFFCURVE",
"128 569 CURVE",
"91 609 LINE",
"112 629 OFFCURVE",
"177 683 OFFCURVE",
"268 683 CURVE SMOOTH",
"378 683 OFFCURVE",
"464 618 OFFCURVE",
"464 535 CURVE SMOOTH",
"464 459 OFFCURVE",
"414 412 OFFCURVE",
"356 385 CURVE"
);
}
);
userData = {
com.fontlab.hintData = {
hhints = (
{
position = -4;
width = 54;
},
{
position = 352;
width = 54;
},
{
position = 629;
width = 54;
}
);
vhints = (
{
position = 67;
width = 52;
},
{
position = 407;
width = 57;
},
{
position = 424;
width = 56;
}
);
};
};
width = 549;
}
);
unicode = 0033;
},
{
glyphname = four;
layers = (
{
layerId = master01;
paths = (
{
closed = 1;
nodes = (
"344 0 LINE",
"344 167 LINE",
"38 173 LINE",
"396 684 LINE",
"396 218 LINE",
"463 217 LINE",
"452 165 LINE",
"396 166 LINE",
"396 10 LINE"
);
},
{
closed = 1;
nodes = (
"344 219 LINE",
"344 521 LINE",
"135 222 LINE"
);
}
);
userData = {
com.fontlab.hintData = {
hhints = (
{
position = 0;
width = 21;
},
{
position = 173;
width = 49;
}
);
vhints = (
{
position = 344;
width = 52;
}
);
};
};
width = 518;
}
);
unicode = 0034;
},
{
glyphname = five;
layers = (
{
layerId = master01;
paths = (
{
closed = 1;
nodes = (
"210 0 OFFCURVE",
"118 24 OFFCURVE",
"67 131 CURVE",
"115 152 LINE",
"145 85 OFFCURVE",
"211 53 OFFCURVE",
"263 53 CURVE SMOOTH",
"263.555 52.995 OFFCURVE",
"264.109 52.993 OFFCURVE",
"264.662 52.993 CURVE SMOOTH",
"377.076 52.993 OFFCURVE",
"446.009 154.311 OFFCURVE",
"446.009 262.082 CURVE SMOOTH",
"446.009 371.75 OFFCURVE",
"367.542 431 OFFCURVE",
"295 431 CURVE SMOOTH",
"232 431 OFFCURVE",
"173 394 OFFCURVE",
"145 348 CURVE",
"96 364 LINE",
"127 672 LINE",
"476 672 LINE",
"466 619 LINE",
"174 619 LINE",
"156 437 LINE",
"188 462 OFFCURVE",
"233 484 OFFCURVE",
"295 484 CURVE SMOOTH",
"422.5 484 OFFCURVE",
"498.008 369.217 OFFCURVE",
"498.008 257.765 CURVE SMOOTH",
"498.008 112.838 OFFCURVE",
"401.29 0 OFFCURVE",
"263 0 CURVE SMOOTH"
);
}
);
userData = {
com.fontlab.hintData = {
hhints = (
{
position = 0;
width = 53;
},
{
position = 431;
width = 53;
},
{
position = 619;
width = 53;
}
);
vhints = (
{
position = 446;
width = 52;
}
);
};
};
width = 562;
}
);
unicode = 0035;
},
{
glyphname = six;
layers = (
{
layerId = master01;
paths = (
{
closed = 1;
nodes = (
"369 634 LINE",
"275 596 OFFCURVE",
"175 503 OFFCURVE",
"139 400 CURVE",
"176 422 OFFCURVE",
"226 442 OFFCURVE",
"289 442 CURVE SMOOTH",
"309 442 OFFCURVE",
"480 436 OFFCURVE",
"480 240 CURVE SMOOTH",
"480 36 OFFCURVE",
"333 -5 OFFCURVE",
"279 -5 CURVE SMOOTH",
"128 -5 OFFCURVE",
"61 110 OFFCURVE",
"61 245 CURVE SMOOTH",
"61 447 OFFCURVE",
"174 608 OFFCURVE",
"352 684 CURVE"
);
},
{
closed = 1;
nodes = (
"114 295 OFFCURVE",
"113 270 OFFCURVE",
"113 245 CURVE SMOOTH",
"113 82 OFFCURVE",
"203 48 OFFCURVE",
"279 48 CURVE SMOOTH",
"321 48 OFFCURVE",
"428 83 OFFCURVE",
"428 240 CURVE SMOOTH",
"428 378 OFFCURVE",
"322 389 OFFCURVE",
"289 389 CURVE SMOOTH",
"196 389 OFFCURVE",
"137 337 OFFCURVE",
"118 318 CURVE"
);
}
);
userData = {
com.fontlab.hintData = {
hhints = (
{
position = -5;
width = 53;
},
{
position = 389;
width = 53;
}
);
vhints = (
{
position = 61;
width = 52;
},
{
position = 428;
width = 52;
}
);
};
};
width = 546;
}
);
unicode = 0036;
},
{
glyphname = seven;
layers = (
{
layerId = master01;
paths = (
{
closed = 1;
nodes = (
"107 25 LINE",
"410 621 LINE",
"74 621 LINE",
"64 675 LINE",
"496 675 LINE",
"154 0 LINE"
);
}
);
userData = {
com.fontlab.hintData = {
hhints = (
{
position = 0;
width = 21;
},
{
position = 621;
width = 54;
}
);
};
};
width = 501;
}
);
unicode = 0037;
},
{
glyphname = eight;
layers = (
{
layerId = master01;
paths = (
{
closed = 1;
nodes = (
"152 -3 OFFCURVE",
"66 74 OFFCURVE",
"66 179 CURVE",
"69 284 OFFCURVE",
"140 336 OFFCURVE",
"205 368 CURVE",
"149 393 OFFCURVE",
"99 434 OFFCURVE",
"99 510 CURVE SMOOTH",
"99 621 OFFCURVE",
"180 686 OFFCURVE",
"283 686 CURVE SMOOTH",
"387 686 OFFCURVE",
"461 620 OFFCURVE",
"461 526 CURVE",
"458 444 OFFCURVE",
"407 403 OFFCURVE",
"352 375 CURVE",
"431 335 OFFCURVE",
"478 268 OFFCURVE",
"478 189 CURVE SMOOTH",
"478 79 OFFCURVE",
"391 -3 OFFCURVE",
"272 -3 CURVE SMOOTH"
);
},
{
closed = 1;
nodes = (
"211 314 OFFCURVE",
"121 273 OFFCURVE",
"121 173 CURVE SMOOTH",
"121 102 OFFCURVE",
"188 52 OFFCURVE",
"272 52 CURVE SMOOTH",
"343 52 OFFCURVE",
"424 94 OFFCURVE",
"424 186 CURVE SMOOTH",
"424 270 OFFCURVE",
"353 321 OFFCURVE",
"282 343 CURVE"
);
},
{
closed = 1;
nodes = (
"355 436 OFFCURVE",
"406 463 OFFCURVE",
"406 532 CURVE SMOOTH",
"406 593 OFFCURVE",
"351 630 OFFCURVE",
"283 630 CURVE SMOOTH",
"205 630 OFFCURVE",
"153 578 OFFCURVE",
"153 514 CURVE SMOOTH",
"153 459 OFFCURVE",
"189 426 OFFCURVE",
"278 401 CURVE"
);
}
);
userData = {
com.fontlab.hintData = {
hhints = (
{
position = -3;
width = 55;
},
{
position = 630;
width = 56;
}
);
vhints = (
{
position = 66;
width = 55;
},
{
position = 99;
width = 54;
},
{
position = 406;
width = 55;
},
{
position = 424;
width = 54;
}
);
};
};
width = 547;
}
);
unicode = 0038;
},
{
glyphname = nine;
layers = (
{
layerId = master01;
paths = (
{
closed = 1;
nodes = (
"172 47 LINE",
"276 89 OFFCURVE",
"362 178 OFFCURVE",
"401 281 CURVE",
"365 259 OFFCURVE",
"315 239 OFFCURVE",
"251 239 CURVE SMOOTH",
"232 239 OFFCURVE",
"61 245 OFFCURVE",
"61 441 CURVE SMOOTH",
"61 589 OFFCURVE",
"154 686 OFFCURVE",
"264 686 CURVE SMOOTH",
"414 686 OFFCURVE",
"480 573 OFFCURVE",
"480 436 CURVE SMOOTH",
"480 205 OFFCURVE",
"329 49 OFFCURVE",
"189 -3 CURVE"
);
},
{
closed = 1;
nodes = (
"426 386 OFFCURVE",
"428 411 OFFCURVE",
"428 436 CURVE SMOOTH",
"428 599 OFFCURVE",
"337 633 OFFCURVE",
"261 633 CURVE SMOOTH",
"220 633 OFFCURVE",
"113 598 OFFCURVE",
"113 441 CURVE SMOOTH",
"113 303 OFFCURVE",
"219 292 OFFCURVE",
"251 292 CURVE SMOOTH",
"344 292 OFFCURVE",
"404 344 OFFCURVE",
"423 363 CURVE"
);
}
);
userData = {
com.fontlab.hintData = {
hhints = (
{
position = -3;
width = 21;
},
{
position = 239;
width = 53;
},
{
position = 633;
width = 53;
}
);
vhints = (
{
position = 61;
width = 52;
},
{
position = 428;
width = 52;
}
);
};
};
width = 546;
}
);
unicode = 0039;
},
{
glyphname = onesuperior;
layers = (
{
layerId = master01;
paths = (
{
closed = 1;
nodes = (
"18 500 LINE",
"78 500 LINE",
"82 752 LINE",
"30 705 LINE",
"0 739 LINE",
"129 856 LINE",
"124 500 LINE",
"179 500 LINE",
"171 454 LINE",
"9 454 LINE"
);
}
);
userData = {
com.fontlab.hintData = {
hhints = (
{
position = 454;
width = 46;
}
);
vhints = (
{
position = 78;
width = 46;
}
);
};
};
width = 179;
}
);
unicode = 00B9;
},
{
glyphname = twosuperior;
layers = (
{
layerId = master01;
paths = (
{
closed = 1;
nodes = (
"0 754 LINE",
"23 789 OFFCURVE",
"69 821 OFFCURVE",
"120 821 CURVE SMOOTH",
"205 821 OFFCURVE",
"230 761 OFFCURVE",
"230 724 CURVE SMOOTH",
"230 667 OFFCURVE",
"171 617 OFFCURVE",
"125 588 CURVE SMOOTH",
"77 557 OFFCURVE",
"55 534 OFFCURVE",
"49 484 CURVE",
"237 484 LINE",
"229 439 LINE",
"3 439 LINE",
"3 461 LINE SMOOTH",
"3 543 OFFCURVE",
"34 581 OFFCURVE",
"100 625 CURVE SMOOTH",
"159 664 OFFCURVE",
"185 694 OFFCURVE",
"185 724 CURVE SMOOTH",
"185 756 OFFCURVE",
"153 775 OFFCURVE",
"120 775 CURVE SMOOTH",
"91 775 OFFCURVE",
"57 760 OFFCURVE",
"32 718 CURVE"
);
}
);
userData = {
com.fontlab.hintData = {
hhints = (
{
position = 439;
width = 45;
},
{
position = 775;
width = 46;
}
);
vhints = (
{
position = 185;
width = 45;
}
);
};
};
width = 237;
}
);
unicode = 00B2;
},
{
glyphname = threesuperior;
layers = (
{
layerId = master01;
paths = (
{
closed = 1;
nodes = (
"11 771 LINE",
"30 791 OFFCURVE",
"66 818 OFFCURVE",
"116 818 CURVE SMOOTH",
"179 818 OFFCURVE",
"228 780 OFFCURVE",
"228 732 CURVE SMOOTH",
"228 699 OFFCURVE",
"212 672 OFFCURVE",
"181 653 CURVE",
"217 630 OFFCURVE",
"236 601 OFFCURVE",
"236 556 CURVE SMOOTH",
"236 470 OFFCURVE",
"165 438 OFFCURVE",
"119 438 CURVE SMOOTH",
"77 438 OFFCURVE",
"19 456 OFFCURVE",
"0 523 CURVE",
"43 541 LINE",
"48 504 OFFCURVE",
"78 483 OFFCURVE",
"119 483 CURVE SMOOTH",
"140 483 OFFCURVE",
"191 496 OFFCURVE",
"191 556 CURVE SMOOTH",
"191 596.172 OFFCURVE",
"162.64 627.195 OFFCURVE",
"94.546 627.195 CURVE SMOOTH",
"91.447 627.195 OFFCURVE",
"88.265 627.131 OFFCURVE",
"85 627 CURVE",
"82 671 LINE",
"117 671 OFFCURVE",
"182 684 OFFCURVE",
"182 732 CURVE SMOOTH",
"182 757 OFFCURVE",
"148 773 OFFCURVE",
"116 773 CURVE SMOOTH",
"93 773 OFFCURVE",
"66 763 OFFCURVE",
"42 738 CURVE"
);
}
);
userData = {
com.fontlab.hintData = {
hhints = (
{
position = 438;
width = 45;
},
{
position = 627;
width = 44;
},
{
position = 773;
width = 45;
}
);
vhints = (
{
position = 0;
width = 43;
},
{
position = 182;
width = 46;
},
{
position = 191;
width = 45;
}
);
};
};
width = 236;
}
);
unicode = 00B3;
},
{
glyphname = period;
layers = (
{
layerId = master01;
paths = (
{
closed = 1;
nodes = (
"143 10 LINE",
"69 0 LINE",
"78 82 LINE",
"151 92 LINE"
);
}
);
userData = {
com.fontlab.hintData = {
hhints = (
{
position = 0;
width = 92;
}
);
vhints = (
{
position = 69;
width = 82;
}
);
};
};
width = 222;
}
);
unicode = 002E;
},
{
glyphname = comma;
layers = (
{
layerId = master01;
paths = (
{
closed = 1;
nodes = (
"233 42 LINE",
"139 -124 LINE",
"90 -96 LINE",
"144 0 LINE",
"105 22 LINE",
"163 81 LINE"
);
}
);
userData = {
com.fontlab.hintData = {
hhints = (
{
position = -124;
width = 205;
}
);
vhints = (
{
position = 90;
width = 143;
}
);
};
};
width = 317;
}
);
unicode = 002C;
},
{
glyphname = colon;
layers = (
{
layerId = master01;
paths = (
{
closed = 1;
nodes = (
"170 363 LINE",
"96 353 LINE",
"105 435 LINE",
"179 445 LINE"
);
},
{
closed = 1;
nodes = (
"143 10 LINE",
"69 0 LINE",
"78 82 LINE",
"151 92 LINE"
);
}
);
userData = {
com.fontlab.hintData = {
hhints = (
{
position = 0;
width = 21;
}
);
vhints = (
{
position = 69;
width = 110;
}
);
};
};
width = 250;
}
);
unicode = 003A;
},
{
glyphname = semicolon;
layers = (
{
layerId = master01;
paths = (
{
closed = 1;
nodes = (
"239 365 LINE",
"165 355 LINE",
"174 437 LINE",
"248 447 LINE"
);
},
{
closed = 1;
nodes = (
"233 41 LINE",
"139 -124 LINE",
"90 -96 LINE",
"144 0 LINE",
"105 22 LINE",
"162 80 LINE"
);
}
);
userData = {
com.fontlab.hintData = {
vhints = (
{
position = 90;
width = 158;
}
);
};
};
width = 332;
}
);
unicode = 003B;
},
{
glyphname = ellipsis;
layers = (
{
layerId = master01;
paths = (
{
closed = 1;
nodes = (
"143 10 LINE",
"69 0 LINE",
"78 82 LINE",
"151 92 LINE"
);
},
{
closed = 1;
nodes = (
"655 10 LINE",
"581 0 LINE",
"590 82 LINE",
"663 92 LINE"
);
},
{
closed = 1;
nodes = (
"399 10 LINE",
"325 0 LINE",
"334 82 LINE",
"407 92 LINE"
);
}
);
userData = {
com.fontlab.hintData = {
hhints = (
{
position = 0;
width = 92;
}
);
};
};
width = 734;
}
);
unicode = 2026;
},
{
glyphname = exclam;
layers = (
{
layerId = master01;
paths = (
{
closed = 1;
nodes = (
"61 148 LINE",
"61 682 LINE",
"115 692 LINE",
"115 159 LINE"
);
},
{
closed = 1;
nodes = (
"110 10 LINE",
"54 0 LINE",
"61 82 LINE",
"117 92 LINE"
);
}
);
userData = {
com.fontlab.hintData = {
hhints = (
{
position = 0;
width = 21;
}
);
vhints = (
{
position = 61;
width = 54;
}
);
};
};
width = 185;
}
);
unicode = 0021;
},
{
glyphname = exclamdown;
layers = (
{
layerId = master01;
paths = (
{
closed = 1;
nodes = (
"110 352 LINE",
"110 -182 LINE",
"56 -192 LINE",
"56 341 LINE"
);
},
{
closed = 1;
nodes = (
"61 490 LINE",
"117 500 LINE",
"110 418 LINE",
"54 408 LINE"
);
}
);
userData = {
com.fontlab.hintData = {
vhints = (
{
position = 56;
width = 54;
}
);
};
};
width = 185;
}
);
unicode = 00A1;
},
{
glyphname = question;
layers = (
{
layerId = master01;
paths = (
{
closed = 1;
nodes = (
"386 713 OFFCURVE",
"475 630 OFFCURVE",
"475 507 CURVE SMOOTH",
"475 397 OFFCURVE",
"391 334 OFFCURVE",
"341 289 CURVE SMOOTH",
"193 157 LINE",
"166 205 LINE",
"308 332 LINE SMOOTH",
"355 374 OFFCURVE",
"422 424 OFFCURVE",
"422 507 CURVE SMOOTH",
"422 580 OFFCURVE",
"378 659 OFFCURVE",
"254 659 CURVE SMOOTH",
"159 659 OFFCURVE",
"105 572 OFFCURVE",
"99 561 CURVE",
"60 600 LINE",
"82 633 OFFCURVE",
"147 713 OFFCURVE",
"254 713 CURVE SMOOTH"
);
},
{
closed = 1;
nodes = (
"206 10 LINE",
"150 0 LINE",
"157 82 LINE",
"213 92 LINE"
);
}
);
userData = {
com.fontlab.hintData = {
hhints = (
{
position = 0;
width = 21;
},
{
position = 659;
width = 54;
}
);
vhints = (
{
position = 422;
width = 53;
}
);
};
};
width = 542;
}
);
unicode = 003F;
},
{
glyphname = questiondown;
layers = (
{
layerId = master01;
paths = (
{
closed = 1;
nodes = (
"269 703 LINE",
"325 713 LINE",
"318 631 LINE",
"262 621 LINE"
);
},
{
closed = 1;
nodes = (
"89 0 OFFCURVE",
"0 83 OFFCURVE",
"0 206 CURVE SMOOTH",
"0 316 OFFCURVE",
"84 379 OFFCURVE",
"134 424 CURVE SMOOTH",
"282 556 LINE",
"309 508 LINE",
"167 381 LINE SMOOTH",
"120 339 OFFCURVE",
"53 289 OFFCURVE",
"53 206 CURVE SMOOTH",
"53 133 OFFCURVE",
"97 54 OFFCURVE",
"221 54 CURVE SMOOTH",
"316 54 OFFCURVE",
"370 141 OFFCURVE",
"376 152 CURVE",
"415 113 LINE",
"393 80 OFFCURVE",
"328 0 OFFCURVE",
"221 0 CURVE SMOOTH"
);
}
);
userData = {
com.fontlab.hintData = {
hhints = (
{
position = 0;
width = 54;
}
);
vhints = (
{
position = 0;
width = 53;
}
);
};
};
width = 501;
}
);
unicode = 00BF;
},
{
glyphname = periodcentered;
layers = (
{
layerId = master01;
paths = (
{
closed = 1;
nodes = (
"283 217 LINE",
"209 207 LINE",
"218 289 LINE",
"291 299 LINE"
);
}
);
userData = {
com.fontlab.hintData = {
hhints = (
{
position = 207;
width = 92;
}
);
vhints = (
{
position = 209;
width = 82;
}
);
};
};
width = 500;
}
);
unicode = 00B7;
},
{
glyphname = bullet;
layers = (
{
layerId = master01;
paths = (
{
closed = 1;
nodes = (
"278 204 OFFCURVE",
"239 164 OFFCURVE",
"190 164 CURVE SMOOTH",
"141 164 OFFCURVE",
"101 204 OFFCURVE",
"101 253 CURVE SMOOTH",
"101 302 OFFCURVE",
"141 342 OFFCURVE",
"190 342 CURVE SMOOTH",
"239 342 OFFCURVE",
"278 302 OFFCURVE",
"278 253 CURVE SMOOTH"
);
}
);
userData = {
com.fontlab.hintData = {
hhints = (
{
position = 164;
width = 178;
}
);
vhints = (
{
position = 101;
width = 177;
}
);
};
};
width = 378;
}
);
unicode = 2022;
},
{
glyphname = asterisk;
layers = (
{
layerId = master01;
paths = (
{
closed = 1;
nodes = (
"344 594 LINE",
"286 565 LINE SMOOTH",
"271 557 OFFCURVE",
"242 551 OFFCURVE",
"239 551 CURVE",
"240 550 OFFCURVE",
"262 535 OFFCURVE",
"275 521 CURVE SMOOTH",
"328 462 LINE",
"288 426 LINE",
"234 487 LINE SMOOTH",
"223 499 OFFCURVE",
"207 527 OFFCURVE",
"207 527 CURVE",
"207 527 OFFCURVE",
"191 499 OFFCURVE",
"180 486 CURVE SMOOTH",
"126 426 LINE",
"86 462 LINE",
"138 519 LINE SMOOTH",
"149 532 OFFCURVE",
"172 549 OFFCURVE",
"172 549 CURVE",
"172 549 OFFCURVE",
"142 558 OFFCURVE",
"125 567 CURVE SMOOTH",
"71 594 LINE",
"95 642 LINE",
"147 616 LINE SMOOTH",
"164 608 OFFCURVE",
"185 590 OFFCURVE",
"185 590 CURVE",
"185 590 OFFCURVE",
"179 621 OFFCURVE",
"179 637 CURVE SMOOTH",
"179 690 LINE",
"233 690 LINE",
"233 636 LINE SMOOTH",
"233 618 OFFCURVE",
"228 589 OFFCURVE",
"228 589 CURVE",
"228 589 OFFCURVE",
"249 607 OFFCURVE",
"265 615 CURVE SMOOTH",
"319 642 LINE"
);
}
);
userData = {
com.fontlab.hintData = {
hhints = (
{
position = 426;
width = 264;
}
);
vhints = (
{
position = 179;
width = 54;
}
);
};
};
width = 417;
}
);
unicode = 002A;
},
{
glyphname = numbersign;
layers = (
{
layerId = master01;
paths = (
{
closed = 1;
nodes = (
"534 431 LINE",
"487 266 LINE",
"645 266 LINE",
"629 212 LINE",
"471 212 LINE",
"411 4 LINE",
"354 0 LINE",
"415 212 LINE",
"261 212 LINE",
"201 4 LINE",
"144 0 LINE",
"205 212 LINE",
"61 212 LINE",
"76 266 LINE",
"221 266 LINE",
"268 431 LINE",
"100 431 LINE",
"116 484 LINE",
"284 484 LINE",
"343 689 LINE",
"400 693 LINE",
"340 484 LINE",
"494 484 LINE",
"552 688 LINE",
"609 692 LINE",
"550 484 LINE",
"689 484 LINE",
"674 431 LINE"
);
},
{
closed = 1;
nodes = (
"478 431 LINE",
"324 431 LINE",
"277 266 LINE",
"431 266 LINE"
);
}
);
userData = {
com.fontlab.hintData = {
hhints = (
{
position = 0;
width = 21;
},
{
position = 212;
width = 54;
},
{
position = 431;
width = 53;
}
);
};
};
width = 751;
}
);
unicode = 0023;
},
{
glyphname = slash;
layers = (
{
layerId = master01;
paths = (
{
closed = 1;
nodes = (
"468 692 LINE",
"88 0 LINE",
"27 0 LINE",
"407 692 LINE"
);
}
);
userData = {
com.fontlab.hintData = {
hhints = (
{
position = 0;
width = 21;
}
);
};
};
width = 492;
}
);
unicode = 002F;
},
{
glyphname = backslash;
layers = (
{
layerId = master01;
paths = (
{
closed = 1;
nodes = (
"468 0 LINE",
"406 0 LINE",
"26 693 LINE",
"87 693 LINE"
);
}
);
userData = {
com.fontlab.hintData = {
hhints = (
{
position = 0;
width = 21;
}
);
};
};
width = 492;
}
);
unicode = 005C;
},
{
glyphname = parenleft;
layers = (
{
layerId = master01;
paths = (
{
closed = 1;
nodes = (
"258 -118 LINE",
"134 1 OFFCURVE",
"65 197 OFFCURVE",
"65 352 CURVE SMOOTH",
"65 521 OFFCURVE",
"147 699 OFFCURVE",
"280 810 CURVE",
"313 768 LINE",
"202 672 OFFCURVE",
"119 515 OFFCURVE",
"119 352 CURVE SMOOTH",
"119 197 OFFCURVE",
"194 18 OFFCURVE",
"295 -79 CURVE"
);
}
);
userData = {
com.fontlab.hintData = {
vhints = (
{
position = 65;
width = 54;
}
);
};
};
width = 377;
}
);
unicode = 0028;
},
{
glyphname = parenright;
layers = (
{
layerId = master01;
paths = (
{
closed = 1;
nodes = (
"98 810 LINE",
"265 668 OFFCURVE",
"311 472 OFFCURVE",
"311 340 CURVE SMOOTH",
"311 180 OFFCURVE",
"237 6 OFFCURVE",
"116 -118 CURVE",
"83 -76 LINE",
"189 37 OFFCURVE",
"257 192 OFFCURVE",
"257 340 CURVE SMOOTH",
"257 623 OFFCURVE",
"63 765 OFFCURVE",
"61 771 CURVE"
);
}
);
userData = {
com.fontlab.hintData = {
vhints = (
{
position = 257;
width = 54;
}
);
};
};
width = 377;
}
);
unicode = 0029;
},
{
glyphname = braceleft;
layers = (
{
layerId = master01;
paths = (
{
closed = 1;
nodes = (
"72 375 LINE",
"113 392 OFFCURVE",
"139 425 OFFCURVE",
"139 473 CURVE SMOOTH",
"139 662 LINE SMOOTH",
"139 776 OFFCURVE",
"252 809 OFFCURVE",
"312 810 CURVE",
"310 756 LINE",
"245 753 OFFCURVE",
"193 719 OFFCURVE",
"193 662 CURVE SMOOTH",
"193 474 LINE SMOOTH",
"193 442 OFFCURVE",
"185 390 OFFCURVE",
"134 350 CURVE",
"167 325 OFFCURVE",
"193 283 OFFCURVE",
"193 226 CURVE SMOOTH",
"193 23 LINE SMOOTH",
"193 -29 OFFCURVE",
"233 -64 OFFCURVE",
"313 -71 CURVE",
"311 -125 LINE",
"251 -123 OFFCURVE",
"139 -90 OFFCURVE",
"139 23 CURVE SMOOTH",
"139 234 LINE SMOOTH",
"139 275 OFFCURVE",
"110 311 OFFCURVE",
"72 325 CURVE"
);
}
);
userData = {
com.fontlab.hintData = {
hhints = (
{
position = -125;
width = 54;
},
{
position = 756;
width = 54;
}
);
vhints = (
{
position = 139;
width = 54;
}
);
};
};
width = 374;
}
);
unicode = 007B;
},
{
glyphname = braceright;
layers = (
{
layerId = master01;
paths = (
{
closed = 1;
nodes = (
"254 293 OFFCURVE",
"228 260 OFFCURVE",
"228 212 CURVE SMOOTH",
"228 23 LINE SMOOTH",
"228 -91 OFFCURVE",
"115 -124 OFFCURVE",
"55 -125 CURVE",
"57 -71 LINE",
"122 -68 OFFCURVE",
"174 -34 OFFCURVE",
"174 23 CURVE SMOOTH",
"174 211 LINE SMOOTH",
"174 243 OFFCURVE",
"182 295 OFFCURVE",
"233 335 CURVE",
"200 360 OFFCURVE",
"174 402 OFFCURVE",
"174 459 CURVE SMOOTH",
"174 662 LINE SMOOTH",
"174 714 OFFCURVE",
"134 749 OFFCURVE",
"54 756 CURVE",
"56 810 LINE",
"116 808 OFFCURVE",
"228 775 OFFCURVE",
"228 662 CURVE SMOOTH",
"228 451 LINE SMOOTH",
"228 410 OFFCURVE",
"257 374 OFFCURVE",
"295 360 CURVE",
"295 310 LINE"
);
}
);
userData = {
com.fontlab.hintData = {
hhints = (
{
position = -125;
width = 54;
},
{
position = 756;
width = 54;
}
);
vhints = (
{
position = 174;
width = 54;
}
);
};
};
width = 374;
}
);
unicode = 007D;
},
{
glyphname = bracketleft;
layers = (
{
layerId = master01;
paths = (
{
closed = 1;
nodes = (
"66 -124 LINE",
"66 805 LINE",
"259 805 LINE",
"249 751 LINE",
"120 751 LINE",
"120 -70 LINE",
"244 -70 LINE",
"234 -124 LINE"
);
}
);
userData = {
com.fontlab.hintData = {
hhints = (
{
position = -124;
width = 54;
},
{
position = 751;
width = 54;
}
);
vhints = (
{
position = 66;
width = 54;
}
);
};
};
width = 315;
}
);
unicode = 005B;
},
{
glyphname = bracketright;
layers = (
{
layerId = master01;
paths = (
{
closed = 1;
nodes = (
"254 805 LINE",
"254 -124 LINE",
"61 -124 LINE",
"71 -70 LINE",
"200 -70 LINE",
"200 751 LINE",
"76 751 LINE",
"87 805 LINE"
);
}
);
userData = {
com.fontlab.hintData = {
hhints = (
{
position = -124;
width = 54;
},
{
position = 751;
width = 54;
}
);
vhints = (
{
position = 200;
width = 54;
}
);
};
};
width = 315;
}
);
unicode = 005D;
},
{
glyphname = hyphen;
layers = (
{
layerId = master01;
paths = (
{
closed = 1;
nodes = (
"71 223 LINE",
"81 277 LINE",
"373 277 LINE",
"363 223 LINE"
);
}
);
userData = {
com.fontlab.hintData = {
hhints = (
{
position = 223;
width = 54;
}
);
vhints = (
{
position = 71;
width = 302;
}
);
};
};
width = 442;
}
);
unicode = 002D;
},
{
glyphname = uni00AD;
layers = (
{
layerId = master01;
paths = (
{
closed = 1;
nodes = (
"363 227 LINE",
"71 227 LINE",
"81 281 LINE",
"373 281 LINE"
);
}
);
userData = {
com.fontlab.hintData = {
hhints = (
{
position = 227;
width = 54;
}
);
vhints = (
{
position = 71;
width = 302;
}
);
};
};
width = 442;
}
);
unicode = 00AD;
},
{
glyphname = endash;
layers = (
{
layerId = master01;
paths = (
{
closed = 1;
nodes = (
"71 222 LINE",
"81 276 LINE",
"527 276 LINE",
"516 222 LINE"
);
}
);
userData = {
com.fontlab.hintData = {
hhints = (
{
position = 222;
width = 54;
}
);
};
};
width = 596;
}
);
unicode = 2013;
},
{
glyphname = emdash;
layers = (
{
layerId = master01;
paths = (
{
closed = 1;
nodes = (
"71 222 LINE",
"81 278 LINE",
"808 278 LINE",
"798 222 LINE"
);
}
);
userData = {
com.fontlab.hintData = {
hhints = (
{
position = 222;
width = 56;
}
);
};
};
width = 877;
}
);
unicode = 2014;
},
{
glyphname = underscore;
layers = (
{
layerId = master01;
paths = (
{
closed = 1;
nodes = (
"-12 -54 LINE",
"-2 0 LINE",
"488 0 LINE",
"478 -54 LINE"
);
}
);
userData = {
com.fontlab.hintData = {
hhints = (
{
position = -54;
width = 54;
}
);
};
};
width = 476;
}
);
unicode = 005F;
},
{
glyphname = quotesinglbase;
layers = (
{
layerId = master01;
paths = (
{
closed = 1;
nodes = (
"232 40 LINE",
"139 -126 LINE",
"90 -98 LINE",
"144 -2 LINE",
"105 20 LINE",
"162 79 LINE"
);
}
);
userData = {
com.fontlab.hintData = {
hhints = (
{
position = -126;
width = 205;
}
);
vhints = (
{
position = 90;
width = 142;
}
);
};
};
width = 316;
}
);
unicode = 201A;
},
{
glyphname = quotedblbase;
layers = (
{
layerId = master01;
paths = (
{
closed = 1;
nodes = (
"232 40 LINE",
"139 -126 LINE",
"90 -98 LINE",
"144 -2 LINE",
"105 20 LINE",
"162 79 LINE"
);
},
{
closed = 1;
nodes = (
"398 40 LINE",
"305 -126 LINE",
"256 -98 LINE",
"310 -2 LINE",
"271 20 LINE",
"328 79 LINE"
);
}
);
userData = {
com.fontlab.hintData = {
hhints = (
{
position = -126;
width = 205;
}
);
vhints = (
{
position = 90;
width = 308;
}
);
};
};
width = 482;
}
);
unicode = 201E;
},
{
glyphname = quotedblleft;
layers = (
{
layerId = master01;
paths = (
{
closed = 1;
nodes = (
"186 583 LINE",
"279 749 LINE",
"328 721 LINE",
"274 625 LINE",
"313 603 LINE",
"256 544 LINE"
);
},
{
closed = 1;
nodes = (
"20 583 LINE",
"113 749 LINE",
"162 721 LINE",
"108 625 LINE",
"147 603 LINE",
"90 544 LINE"
);
}
);
userData = {
com.fontlab.hintData = {
hhints = (
{
position = 544;
width = 205;
}
);
vhints = (
{
position = 20;
width = 308;
}
);
};
};
width = 348;
}
);
unicode = 201C;
},
{
glyphname = quotedblright;
layers = (
{
layerId = master01;
paths = (
{
closed = 1;
nodes = (
"162 710 LINE",
"69 544 LINE",
"20 572 LINE",
"74 668 LINE",
"35 690 LINE",
"92 749 LINE"
);
},
{
closed = 1;
nodes = (
"328 710 LINE",
"235 544 LINE",
"186 572 LINE",
"240 668 LINE",
"201 690 LINE",
"258 749 LINE"
);
}
);
userData = {
com.fontlab.hintData = {
hhints = (
{
position = 544;
width = 205;
}
);
vhints = (
{
position = 20;
width = 308;
}
);
};
};
width = 348;
}
);
unicode = 201D;
},
{
glyphname = quoteleft;
layers = (
{
layerId = master01;
paths = (
{
closed = 1;
nodes = (
"20 583 LINE",
"113 749 LINE",
"162 721 LINE",
"108 625 LINE",
"147 603 LINE",
"90 544 LINE"
);
}
);
userData = {
com.fontlab.hintData = {
hhints = (
{
position = 544;
width = 205;
}
);
vhints = (
{
position = 20;
width = 142;
}
);
};
};
width = 182;
}
);
unicode = 2018;
},
{
glyphname = quoteright;
layers = (
{
layerId = master01;
paths = (
{
closed = 1;
nodes = (
"162 710 LINE",
"69 544 LINE",
"20 572 LINE",
"74 668 LINE",
"35 690 LINE",
"92 749 LINE"
);
}
);
userData = {
com.fontlab.hintData = {
hhints = (
{
position = 544;
width = 205;
}
);
vhints = (
{
position = 20;
width = 142;
}
);
};
};
width = 182;
}
);
unicode = 2019;
},
{
glyphname = guillemotleft;
layers = (
{
layerId = master01;
paths = (
{
closed = 1;
nodes = (
"72 252 LINE",
"295 442 LINE",
"330 402 LINE",
"153 251 LINE",
"313 106 LINE",
"277 66 LINE"
);
},
{
closed = 1;
nodes = (
"277 252 LINE",
"500 442 LINE",
"535 402 LINE",
"358 251 LINE",
"518 106 LINE",
"482 66 LINE"
);
}
);
width = 609;
}
);
unicode = 00AB;
},
{
glyphname = guillemotright;
layers = (
{
layerId = master01;
paths = (
{
closed = 1;
nodes = (
"92 106 LINE",
"252 251 LINE",
"76 402 LINE",
"111 442 LINE",
"334 252 LINE",
"129 66 LINE"
);
},
{
closed = 1;
nodes = (
"297 106 LINE",
"457 251 LINE",
"281 402 LINE",
"316 442 LINE",
"539 252 LINE",
"333 66 LINE"
);
}
);
width = 609;
}
);
unicode = 00BB;
},
{
glyphname = guilsinglleft;
layers = (
{
layerId = master01;
paths = (
{
closed = 1;
nodes = (
"72 250 LINE",
"295 440 LINE",
"330 400 LINE",
"153 249 LINE",
"313 104 LINE",
"277 64 LINE"
);
}
);
userData = {
com.fontlab.hintData = {
vhints = (
{
position = 72;
width = 258;
}
);
};
};
width = 404;
}
);
unicode = 2039;
},
{
glyphname = guilsinglright;
layers = (
{
layerId = master01;
paths = (
{
closed = 1;
nodes = (
"92 106 LINE",
"252 251 LINE",
"76 402 LINE",
"111 442 LINE",
"334 252 LINE",
"129 66 LINE"
);
}
);
userData = {
com.fontlab.hintData = {
vhints = (
{
position = 76;
width = 258;
}
);
};
};
width = 404;
}
);
unicode = 203A;
},
{
glyphname = quotedbl;
layers = (
{
layerId = master01;
paths = (
{
closed = 1;
nodes = (
"69 500 LINE",
"69 680 LINE",
"123 690 LINE",
"123 510 LINE"
);
},
{
closed = 1;
nodes = (
"189 500 LINE",
"189 680 LINE",
"243 690 LINE",
"243 510 LINE"
);
}
);
userData = {
com.fontlab.hintData = {
hhints = (
{
position = 500;
width = 190;
}
);
vhints = (
{
position = 69;
width = 54;
},
{
position = 189;
width = 54;
}
);
};
};
width = 312;
}
);
unicode = 0022;
},
{
glyphname = quotesingle;
layers = (
{
layerId = master01;
paths = (
{
closed = 1;
nodes = (
"69 500 LINE",
"69 680 LINE",
"123 690 LINE",
"123 510 LINE"
);
}
);
userData = {
com.fontlab.hintData = {
hhints = (
{
position = 500;
width = 190;
}
);
vhints = (
{
position = 69;
width = 54;
}
);
};
};
width = 192;
}
);
unicode = 0027;
},
{
glyphname = .notdef;
layers = (
{
layerId = master01;
paths = (
{
closed = 1;
nodes = (
"480 681 LINE",
"480 0 LINE",
"18 0 LINE",
"18 681 LINE"
);
},
{
closed = 1;
nodes = (
"440 66 LINE",
"440 599 LINE",
"271 340 LINE"
);
},
{
closed = 1;
nodes = (
"75 40 LINE",
"409 40 LINE",
"247 303 LINE"
);
},
{
closed = 1;
nodes = (
"248 378 LINE",
"420 641 LINE",
"86 641 LINE"
);
},
{
closed = 1;
nodes = (
"58 610 LINE",
"58 87 LINE",
"224 341 LINE"
);
}
);
userData = {
com.fontlab.hintData = {
hhints = (
{
position = 0;
width = 40;
},
{
position = 641;
width = 40;
}
);
vhints = (
{
position = 18;
width = 40;
},
{
position = 440;
width = 40;
}
);
};
};
width = 500;
}
);
},
{
glyphname = Euro;
layers = (
{
layerId = master01;
paths = (
{
closed = 1;
nodes = (
"281 0 OFFCURVE",
"151 121 OFFCURVE",
"142 261 CURVE",
"61 261 LINE",
"71 318 LINE",
"141 318 LINE",
"142 342 OFFCURVE",
"146 365 OFFCURVE",
"150 385 CURVE",
"61 385 LINE",
"71 442 LINE",
"166 442 LINE",
"187 514 OFFCURVE",
"285 691 OFFCURVE",
"435 691 CURVE SMOOTH",
"500 691 OFFCURVE",
"557 669 OFFCURVE",
"600 630 CURVE",
"561 594 LINE",
"533 617 OFFCURVE",
"492 637 OFFCURVE",
"430 637 CURVE SMOOTH",
"336 637 OFFCURVE",
"250 519 OFFCURVE",
"222 442 CURVE",
"450 442 LINE",
"440 385 LINE",
"204 385 LINE",
"198 361 OFFCURVE",
"195 339 OFFCURVE",
"193 318 CURVE",
"430 318 LINE",
"419 261 LINE",
"195 261 LINE",
"203 160 OFFCURVE",
"310 54 OFFCURVE",
"417 54 CURVE SMOOTH",
"476 54 OFFCURVE",
"519 68 OFFCURVE",
"553 89 CURVE",
"592 51 LINE",
"546 19 OFFCURVE",
"485 0 OFFCURVE",
"423 0 CURVE SMOOTH"
);
}
);
userData = {
com.fontlab.hintData = {
hhints = (
{
position = 0;
width = 54;
},
{
position = 261;
width = 57;
},
{
position = 385;
width = 57;
},
{
position = 637;
width = 54;
}
);
vhints = (
{
position = 150;
width = 54;
}
);
};
};
width = 663;
}
);
unicode = 20AC;
},
{
glyphname = cent;
layers = (
{
layerId = master01;
paths = (
{
closed = 1;
nodes = (
"272 17 LINE",
"225 0 LINE",
"228 101 LINE",
"108 133 OFFCURVE",
"51 217 OFFCURVE",
"51 314 CURVE SMOOTH",
"51 427 OFFCURVE",
"120 559 OFFCURVE",
"240 595 CURVE",
"242 670 LINE",
"289 688 LINE",
"287 599 LINE",
"344 597 OFFCURVE",
"394 570 OFFCURVE",
"426 527 CURVE",
"386 488 LINE",
"364 523 OFFCURVE",
"327 544 OFFCURVE",
"285 547 CURVE",
"275 149 LINE",
"336 149 OFFCURVE",
"391 186 OFFCURVE",
"417 234 CURVE",
"456 194 LINE",
"419 138 OFFCURVE",
"354 100 OFFCURVE",
"274 97 CURVE"
);
},
{
closed = 1;
nodes = (
"239 540 LINE",
"139 501 OFFCURVE",
"104 370 OFFCURVE",
"104 316 CURVE SMOOTH",
"104 247 OFFCURVE",
"143 183 OFFCURVE",
"229 154 CURVE"
);
}
);
userData = {
com.fontlab.hintData = {
hhints = (
{
position = 0;
width = 21;
},
{
position = 97;
width = 52;
},
{
position = 547;
width = 52;
}
);
vhints = (
{
position = 51;
width = 53;
},
{
position = 228;
width = 46;
},
{
position = 240;
width = 47;
}
);
};
};
width = 506;
}
);
unicode = 00A2;
},
